# Blender 5.0.1
# www.blender.org
mtllib yes.mtl
o テキスト
v 1.409377 0.017519 0.150000
v 1.409377 -0.315815 0.150000
v 1.326043 -0.315815 0.150000
v 1.326043 -0.399148 0.150000
v 0.576043 -0.399148 0.150000
v 0.576043 -0.232481 0.150000
v 1.076043 -0.232481 0.150000
v 1.076043 -0.065815 0.150000
v 0.659376 -0.065815 0.150000
v 0.659376 0.017519 0.150000
v 0.576043 0.017519 0.150000
v 0.576043 0.350852 0.150000
v 0.659376 0.350852 0.150000
v 0.659376 0.434185 0.150000
v 1.409377 0.434185 0.150000
v 1.409377 0.267519 0.150000
v 0.909376 0.267519 0.150000
v 0.909376 0.100852 0.150000
v 1.326043 0.100852 0.150000
v 1.326043 0.017519 0.150000
v 0.409377 -0.232481 0.150000
v 0.409377 -0.399148 0.150000
v -0.340623 -0.399148 0.150000
v -0.340623 -0.315815 0.150000
v -0.423957 -0.315815 0.150000
v -0.423957 0.350852 0.150000
v -0.340623 0.350852 0.150000
v -0.340623 0.434185 0.150000
v 0.409377 0.434185 0.150000
v 0.409377 0.267519 0.150000
v -0.090623 0.267519 0.150000
v -0.090623 0.100852 0.150000
v 0.159377 0.100852 0.150000
v 0.159377 -0.065815 0.150000
v -0.090623 -0.065815 0.150000
v -0.090623 -0.232481 0.150000
v -0.590623 0.434185 0.150000
v -0.590623 0.017519 0.150000
v -0.673957 0.017519 0.150000
v -0.673957 -0.065815 0.150000
v -0.840623 -0.065815 0.150000
v -0.840623 -0.399148 0.150000
v -1.173957 -0.399148 0.150000
v -1.173957 -0.065815 0.150000
v -1.340623 -0.065815 0.150000
v -1.340623 0.017519 0.150000
v -1.423957 0.017519 0.150000
v -1.423957 0.434185 0.150000
v -1.090623 0.434185 0.150000
v -1.090623 0.100852 0.150000
v -0.923957 0.100852 0.150000
v -0.923957 0.434185 0.150000
v 1.409377 0.017519 -0.150000
v 1.409377 -0.315815 -0.150000
v 1.326043 -0.315815 -0.150000
v 1.326043 -0.399148 -0.150000
v 0.576043 -0.399148 -0.150000
v 0.576043 -0.232481 -0.150000
v 1.076043 -0.232481 -0.150000
v 1.076043 -0.065815 -0.150000
v 0.659376 -0.065815 -0.150000
v 0.659376 0.017519 -0.150000
v 0.576043 0.017519 -0.150000
v 0.576043 0.350852 -0.150000
v 0.659376 0.350852 -0.150000
v 0.659376 0.434185 -0.150000
v 1.409377 0.434185 -0.150000
v 1.409377 0.267519 -0.150000
v 0.909376 0.267519 -0.150000
v 0.909376 0.100852 -0.150000
v 1.326043 0.100852 -0.150000
v 1.326043 0.017519 -0.150000
v 0.409377 -0.232481 -0.150000
v 0.409377 -0.399148 -0.150000
v -0.340623 -0.399148 -0.150000
v -0.340623 -0.315815 -0.150000
v -0.423957 -0.315815 -0.150000
v -0.423957 0.350852 -0.150000
v -0.340623 0.350852 -0.150000
v -0.340623 0.434185 -0.150000
v 0.409377 0.434185 -0.150000
v 0.409377 0.267519 -0.150000
v -0.090623 0.267519 -0.150000
v -0.090623 0.100852 -0.150000
v 0.159377 0.100852 -0.150000
v 0.159377 -0.065815 -0.150000
v -0.090623 -0.065815 -0.150000
v -0.090623 -0.232481 -0.150000
v -0.590623 0.434185 -0.150000
v -0.590623 0.017519 -0.150000
v -0.673957 0.017519 -0.150000
v -0.673957 -0.065815 -0.150000
v -0.840623 -0.065815 -0.150000
v -0.840623 -0.399148 -0.150000
v -1.173957 -0.399148 -0.150000
v -1.173957 -0.065815 -0.150000
v -1.340623 -0.065815 -0.150000
v -1.340623 0.017519 -0.150000
v -1.423957 0.017519 -0.150000
v -1.423957 0.434185 -0.150000
v -1.090623 0.434185 -0.150000
v -1.090623 0.100852 -0.150000
v -0.923957 0.100852 -0.150000
v -0.923957 0.434185 -0.150000
v -0.590623 0.434185 -0.150000
v -0.590623 0.434185 0.150000
v -0.590623 0.017519 -0.150000
v -0.590623 0.017519 0.150000
v -0.673957 0.017519 -0.150000
v -0.673957 0.017519 0.150000
v -0.673957 -0.065815 -0.150000
v -0.673957 -0.065815 0.150000
v -0.840623 -0.065815 -0.150000
v -0.840623 -0.065815 0.150000
v -0.840623 -0.399148 -0.150000
v -0.840623 -0.399148 0.150000
v -1.173957 -0.399148 -0.150000
v -1.173957 -0.399148 0.150000
v -1.173957 -0.065815 -0.150000
v -1.173957 -0.065815 0.150000
v -1.340623 -0.065815 -0.150000
v -1.340623 -0.065815 0.150000
v -1.340623 0.017519 -0.150000
v -1.340623 0.017519 0.150000
v -1.423957 0.017519 -0.150000
v -1.423957 0.017519 0.150000
v -1.423957 0.434185 -0.150000
v -1.423957 0.434185 0.150000
v -1.090623 0.434185 -0.150000
v -1.090623 0.434185 0.150000
v -1.090623 0.100852 -0.150000
v -1.090623 0.100852 0.150000
v -0.923957 0.100852 -0.150000
v -0.923957 0.100852 0.150000
v -0.923957 0.434185 -0.150000
v -0.923957 0.434185 0.150000
v 0.409377 -0.232481 -0.150000
v 0.409377 -0.232481 0.150000
v 0.409377 -0.399148 -0.150000
v 0.409377 -0.399148 0.150000
v -0.340623 -0.399148 -0.150000
v -0.340623 -0.399148 0.150000
v -0.340623 -0.315815 -0.150000
v -0.340623 -0.315815 0.150000
v -0.423957 -0.315815 -0.150000
v -0.423957 -0.315815 0.150000
v -0.423957 0.350852 -0.150000
v -0.423957 0.350852 0.150000
v -0.340623 0.350852 -0.150000
v -0.340623 0.350852 0.150000
v -0.340623 0.434185 -0.150000
v -0.340623 0.434185 0.150000
v 0.409377 0.434185 -0.150000
v 0.409377 0.434185 0.150000
v 0.409377 0.267519 -0.150000
v 0.409377 0.267519 0.150000
v -0.090623 0.267519 -0.150000
v -0.090623 0.267519 0.150000
v -0.090623 0.100852 -0.150000
v -0.090623 0.100852 0.150000
v 0.159377 0.100852 -0.150000
v 0.159377 0.100852 0.150000
v 0.159377 -0.065815 -0.150000
v 0.159377 -0.065815 0.150000
v -0.090623 -0.065815 -0.150000
v -0.090623 -0.065815 0.150000
v -0.090623 -0.232481 -0.150000
v -0.090623 -0.232481 0.150000
v 1.409377 0.017519 -0.150000
v 1.409377 0.017519 0.150000
v 1.409377 -0.315815 -0.150000
v 1.409377 -0.315815 0.150000
v 1.326043 -0.315815 -0.150000
v 1.326043 -0.315815 0.150000
v 1.326043 -0.399148 -0.150000
v 1.326043 -0.399148 0.150000
v 0.576043 -0.399148 -0.150000
v 0.576043 -0.399148 0.150000
v 0.576043 -0.232481 -0.150000
v 0.576043 -0.232481 0.150000
v 1.076043 -0.232481 -0.150000
v 1.076043 -0.232481 0.150000
v 1.076043 -0.065815 -0.150000
v 1.076043 -0.065815 0.150000
v 0.659376 -0.065815 -0.150000
v 0.659376 -0.065815 0.150000
v 0.659376 0.017519 -0.150000
v 0.659376 0.017519 0.150000
v 0.576043 0.017519 -0.150000
v 0.576043 0.017519 0.150000
v 0.576043 0.350852 -0.150000
v 0.576043 0.350852 0.150000
v 0.659376 0.350852 -0.150000
v 0.659376 0.350852 0.150000
v 0.659376 0.434185 -0.150000
v 0.659376 0.434185 0.150000
v 1.409377 0.434185 -0.150000
v 1.409377 0.434185 0.150000
v 1.409377 0.267519 -0.150000
v 1.409377 0.267519 0.150000
v 0.909376 0.267519 -0.150000
v 0.909376 0.267519 0.150000
v 0.909376 0.100852 -0.150000
v 0.909376 0.100852 0.150000
v 1.326043 0.100852 -0.150000
v 1.326043 0.100852 0.150000
v 1.326043 0.017519 -0.150000
v 1.326043 0.017519 0.150000
vn -0.0000 -0.0000 1.0000
vn -0.0000 -0.0000 -1.0000
vn 0.7071 -0.7071 -0.0000
vn 0.7071 0.7071 -0.0000
vn -0.7071 -0.7071 -0.0000
vn -0.7071 0.7071 -0.0000
vt 0.631579 0.000000
vt 0.736842 0.000000
vt 0.684211 0.000000
vt 0.789474 0.000000
vt 0.526316 0.000000
vt 0.578947 0.000000
vt 0.842105 0.000000
vt 0.894737 0.000000
vt 0.947368 0.000000
vt 1.000000 0.000000
vt 0.473684 0.000000
vt 0.421053 0.000000
vt 0.000000 0.000000
vt 0.368421 0.000000
vt 0.052632 0.000000
vt 0.315789 0.000000
vt 0.210526 0.000000
vt 0.263158 0.000000
vt 0.105263 0.000000
vt 0.157895 0.000000
vt 0.400000 0.000000
vt 0.533333 0.000000
vt 0.466667 0.000000
vt 0.600000 0.000000
vt 0.266667 0.000000
vt 0.333333 0.000000
vt 0.666667 0.000000
vt 0.733333 0.000000
vt 0.933333 0.000000
vt 0.800000 0.000000
vt 0.866667 0.000000
vt 0.200000 0.000000
vt 0.066667 0.000000
vt 0.133333 0.000000
vt 0.062500 1.000000
vt 0.000000 1.000000
vt 0.125000 1.000000
vt 0.062500 0.000000
vt 0.187500 1.000000
vt 0.125000 0.000000
vt 0.250000 1.000000
vt 0.187500 0.000000
vt 0.312500 1.000000
vt 0.250000 0.000000
vt 0.375000 1.000000
vt 0.312500 0.000000
vt 0.437500 1.000000
vt 0.375000 0.000000
vt 0.500000 1.000000
vt 0.437500 0.000000
vt 0.562500 1.000000
vt 0.500000 0.000000
vt 0.625000 1.000000
vt 0.562500 0.000000
vt 0.687500 1.000000
vt 0.625000 0.000000
vt 0.750000 1.000000
vt 0.687500 0.000000
vt 0.812500 1.000000
vt 0.750000 0.000000
vt 0.875000 1.000000
vt 0.812500 0.000000
vt 0.937500 1.000000
vt 0.875000 0.000000
vt 1.000000 1.000000
vt 0.937500 0.000000
vt 0.050000 1.000000
vt 0.100000 1.000000
vt 0.050000 0.000000
vt 0.150000 1.000000
vt 0.100000 0.000000
vt 0.200000 1.000000
vt 0.150000 0.000000
vt 0.300000 1.000000
vt 0.350000 1.000000
vt 0.300000 0.000000
vt 0.400000 1.000000
vt 0.350000 0.000000
vt 0.450000 1.000000
vt 0.450000 0.000000
vt 0.550000 1.000000
vt 0.600000 1.000000
vt 0.550000 0.000000
vt 0.650000 1.000000
vt 0.700000 1.000000
vt 0.650000 0.000000
vt 0.700000 0.000000
vt 0.800000 1.000000
vt 0.850000 1.000000
vt 0.900000 1.000000
vt 0.850000 0.000000
vt 0.950000 1.000000
vt 0.900000 0.000000
vt 0.950000 0.000000
s 0
f 13/1/1 15/2/1 14/3/1
f 13/1/1 16/4/1 15/2/1
f 11/5/1 13/1/1 12/6/1
f 11/5/1 17/7/1 13/1/1
f 17/7/1 16/4/1 13/1/1
f 11/5/1 18/8/1 17/7/1
f 11/5/1 19/9/1 18/8/1
f 11/5/1 20/10/1 19/9/1
f 10/11/1 20/10/1 11/5/1
f 9/12/1 20/10/1 10/11/1
f 9/12/1 1/13/1 20/10/1
f 9/12/1 8/14/1 1/13/1
f 8/14/1 2/15/1 1/13/1
f 7/16/1 2/15/1 8/14/1
f 5/17/1 7/16/1 6/18/1
f 5/17/1 3/19/1 7/16/1
f 3/19/1 2/15/1 7/16/1
f 5/17/1 4/20/1 3/19/1
f 27/21/1 29/22/1 28/23/1
f 27/21/1 30/24/1 29/22/1
f 25/25/1 27/21/1 26/26/1
f 25/25/1 31/27/1 27/21/1
f 31/27/1 30/24/1 27/21/1
f 25/25/1 32/28/1 31/27/1
f 25/25/1 35/29/1 32/28/1
f 35/29/1 33/30/1 32/28/1
f 35/29/1 34/31/1 33/30/1
f 25/25/1 36/10/1 35/29/1
f 25/25/1 21/13/1 36/10/1
f 25/25/1 24/32/1 21/13/1
f 24/32/1 22/33/1 21/13/1
f 23/34/1 22/33/1 24/32/1
f 47/27/1 49/30/1 48/28/1
f 47/27/1 50/31/1 49/30/1
f 51/29/1 37/13/1 52/10/1
f 51/29/1 38/33/1 37/13/1
f 47/27/1 51/29/1 50/31/1
f 47/27/1 38/33/1 51/29/1
f 46/24/1 38/33/1 47/27/1
f 45/22/1 39/34/1 46/24/1
f 39/34/1 38/33/1 46/24/1
f 45/22/1 40/32/1 39/34/1
f 44/23/1 40/32/1 45/22/1
f 43/21/1 41/25/1 44/23/1
f 41/25/1 40/32/1 44/23/1
f 43/21/1 42/26/1 41/25/1
f 65/1/2 66/3/2 67/2/2
f 65/1/2 67/2/2 68/4/2
f 63/5/2 64/6/2 65/1/2
f 63/5/2 65/1/2 69/7/2
f 69/7/2 65/1/2 68/4/2
f 63/5/2 69/7/2 70/8/2
f 63/5/2 70/8/2 71/9/2
f 63/5/2 71/9/2 72/10/2
f 62/11/1 63/5/1 72/10/1
f 61/12/2 62/11/2 72/10/2
f 61/12/2 72/10/2 53/13/2
f 61/12/2 53/13/2 60/14/2
f 60/14/2 53/13/2 54/15/2
f 59/16/2 60/14/2 54/15/2
f 57/17/2 58/18/2 59/16/2
f 57/17/2 59/16/2 55/19/2
f 55/19/2 59/16/2 54/15/2
f 57/17/2 55/19/2 56/20/2
f 79/21/2 80/23/2 81/22/2
f 79/21/2 81/22/2 82/24/2
f 77/25/2 78/26/2 79/21/2
f 77/25/2 79/21/2 83/27/2
f 83/27/2 79/21/2 82/24/2
f 77/25/2 83/27/2 84/28/2
f 77/25/2 84/28/2 87/29/2
f 87/29/2 84/28/2 85/30/2
f 87/29/2 85/30/2 86/31/2
f 77/25/2 87/29/2 88/10/2
f 77/25/2 88/10/2 73/13/2
f 77/25/2 73/13/2 76/32/2
f 76/32/2 73/13/2 74/33/2
f 75/34/2 76/32/2 74/33/2
f 99/27/2 100/28/2 101/30/2
f 99/27/2 101/30/2 102/31/2
f 103/29/2 104/10/2 89/13/2
f 103/29/2 89/13/2 90/33/2
f 99/27/2 102/31/2 103/29/2
f 99/27/2 103/29/2 90/33/2
f 98/24/1 99/27/1 90/33/1
f 97/22/2 98/24/2 91/34/2
f 91/34/1 98/24/1 90/33/1
f 97/22/2 91/34/2 92/32/2
f 96/23/2 97/22/2 92/32/2
f 95/21/2 96/23/2 93/25/2
f 93/25/1 96/23/1 92/32/1
f 95/21/2 93/25/2 94/26/2
s 1
f 108/35/3 105/13/4 106/36/4
f 110/37/3 107/38/3 108/35/3
f 112/39/3 109/40/3 110/37/3
f 114/41/3 111/42/3 112/39/3
f 116/43/3 113/44/3 114/41/3
f 118/45/5 115/46/3 116/43/3
f 120/47/5 117/48/5 118/45/5
f 122/49/5 119/50/5 120/47/5
f 124/51/5 121/52/5 122/49/5
f 126/53/5 123/54/5 124/51/5
f 128/55/6 125/56/5 126/53/5
f 130/57/4 127/58/6 128/55/6
f 132/59/4 129/60/4 130/57/4
f 134/61/6 131/62/4 132/59/4
f 136/63/6 133/64/6 134/61/6
f 106/65/4 135/66/6 136/63/6
f 140/35/3 137/13/4 138/36/4
f 142/37/5 139/38/3 140/35/3
f 144/39/5 141/40/5 142/37/5
f 146/41/5 143/42/5 144/39/5
f 148/43/6 145/44/5 146/41/5
f 150/45/6 147/46/6 148/43/6
f 152/47/6 149/48/6 150/45/6
f 154/49/4 151/50/6 152/47/6
f 156/51/3 153/52/4 154/49/4
f 158/53/3 155/54/3 156/51/3
f 160/55/4 157/56/3 158/53/3
f 162/57/4 159/58/4 160/55/4
f 164/59/3 161/60/4 162/57/4
f 166/61/3 163/62/3 164/59/3
f 168/63/4 165/64/3 166/61/3
f 138/65/4 167/66/4 168/63/4
f 172/67/3 169/13/4 170/36/4
f 174/68/3 171/69/3 172/67/3
f 176/70/3 173/71/3 174/68/3
f 178/72/5 175/73/3 176/70/3
f 180/41/6 177/32/5 178/72/5
f 182/74/6 179/44/6 180/41/6
f 184/75/5 181/76/6 182/74/6
f 186/77/5 183/78/5 184/75/5
f 188/79/5 185/21/5 186/77/5
f 190/49/5 187/80/5 188/79/5
f 192/81/6 189/52/5 190/49/5
f 194/82/6 191/83/6 192/81/6
f 196/84/6 193/24/6 194/82/6
f 198/85/4 195/86/6 196/84/6
f 200/57/3 197/87/4 198/85/4
f 202/88/3 199/60/3 200/57/3
f 204/89/4 201/30/3 202/88/3
f 206/90/4 203/91/4 204/89/4
f 208/92/4 205/93/4 206/90/4
f 170/65/4 207/94/4 208/92/4
f 108/35/3 107/38/3 105/13/4
f 110/37/3 109/40/3 107/38/3
f 112/39/3 111/42/3 109/40/3
f 114/41/3 113/44/3 111/42/3
f 116/43/3 115/46/3 113/44/3
f 118/45/5 117/48/5 115/46/3
f 120/47/5 119/50/5 117/48/5
f 122/49/5 121/52/5 119/50/5
f 124/51/5 123/54/5 121/52/5
f 126/53/5 125/56/5 123/54/5
f 128/55/6 127/58/6 125/56/5
f 130/57/4 129/60/4 127/58/6
f 132/59/4 131/62/4 129/60/4
f 134/61/6 133/64/6 131/62/4
f 136/63/6 135/66/6 133/64/6
f 106/65/4 105/10/4 135/66/6
f 140/35/3 139/38/3 137/13/4
f 142/37/5 141/40/5 139/38/3
f 144/39/5 143/42/5 141/40/5
f 146/41/5 145/44/5 143/42/5
f 148/43/6 147/46/6 145/44/5
f 150/45/6 149/48/6 147/46/6
f 152/47/6 151/50/6 149/48/6
f 154/49/4 153/52/4 151/50/6
f 156/51/3 155/54/3 153/52/4
f 158/53/3 157/56/3 155/54/3
f 160/55/4 159/58/4 157/56/3
f 162/57/4 161/60/4 159/58/4
f 164/59/3 163/62/3 161/60/4
f 166/61/3 165/64/3 163/62/3
f 168/63/4 167/66/4 165/64/3
f 138/65/4 137/10/4 167/66/4
f 172/67/3 171/69/3 169/13/4
f 174/68/3 173/71/3 171/69/3
f 176/70/3 175/73/3 173/71/3
f 178/72/5 177/32/5 175/73/3
f 180/41/6 179/44/6 177/32/5
f 182/74/6 181/76/6 179/44/6
f 184/75/5 183/78/5 181/76/6
f 186/77/5 185/21/5 183/78/5
f 188/79/5 187/80/5 185/21/5
f 190/49/5 189/52/5 187/80/5
f 192/81/6 191/83/6 189/52/5
f 194/82/6 193/24/6 191/83/6
f 196/84/6 195/86/6 193/24/6
f 198/85/4 197/87/4 195/86/6
f 200/57/3 199/60/3 197/87/4
f 202/88/3 201/30/3 199/60/3
f 204/89/4 203/91/4 201/30/3
f 206/90/4 205/93/4 203/91/4
f 208/92/4 207/94/4 205/93/4
f 170/65/4 169/10/4 207/94/4
