# Blender 5.0.1
# www.blender.org
mtllib player.mtl
o Cube.001
v 0.514330 0.005000 0.514330
v 0.600000 0.129935 0.514330
v 0.261119 0.347991 0.600000
v 0.600000 1.630065 0.514330
v 0.392416 1.755000 0.392416
v 0.261119 1.109589 0.600000
v -0.514330 0.005000 0.514330
v -0.261119 0.347991 0.600000
v -0.600000 0.129935 0.514330
v -0.392416 1.755000 0.392416
v -0.600000 1.630065 0.514330
v -0.261119 1.109589 0.600000
v 0.514330 0.005000 -0.514330
v 0.514330 0.129935 -0.600000
v 0.600000 0.129935 -0.514330
v 0.392416 1.755000 -0.392416
v 0.600000 1.630065 -0.514330
v 0.514330 1.630065 -0.600000
v -0.514330 0.005000 -0.514330
v -0.600000 0.129935 -0.514330
v -0.514330 0.129935 -0.600000
v -0.392416 1.755000 -0.392416
v -0.514330 1.630065 -0.600000
v -0.600000 1.630065 -0.514330
v 0.514330 0.129935 0.600000
v -0.514330 0.129935 0.600000
v 0.514330 1.630065 0.600000
v -0.514330 1.630065 0.600000
v 0.261119 0.347991 0.823994
v 0.190520 0.450949 0.867159
v -0.190520 0.450949 0.867159
v -0.261119 0.347991 0.823994
v 0.261119 1.109589 0.823994
v 0.190520 1.006631 0.867159
v -0.261119 1.109589 0.823994
v -0.190520 1.006631 0.867159
v 0.217954 0.410941 0.867159
v -0.217954 0.410941 0.867159
v 0.217954 1.046639 0.867159
v -0.217954 1.046639 0.867159
v 0.190520 0.450949 0.384121
v -0.190520 0.450949 0.384121
v 0.190520 1.006631 0.384121
v -0.190520 1.006631 0.384121
v 0.514330 1.755000 0.514330
v -0.514330 1.755000 0.514330
v -0.514330 1.755000 -0.514330
v 0.514330 1.755000 -0.514330
v 0.392416 1.842336 0.392416
v 0.057350 1.909552 0.057350
v -0.057350 1.909552 0.057350
v -0.392416 1.842336 0.392416
v -0.057350 1.909552 -0.057350
v -0.392416 1.842336 -0.392416
v 0.057350 1.909552 -0.057350
v 0.392416 1.842336 -0.392416
v 0.346325 1.909552 0.346325
v -0.346325 1.909552 0.346325
v -0.346325 1.909552 -0.346325
v 0.346325 1.909552 -0.346325
v 0.057350 1.968839 0.057350
v 0.036147 1.999760 0.036147
v -0.036147 1.999760 0.036147
v -0.057350 1.968839 0.057350
v -0.036147 1.999760 -0.036147
v -0.057350 1.968839 -0.057350
v 0.036147 1.999760 -0.036147
v 0.057350 1.968839 -0.057350
vn 0.6363 -0.4363 0.6363
vn 0.6363 0.4363 0.6363
vn -0.6363 -0.4363 0.6363
vn -0.6363 0.4363 0.6363
vn 0.6363 -0.4363 -0.6363
vn 0.6363 0.4363 -0.6363
vn -0.6363 -0.4363 -0.6363
vn -0.6363 0.4363 -0.6363
vn -0.0000 -0.5655 0.8247
vn 0.7071 -0.0000 0.7071
vn -0.0000 0.5655 0.8247
vn -0.7071 -0.0000 0.7071
vn -0.8247 -0.5655 -0.0000
vn -0.8247 0.5655 -0.0000
vn -0.7071 -0.0000 -0.7071
vn -0.0000 -0.5655 -0.8247
vn -0.0000 0.5655 -0.8247
vn 0.7071 -0.0000 -0.7071
vn 0.8247 -0.5655 -0.0000
vn 0.8247 0.5655 -0.0000
vn -0.0000 -1.0000 -0.0000
vn 1.0000 -0.0000 -0.0000
vn -1.0000 -0.0000 -0.0000
vn -0.0000 -0.0000 -1.0000
vn -0.0000 -0.0000 1.0000
vn -0.0000 1.0000 -0.0000
vt 0.142848 0.732152
vt 0.142848 0.750000
vt 0.125000 0.732152
vt 0.607152 0.000000
vt 0.625000 0.017848
vt 0.607152 0.017848
vt 0.142848 0.517848
vt 0.125000 0.517848
vt 0.142848 0.500000
vt 0.625000 0.244051
vt 0.607152 0.263386
vt 0.607152 0.232152
vt 0.357152 0.732152
vt 0.388386 0.732152
vt 0.375000 0.758924
vt 0.633924 0.750000
vt 0.607152 0.767848
vt 0.607152 0.736614
vt 0.357152 0.517848
vt 0.375000 0.491076
vt 0.388386 0.517848
vt 0.633924 0.500000
vt 0.607152 0.513386
vt 0.607152 0.482152
vt 0.392848 0.017848
vt 0.392848 0.000000
vt 0.392848 0.267848
vt 0.625000 0.982152
vt 0.392848 0.982152
vt 0.445600 0.179400
vt 0.445600 0.070600
vt 0.554400 0.070600
vt 0.554400 0.179400
vt 0.392848 0.232152
vt 0.454593 0.170407
vt 0.454593 0.079593
vt 0.545407 0.079593
vt 0.545407 0.170407
vt 0.539692 0.164692
vt 0.539692 0.085308
vt 0.460308 0.164692
vt 0.460308 0.085308
vt 0.830696 0.542059
vt 0.857152 0.732152
vt 0.830696 0.707941
vt 0.660380 0.530818
vt 0.857152 0.517848
vt 0.660380 0.719182
vt 0.820693 0.551396
vt 0.820693 0.698604
vt 0.670383 0.542285
vt 0.670383 0.707715
vt 0.757984 0.612212
vt 0.757984 0.637788
vt 0.733093 0.611902
vt 0.733092 0.638098
vt 0.753382 0.616912
vt 0.753382 0.633089
vt 0.737694 0.616773
vt 0.737694 0.633227
vt 0.607152 0.982152
s 1
usemtl Material.002
f 1/1/1 2/2/1 25/3/1
f 4/4/2 45/5/2 27/6/2
f 7/7/3 26/8/3 9/9/3
f 46/10/4 11/11/4 28/12/4
f 13/13/5 14/14/5 15/15/5
f 48/16/6 17/17/6 18/18/6
f 19/19/7 20/20/7 21/21/7
f 47/22/8 23/23/8 24/24/8
f 1/1/9 26/8/9 7/7/9
f 4/4/10 25/25/10 2/26/10
f 46/10/11 27/6/11 45/5/11
f 9/27/12 28/12/12 11/11/12
f 7/7/13 20/20/13 19/19/13
f 47/22/14 11/11/14 46/10/14
f 21/21/15 24/24/15 23/23/15
f 19/19/16 14/14/16 13/13/16
f 48/16/17 23/23/17 47/22/17
f 15/15/18 18/18/18 17/17/18
f 13/13/19 2/2/19 1/1/19
f 45/28/20 17/17/20 48/16/20
f 19/19/21 1/1/21 7/7/21
f 17/17/22 2/29/22 15/15/22
f 11/11/23 20/20/23 9/27/23
f 23/23/24 14/14/24 21/21/24
f 8/30/25 25/25/25 3/31/25
f 6/32/25 25/25/25 27/6/25
f 6/32/25 28/12/25 12/33/25
f 12/33/25 26/34/25 8/30/25
f 38/35/9 29/31/9 37/36/9
f 37/36/10 33/32/10 39/37/10
f 39/37/11 35/33/11 40/38/11
f 40/38/12 32/30/12 38/35/12
f 3/31/21 32/30/21 8/30/21
f 36/39/21 43/40/21 34/40/21
f 6/32/22 29/31/22 3/31/22
f 8/30/23 35/33/23 12/33/23
f 12/33/26 33/32/26 6/32/26
f 31/41/25 37/36/25 30/42/25
f 30/42/25 39/37/25 34/40/25
f 34/40/25 40/38/25 36/39/25
f 36/39/25 38/35/25 31/41/25
f 43/40/25 42/41/25 41/42/25
f 30/42/26 42/41/26 31/41/26
f 31/41/22 44/39/22 36/39/22
f 34/40/23 41/42/23 30/42/23
f 10/43/26 45/44/26 5/45/26
f 22/46/26 46/47/26 10/43/26
f 16/48/26 47/22/26 22/46/26
f 5/45/26 48/16/26 16/48/26
f 58/49/11 49/45/11 57/50/11
f 59/51/14 52/43/14 58/49/14
f 60/52/17 54/46/17 59/51/17
f 57/50/20 56/48/20 60/52/20
f 5/45/25 52/43/25 10/43/25
f 16/48/22 49/45/22 5/45/22
f 10/43/23 54/46/23 22/46/23
f 22/46/24 56/48/24 16/48/24
f 51/53/26 57/50/26 50/54/26
f 53/55/26 58/49/26 51/53/26
f 55/56/26 59/51/26 53/55/26
f 50/54/26 60/52/26 55/56/26
f 63/57/11 61/54/11 62/58/11
f 65/59/14 64/53/14 63/57/14
f 67/60/17 66/55/17 65/59/17
f 62/58/20 68/56/20 67/60/20
f 50/54/25 64/53/25 51/53/25
f 63/57/26 67/60/26 65/59/26
f 55/56/22 61/54/22 50/54/22
f 51/53/23 66/55/23 53/55/23
f 53/55/24 68/56/24 55/56/24
f 1/1/9 25/3/9 26/8/9
f 4/4/10 27/6/10 25/25/10
f 46/10/11 28/12/11 27/6/11
f 9/27/12 26/34/12 28/12/12
f 7/7/13 9/9/13 20/20/13
f 47/22/14 24/24/14 11/11/14
f 21/21/15 20/20/15 24/24/15
f 19/19/16 21/21/16 14/14/16
f 48/16/17 18/18/17 23/23/17
f 15/15/18 14/14/18 18/18/18
f 13/13/19 15/15/19 2/2/19
f 45/28/20 4/61/20 17/17/20
f 19/19/21 13/13/21 1/1/21
f 17/17/22 4/61/22 2/29/22
f 11/11/23 24/24/23 20/20/23
f 23/23/24 18/18/24 14/14/24
f 8/30/25 26/34/25 25/25/25
f 6/32/25 3/31/25 25/25/25
f 6/32/25 27/6/25 28/12/25
f 12/33/25 28/12/25 26/34/25
f 38/35/9 32/30/9 29/31/9
f 37/36/10 29/31/10 33/32/10
f 39/37/11 33/32/11 35/33/11
f 40/38/12 35/33/12 32/30/12
f 3/31/21 29/31/21 32/30/21
f 36/39/21 44/39/21 43/40/21
f 6/32/22 33/32/22 29/31/22
f 8/30/23 32/30/23 35/33/23
f 12/33/26 35/33/26 33/32/26
f 31/41/25 38/35/25 37/36/25
f 30/42/25 37/36/25 39/37/25
f 34/40/25 39/37/25 40/38/25
f 36/39/25 40/38/25 38/35/25
f 43/40/25 44/39/25 42/41/25
f 30/42/26 41/42/26 42/41/26
f 31/41/22 42/41/22 44/39/22
f 34/40/23 43/40/23 41/42/23
f 10/43/26 46/47/26 45/44/26
f 22/46/26 47/22/26 46/47/26
f 16/48/26 48/16/26 47/22/26
f 5/45/26 45/44/26 48/16/26
f 58/49/11 52/43/11 49/45/11
f 59/51/14 54/46/14 52/43/14
f 60/52/17 56/48/17 54/46/17
f 57/50/20 49/45/20 56/48/20
f 5/45/25 49/45/25 52/43/25
f 16/48/22 56/48/22 49/45/22
f 10/43/23 52/43/23 54/46/23
f 22/46/24 54/46/24 56/48/24
f 51/53/26 58/49/26 57/50/26
f 53/55/26 59/51/26 58/49/26
f 55/56/26 60/52/26 59/51/26
f 50/54/26 57/50/26 60/52/26
f 63/57/11 64/53/11 61/54/11
f 65/59/14 66/55/14 64/53/14
f 67/60/17 68/56/17 66/55/17
f 62/58/20 61/54/20 68/56/20
f 50/54/25 61/54/25 64/53/25
f 63/57/26 62/58/26 67/60/26
f 55/56/22 68/56/22 61/54/22
f 51/53/23 64/53/23 66/55/23
f 53/55/24 66/55/24 68/56/24
