# Blender 5.0.1
# www.blender.org
mtllib no.mtl
o テキスト
v 0.925349 0.350852 0.150000
v 0.925349 -0.315815 0.150000
v 0.842015 -0.315815 0.150000
v 0.842015 -0.399148 0.150000
v 0.175349 -0.399148 0.150000
v 0.175349 -0.315815 0.150000
v 0.092015 -0.315815 0.150000
v 0.092015 0.350852 0.150000
v 0.175349 0.350852 0.150000
v 0.175349 0.434185 0.150000
v 0.842015 0.434185 0.150000
v 0.842015 0.350852 0.150000
v 0.425349 -0.232481 0.150000
v 0.592015 -0.232481 0.150000
v 0.592015 0.267519 0.150000
v 0.425349 0.267519 0.150000
v -0.074651 0.350852 0.150000
v -0.074651 -0.399148 0.150000
v -0.407985 -0.399148 0.150000
v -0.407985 0.267519 0.150000
v -0.574651 0.267519 0.150000
v -0.574651 -0.399148 0.150000
v -0.907985 -0.399148 0.150000
v -0.907985 0.434185 0.150000
v -0.157985 0.434185 0.150000
v -0.157985 0.350852 0.150000
v 0.925349 0.350852 -0.150000
v 0.925349 -0.315815 -0.150000
v 0.842015 -0.315815 -0.150000
v 0.842015 -0.399148 -0.150000
v 0.175349 -0.399148 -0.150000
v 0.175349 -0.315815 -0.150000
v 0.092015 -0.315815 -0.150000
v 0.092015 0.350852 -0.150000
v 0.175349 0.350852 -0.150000
v 0.175349 0.434185 -0.150000
v 0.842015 0.434185 -0.150000
v 0.842015 0.350852 -0.150000
v 0.425349 -0.232481 -0.150000
v 0.592015 -0.232481 -0.150000
v 0.592015 0.267519 -0.150000
v 0.425349 0.267519 -0.150000
v -0.074651 0.350852 -0.150000
v -0.074651 -0.399148 -0.150000
v -0.407985 -0.399148 -0.150000
v -0.407985 0.267519 -0.150000
v -0.574651 0.267519 -0.150000
v -0.574651 -0.399148 -0.150000
v -0.907985 -0.399148 -0.150000
v -0.907985 0.434185 -0.150000
v -0.157985 0.434185 -0.150000
v -0.157985 0.350852 -0.150000
v -0.074651 0.350852 -0.150000
v -0.074651 0.350852 0.150000
v -0.074651 -0.399148 -0.150000
v -0.074651 -0.399148 0.150000
v -0.407985 -0.399148 -0.150000
v -0.407985 -0.399148 0.150000
v -0.407985 0.267519 -0.150000
v -0.407985 0.267519 0.150000
v -0.574651 0.267519 -0.150000
v -0.574651 0.267519 0.150000
v -0.574651 -0.399148 -0.150000
v -0.574651 -0.399148 0.150000
v -0.907985 -0.399148 -0.150000
v -0.907985 -0.399148 0.150000
v -0.907985 0.434185 -0.150000
v -0.907985 0.434185 0.150000
v -0.157985 0.434185 -0.150000
v -0.157985 0.434185 0.150000
v -0.157985 0.350852 -0.150000
v -0.157985 0.350852 0.150000
v 0.925349 0.350852 -0.150000
v 0.925349 0.350852 0.150000
v 0.925349 -0.315815 -0.150000
v 0.925349 -0.315815 0.150000
v 0.842015 -0.315815 -0.150000
v 0.842015 -0.315815 0.150000
v 0.842015 -0.399148 -0.150000
v 0.842015 -0.399148 0.150000
v 0.175349 -0.399148 -0.150000
v 0.175349 -0.399148 0.150000
v 0.175349 -0.315815 -0.150000
v 0.175349 -0.315815 0.150000
v 0.092015 -0.315815 -0.150000
v 0.092015 -0.315815 0.150000
v 0.092015 0.350852 -0.150000
v 0.092015 0.350852 0.150000
v 0.175349 0.350852 -0.150000
v 0.175349 0.350852 0.150000
v 0.175349 0.434185 -0.150000
v 0.175349 0.434185 0.150000
v 0.842015 0.434185 -0.150000
v 0.842015 0.434185 0.150000
v 0.842015 0.350852 -0.150000
v 0.842015 0.350852 0.150000
v 0.425349 -0.232481 -0.150000
v 0.425349 -0.232481 0.150000
v 0.592015 -0.232481 -0.150000
v 0.592015 -0.232481 0.150000
v 0.592015 0.267519 -0.150000
v 0.592015 0.267519 0.150000
v 0.425349 0.267519 -0.150000
v 0.425349 0.267519 0.150000
vn -0.0000 -0.0000 1.0000
vn -0.0000 -0.0000 -1.0000
vn 0.7071 -0.7071 -0.0000
vn 0.7071 0.7071 -0.0000
vn -0.7071 -0.7071 -0.0000
vn -0.7071 0.7071 -0.0000
vt 0.533333 0.000000
vt 0.666667 0.000000
vt 0.600000 0.000000
vt 0.733333 0.000000
vt 0.400000 0.000000
vt 0.466667 0.000000
vt 1.000000 0.000000
vt 0.000000 0.000000
vt 0.933333 0.000000
vt 0.066667 0.000000
vt 0.800000 0.000000
vt 0.866667 0.000000
vt 0.333333 0.000000
vt 0.266667 0.000000
vt 0.133333 0.000000
vt 0.200000 0.000000
vt 0.444444 0.000000
vt 0.777778 0.000000
vt 0.888889 0.000000
vt 0.111111 0.000000
vt 0.555556 0.000000
vt 0.222222 0.000000
vt 0.100000 1.000000
vt 0.000000 1.000000
vt 0.200000 1.000000
vt 0.100000 0.000000
vt 0.300000 1.000000
vt 0.400000 1.000000
vt 0.300000 0.000000
vt 0.500000 1.000000
vt 0.600000 1.000000
vt 0.500000 0.000000
vt 0.700000 1.000000
vt 0.800000 1.000000
vt 0.700000 0.000000
vt 0.900000 1.000000
vt 1.000000 1.000000
vt 0.900000 0.000000
vt 0.083333 1.000000
vt 0.166667 1.000000
vt 0.083333 0.000000
vt 0.250000 1.000000
vt 0.166667 0.000000
vt 0.333333 1.000000
vt 0.250000 0.000000
vt 0.416667 1.000000
vt 0.416667 0.000000
vt 0.583333 1.000000
vt 0.666667 1.000000
vt 0.583333 0.000000
vt 0.750000 1.000000
vt 0.833333 1.000000
vt 0.750000 0.000000
vt 0.916667 1.000000
vt 0.833333 0.000000
vt 0.916667 0.000000
s 0
f 9/1/1 11/2/1 10/3/1
f 9/1/1 12/4/1 11/2/1
f 7/5/1 9/1/1 8/6/1
f 7/5/1 16/7/1 9/1/1
f 16/7/1 12/4/1 9/1/1
f 16/7/1 1/8/1 12/4/1
f 16/7/1 15/9/1 1/8/1
f 15/9/1 2/10/1 1/8/1
f 7/5/1 13/11/1 16/7/1
f 14/12/1 2/10/1 15/9/1
f 7/5/1 14/12/1 13/11/1
f 7/5/1 2/10/1 14/12/1
f 6/13/1 2/10/1 7/5/1
f 5/14/1 3/15/1 6/13/1
f 3/15/1 2/10/1 6/13/1
f 5/14/1 4/16/1 3/15/1
f 23/2/1 21/17/1 24/18/1
f 21/17/1 25/19/1 24/18/1
f 21/17/1 26/7/1 25/19/1
f 21/17/1 17/8/1 26/7/1
f 21/17/1 20/13/1 17/8/1
f 20/13/1 18/20/1 17/8/1
f 23/2/1 22/21/1 21/17/1
f 19/22/1 18/20/1 20/13/1
f 35/1/2 36/3/2 37/2/2
f 35/1/2 37/2/2 38/4/2
f 33/5/2 34/6/2 35/1/2
f 33/5/2 35/1/2 42/7/2
f 42/7/2 35/1/2 38/4/2
f 42/7/2 38/4/2 27/8/2
f 42/7/2 27/8/2 41/9/2
f 41/9/2 27/8/2 28/10/2
f 33/5/2 42/7/2 39/11/2
f 40/12/2 41/9/2 28/10/2
f 33/5/2 39/11/2 40/12/2
f 33/5/2 40/12/2 28/10/2
f 32/13/1 33/5/1 28/10/1
f 31/14/2 32/13/2 29/15/2
f 29/15/1 32/13/1 28/10/1
f 31/14/2 29/15/2 30/16/2
f 49/2/2 50/18/2 47/17/2
f 47/17/2 50/18/2 51/19/2
f 47/17/2 51/19/2 52/7/2
f 47/17/2 52/7/2 43/8/2
f 47/17/2 43/8/2 46/13/2
f 46/13/2 43/8/2 44/20/2
f 49/2/2 47/17/2 48/21/2
f 45/22/2 46/13/2 44/20/2
s 1
f 56/23/3 53/8/4 54/24/4
f 58/25/5 55/26/3 56/23/3
f 60/27/5 57/16/5 58/25/5
f 62/28/3 59/29/5 60/27/5
f 64/30/3 61/5/3 62/28/3
f 66/31/5 63/32/3 64/30/3
f 68/33/6 65/3/5 66/31/5
f 70/34/4 67/35/6 68/33/6
f 72/36/4 69/11/4 70/34/4
f 54/37/4 71/38/4 72/36/4
f 76/39/3 73/8/4 74/24/4
f 78/40/3 75/41/3 76/39/3
f 80/42/3 77/43/3 78/40/3
f 82/44/5 79/45/3 80/42/3
f 84/46/5 81/13/5 82/44/5
f 86/30/5 83/47/5 84/46/5
f 88/48/6 85/32/5 86/30/5
f 90/49/6 87/50/6 88/48/6
f 92/51/6 89/2/6 90/49/6
f 94/52/4 91/53/6 92/51/6
f 96/54/4 93/55/4 94/52/4
f 74/37/4 95/56/4 96/54/4
f 100/42/6 97/8/4 98/24/4
f 102/30/5 99/45/6 100/42/6
f 104/51/3 101/32/5 102/30/5
f 98/37/4 103/53/3 104/51/3
f 56/23/3 55/26/3 53/8/4
f 58/25/5 57/16/5 55/26/3
f 60/27/5 59/29/5 57/16/5
f 62/28/3 61/5/3 59/29/5
f 64/30/3 63/32/3 61/5/3
f 66/31/5 65/3/5 63/32/3
f 68/33/6 67/35/6 65/3/5
f 70/34/4 69/11/4 67/35/6
f 72/36/4 71/38/4 69/11/4
f 54/37/4 53/7/4 71/38/4
f 76/39/3 75/41/3 73/8/4
f 78/40/3 77/43/3 75/41/3
f 80/42/3 79/45/3 77/43/3
f 82/44/5 81/13/5 79/45/3
f 84/46/5 83/47/5 81/13/5
f 86/30/5 85/32/5 83/47/5
f 88/48/6 87/50/6 85/32/5
f 90/49/6 89/2/6 87/50/6
f 92/51/6 91/53/6 89/2/6
f 94/52/4 93/55/4 91/53/6
f 96/54/4 95/56/4 93/55/4
f 74/37/4 73/7/4 95/56/4
f 100/42/6 99/45/6 97/8/4
f 102/30/5 101/32/5 99/45/6
f 104/51/3 103/53/3 101/32/5
f 98/37/4 97/7/4 103/53/3
