# Blender 5.0.1
# www.blender.org
mtllib pauseMenu.mtl
o テキスト
v 2.174900 0.419583 0.200000
v 2.174900 -0.330417 0.200000
v 2.091566 -0.330417 0.200000
v 2.091566 -0.413750 0.200000
v 1.424900 -0.413750 0.200000
v 1.424900 -0.330417 0.200000
v 1.341566 -0.330417 0.200000
v 1.341566 0.419583 0.200000
v 1.674900 0.419583 0.200000
v 1.674900 -0.247084 0.200000
v 1.841566 -0.247084 0.200000
v 1.841566 0.419583 0.200000
v 1.174900 0.336250 0.200000
v 1.174900 -0.413750 0.200000
v 0.841566 -0.413750 0.200000
v 0.841566 0.252916 0.200000
v 0.674900 0.252916 0.200000
v 0.674900 -0.413750 0.200000
v 0.341566 -0.413750 0.200000
v 0.341566 0.419583 0.200000
v 1.091566 0.419583 0.200000
v 1.091566 0.336250 0.200000
v 0.174900 -0.247084 0.200000
v 0.174900 -0.413750 0.200000
v -0.575100 -0.413750 0.200000
v -0.575100 -0.330417 0.200000
v -0.658434 -0.330417 0.200000
v -0.658434 0.336250 0.200000
v -0.575100 0.336250 0.200000
v -0.575100 0.419583 0.200000
v 0.174900 0.419583 0.200000
v 0.174900 0.252916 0.200000
v -0.325100 0.252916 0.200000
v -0.325100 0.086250 0.200000
v -0.075100 0.086250 0.200000
v -0.075100 -0.080417 0.200000
v -0.325100 -0.080417 0.200000
v -0.325100 -0.247084 0.200000
v -0.825100 0.336250 0.200000
v -0.825100 -0.413750 0.200000
v -1.158434 -0.413750 0.200000
v -1.158434 0.252916 0.200000
v -1.325100 0.252916 0.200000
v -1.325100 -0.413750 0.200000
v -1.658434 -0.413750 0.200000
v -1.658434 0.252916 0.200000
v -1.825100 0.252916 0.200000
v -1.825100 -0.413750 0.200000
v -2.158434 -0.413750 0.200000
v -2.158434 0.419583 0.200000
v -0.908434 0.419583 0.200000
v -0.908434 0.336250 0.200000
v 2.174900 0.419583 -0.200000
v 2.174900 -0.330417 -0.200000
v 2.091566 -0.330417 -0.200000
v 2.091566 -0.413750 -0.200000
v 1.424900 -0.413750 -0.200000
v 1.424900 -0.330417 -0.200000
v 1.341566 -0.330417 -0.200000
v 1.341566 0.419583 -0.200000
v 1.674900 0.419583 -0.200000
v 1.674900 -0.247084 -0.200000
v 1.841566 -0.247084 -0.200000
v 1.841566 0.419583 -0.200000
v 1.174900 0.336250 -0.200000
v 1.174900 -0.413750 -0.200000
v 0.841566 -0.413750 -0.200000
v 0.841566 0.252916 -0.200000
v 0.674900 0.252916 -0.200000
v 0.674900 -0.413750 -0.200000
v 0.341566 -0.413750 -0.200000
v 0.341566 0.419583 -0.200000
v 1.091566 0.419583 -0.200000
v 1.091566 0.336250 -0.200000
v 0.174900 -0.247084 -0.200000
v 0.174900 -0.413750 -0.200000
v -0.575100 -0.413750 -0.200000
v -0.575100 -0.330417 -0.200000
v -0.658434 -0.330417 -0.200000
v -0.658434 0.336250 -0.200000
v -0.575100 0.336250 -0.200000
v -0.575100 0.419583 -0.200000
v 0.174900 0.419583 -0.200000
v 0.174900 0.252916 -0.200000
v -0.325100 0.252916 -0.200000
v -0.325100 0.086250 -0.200000
v -0.075100 0.086250 -0.200000
v -0.075100 -0.080417 -0.200000
v -0.325100 -0.080417 -0.200000
v -0.325100 -0.247084 -0.200000
v -0.825100 0.336250 -0.200000
v -0.825100 -0.413750 -0.200000
v -1.158434 -0.413750 -0.200000
v -1.158434 0.252916 -0.200000
v -1.325100 0.252916 -0.200000
v -1.325100 -0.413750 -0.200000
v -1.658434 -0.413750 -0.200000
v -1.658434 0.252916 -0.200000
v -1.825100 0.252916 -0.200000
v -1.825100 -0.413750 -0.200000
v -2.158434 -0.413750 -0.200000
v -2.158434 0.419583 -0.200000
v -0.908434 0.419583 -0.200000
v -0.908434 0.336250 -0.200000
v -0.825100 0.336250 -0.200000
v -0.825100 0.336250 0.200000
v -0.825100 -0.413750 -0.200000
v -0.825100 -0.413750 0.200000
v -1.158434 -0.413750 -0.200000
v -1.158434 -0.413750 0.200000
v -1.158434 0.252916 -0.200000
v -1.158434 0.252916 0.200000
v -1.325100 0.252916 -0.200000
v -1.325100 0.252916 0.200000
v -1.325100 -0.413750 -0.200000
v -1.325100 -0.413750 0.200000
v -1.658434 -0.413750 -0.200000
v -1.658434 -0.413750 0.200000
v -1.658434 0.252916 -0.200000
v -1.658434 0.252916 0.200000
v -1.825100 0.252916 -0.200000
v -1.825100 0.252916 0.200000
v -1.825100 -0.413750 -0.200000
v -1.825100 -0.413750 0.200000
v -2.158434 -0.413750 -0.200000
v -2.158434 -0.413750 0.200000
v -2.158434 0.419583 -0.200000
v -2.158434 0.419583 0.200000
v -0.908434 0.419583 -0.200000
v -0.908434 0.419583 0.200000
v -0.908434 0.336250 -0.200000
v -0.908434 0.336250 0.200000
v 0.174900 -0.247084 -0.200000
v 0.174900 -0.247084 0.200000
v 0.174900 -0.413750 -0.200000
v 0.174900 -0.413750 0.200000
v -0.575100 -0.413750 -0.200000
v -0.575100 -0.413750 0.200000
v -0.575100 -0.330417 -0.200000
v -0.575100 -0.330417 0.200000
v -0.658434 -0.330417 -0.200000
v -0.658434 -0.330417 0.200000
v -0.658434 0.336250 -0.200000
v -0.658434 0.336250 0.200000
v -0.575100 0.336250 -0.200000
v -0.575100 0.336250 0.200000
v -0.575100 0.419583 -0.200000
v -0.575100 0.419583 0.200000
v 0.174900 0.419583 -0.200000
v 0.174900 0.419583 0.200000
v 0.174900 0.252916 -0.200000
v 0.174900 0.252916 0.200000
v -0.325100 0.252916 -0.200000
v -0.325100 0.252916 0.200000
v -0.325100 0.086250 -0.200000
v -0.325100 0.086250 0.200000
v -0.075100 0.086250 -0.200000
v -0.075100 0.086250 0.200000
v -0.075100 -0.080417 -0.200000
v -0.075100 -0.080417 0.200000
v -0.325100 -0.080417 -0.200000
v -0.325100 -0.080417 0.200000
v -0.325100 -0.247084 -0.200000
v -0.325100 -0.247084 0.200000
v 1.174900 0.336250 -0.200000
v 1.174900 0.336250 0.200000
v 1.174900 -0.413750 -0.200000
v 1.174900 -0.413750 0.200000
v 0.841566 -0.413750 -0.200000
v 0.841566 -0.413750 0.200000
v 0.841566 0.252916 -0.200000
v 0.841566 0.252916 0.200000
v 0.674900 0.252916 -0.200000
v 0.674900 0.252916 0.200000
v 0.674900 -0.413750 -0.200000
v 0.674900 -0.413750 0.200000
v 0.341566 -0.413750 -0.200000
v 0.341566 -0.413750 0.200000
v 0.341566 0.419583 -0.200000
v 0.341566 0.419583 0.200000
v 1.091566 0.419583 -0.200000
v 1.091566 0.419583 0.200000
v 1.091566 0.336250 -0.200000
v 1.091566 0.336250 0.200000
v 2.174900 0.419583 -0.200000
v 2.174900 0.419583 0.200000
v 2.174900 -0.330417 -0.200000
v 2.174900 -0.330417 0.200000
v 2.091566 -0.330417 -0.200000
v 2.091566 -0.330417 0.200000
v 2.091566 -0.413750 -0.200000
v 2.091566 -0.413750 0.200000
v 1.424900 -0.413750 -0.200000
v 1.424900 -0.413750 0.200000
v 1.424900 -0.330417 -0.200000
v 1.424900 -0.330417 0.200000
v 1.341566 -0.330417 -0.200000
v 1.341566 -0.330417 0.200000
v 1.341566 0.419583 -0.200000
v 1.341566 0.419583 0.200000
v 1.674900 0.419583 -0.200000
v 1.674900 0.419583 0.200000
v 1.674900 -0.247084 -0.200000
v 1.674900 -0.247084 0.200000
v 1.841566 -0.247084 -0.200000
v 1.841566 -0.247084 0.200000
v 1.841566 0.419583 -0.200000
v 1.841566 0.419583 0.200000
vn -0.0000 -0.0000 1.0000
vn -0.0000 -0.0000 -1.0000
vn 0.7071 -0.7071 -0.0000
vn 0.7071 0.7071 -0.0000
vn -0.7071 -0.7071 -0.0000
vn -0.7071 0.7071 -0.0000
vt 0.545455 0.000000
vt 0.727273 0.000000
vt 0.636364 0.000000
vt 0.818182 0.000000
vt 0.909091 0.000000
vt 0.000000 0.000000
vt 1.000000 0.000000
vt 0.090909 0.000000
vt 0.454545 0.000000
vt 0.363636 0.000000
vt 0.181818 0.000000
vt 0.272727 0.000000
vt 0.666667 0.000000
vt 0.444444 0.000000
vt 0.777778 0.000000
vt 0.888889 0.000000
vt 0.333333 0.000000
vt 0.111111 0.000000
vt 0.555556 0.000000
vt 0.222222 0.000000
vt 0.400000 0.000000
vt 0.533333 0.000000
vt 0.466667 0.000000
vt 0.600000 0.000000
vt 0.266667 0.000000
vt 0.733333 0.000000
vt 0.933333 0.000000
vt 0.800000 0.000000
vt 0.866667 0.000000
vt 0.200000 0.000000
vt 0.066667 0.000000
vt 0.133333 0.000000
vt 0.769231 0.000000
vt 0.615385 0.000000
vt 0.846154 0.000000
vt 0.923077 0.000000
vt 0.538462 0.000000
vt 0.307692 0.000000
vt 0.230769 0.000000
vt 0.076923 0.000000
vt 0.692308 0.000000
vt 0.461538 0.000000
vt 0.384615 0.000000
vt 0.153846 0.000000
vt 0.071429 1.000000
vt 0.000000 1.000000
vt 0.142857 1.000000
vt 0.071429 0.000000
vt 0.214286 1.000000
vt 0.142857 0.000000
vt 0.285714 1.000000
vt 0.214286 0.000000
vt 0.357143 1.000000
vt 0.285714 0.000000
vt 0.428571 1.000000
vt 0.357143 0.000000
vt 0.500000 1.000000
vt 0.428571 0.000000
vt 0.571429 1.000000
vt 0.500000 0.000000
vt 0.642857 1.000000
vt 0.571429 0.000000
vt 0.714286 1.000000
vt 0.642857 0.000000
vt 0.785714 1.000000
vt 0.714286 0.000000
vt 0.857143 1.000000
vt 0.785714 0.000000
vt 0.928571 1.000000
vt 0.857143 0.000000
vt 1.000000 1.000000
vt 0.928571 0.000000
vt 0.062500 1.000000
vt 0.125000 1.000000
vt 0.062500 0.000000
vt 0.187500 1.000000
vt 0.125000 0.000000
vt 0.250000 1.000000
vt 0.187500 0.000000
vt 0.312500 1.000000
vt 0.250000 0.000000
vt 0.375000 1.000000
vt 0.312500 0.000000
vt 0.437500 1.000000
vt 0.375000 0.000000
vt 0.437500 0.000000
vt 0.562500 1.000000
vt 0.625000 1.000000
vt 0.562500 0.000000
vt 0.687500 1.000000
vt 0.625000 0.000000
vt 0.750000 1.000000
vt 0.687500 0.000000
vt 0.812500 1.000000
vt 0.750000 0.000000
vt 0.875000 1.000000
vt 0.812500 0.000000
vt 0.937500 1.000000
vt 0.875000 0.000000
vt 0.937500 0.000000
vt 0.100000 1.000000
vt 0.200000 1.000000
vt 0.100000 0.000000
vt 0.300000 1.000000
vt 0.400000 1.000000
vt 0.300000 0.000000
vt 0.600000 1.000000
vt 0.700000 1.000000
vt 0.800000 1.000000
vt 0.700000 0.000000
vt 0.900000 1.000000
vt 0.900000 0.000000
vt 0.083333 1.000000
vt 0.166667 1.000000
vt 0.083333 0.000000
vt 0.166667 0.000000
vt 0.333333 1.000000
vt 0.416667 1.000000
vt 0.416667 0.000000
vt 0.583333 1.000000
vt 0.666667 1.000000
vt 0.583333 0.000000
vt 0.833333 1.000000
vt 0.916667 1.000000
vt 0.833333 0.000000
vt 0.916667 0.000000
s 0
usemtl マテリアル
f 7/1/1 9/2/1 8/3/1
f 7/1/1 10/4/1 9/2/1
f 11/5/1 1/6/1 12/7/1
f 11/5/1 2/8/1 1/6/1
f 7/1/1 11/5/1 10/4/1
f 7/1/1 2/8/1 11/5/1
f 6/9/1 2/8/1 7/1/1
f 5/10/1 3/11/1 6/9/1
f 3/11/1 2/8/1 6/9/1
f 5/10/1 4/12/1 3/11/1
f 19/13/1 17/14/1 20/15/1
f 17/14/1 21/16/1 20/15/1
f 17/14/1 22/7/1 21/16/1
f 17/14/1 13/6/1 22/7/1
f 17/14/1 16/17/1 13/6/1
f 16/17/1 14/18/1 13/6/1
f 19/13/1 18/19/1 17/14/1
f 15/20/1 14/18/1 16/17/1
f 29/21/1 31/22/1 30/23/1
f 29/21/1 32/24/1 31/22/1
f 27/25/1 29/21/1 28/17/1
f 27/25/1 33/13/1 29/21/1
f 33/13/1 32/24/1 29/21/1
f 27/25/1 34/26/1 33/13/1
f 27/25/1 37/27/1 34/26/1
f 37/27/1 35/28/1 34/26/1
f 37/27/1 36/29/1 35/28/1
f 27/25/1 38/7/1 37/27/1
f 27/25/1 23/6/1 38/7/1
f 27/25/1 26/30/1 23/6/1
f 26/30/1 24/31/1 23/6/1
f 25/32/1 24/31/1 26/30/1
f 49/33/1 47/34/1 50/35/1
f 47/34/1 51/36/1 50/35/1
f 47/34/1 52/7/1 51/36/1
f 47/34/1 39/6/1 52/7/1
f 47/34/1 46/37/1 39/6/1
f 46/37/1 43/38/1 39/6/1
f 43/38/1 42/39/1 39/6/1
f 42/39/1 40/40/1 39/6/1
f 49/33/1 48/41/1 47/34/1
f 45/42/1 43/38/1 46/37/1
f 45/42/1 44/43/1 43/38/1
f 41/44/1 40/40/1 42/39/1
f 59/1/2 60/3/2 61/2/2
f 59/1/2 61/2/2 62/4/2
f 63/5/2 64/7/2 53/6/2
f 63/5/2 53/6/2 54/8/2
f 59/1/2 62/4/2 63/5/2
f 59/1/2 63/5/2 54/8/2
f 58/9/1 59/1/1 54/8/1
f 57/10/2 58/9/2 55/11/2
f 55/11/1 58/9/1 54/8/1
f 57/10/2 55/11/2 56/12/2
f 71/13/2 72/15/2 69/14/2
f 69/14/2 72/15/2 73/16/2
f 69/14/2 73/16/2 74/7/2
f 69/14/2 74/7/2 65/6/2
f 69/14/2 65/6/2 68/17/2
f 68/17/2 65/6/2 66/18/2
f 71/13/2 69/14/2 70/19/2
f 67/20/2 68/17/2 66/18/2
f 81/21/2 82/23/2 83/22/2
f 81/21/2 83/22/2 84/24/2
f 79/25/2 80/17/2 81/21/2
f 79/25/2 81/21/2 85/13/2
f 85/13/2 81/21/2 84/24/2
f 79/25/2 85/13/2 86/26/2
f 79/25/2 86/26/2 89/27/2
f 89/27/2 86/26/2 87/28/2
f 89/27/2 87/28/2 88/29/2
f 79/25/2 89/27/2 90/7/2
f 79/25/2 90/7/2 75/6/2
f 79/25/2 75/6/2 78/30/2
f 78/30/2 75/6/2 76/31/2
f 77/32/2 78/30/2 76/31/2
f 101/33/2 102/35/2 99/34/2
f 99/34/2 102/35/2 103/36/2
f 99/34/2 103/36/2 104/7/2
f 99/34/2 104/7/2 91/6/2
f 99/34/2 91/6/2 98/37/2
f 98/37/2 91/6/2 95/38/2
f 95/38/2 91/6/2 94/39/2
f 94/39/2 91/6/2 92/40/2
f 101/33/2 99/34/2 100/41/2
f 97/42/2 98/37/2 95/38/2
f 97/42/2 95/38/2 96/43/2
f 93/44/2 94/39/2 92/40/2
s 1
f 108/45/3 105/6/4 106/46/4
f 110/47/5 107/48/3 108/45/3
f 112/49/5 109/50/5 110/47/5
f 114/51/3 111/52/5 112/49/5
f 116/53/3 113/54/3 114/51/3
f 118/55/5 115/56/3 116/53/3
f 120/57/5 117/58/5 118/55/5
f 122/59/3 119/60/5 120/57/5
f 124/61/3 121/62/3 122/59/3
f 126/63/5 123/64/3 124/61/3
f 128/65/6 125/66/5 126/63/5
f 130/67/4 127/68/6 128/65/6
f 132/69/4 129/70/4 130/67/4
f 106/71/4 131/72/4 132/69/4
f 136/73/3 133/6/4 134/46/4
f 138/74/5 135/75/3 136/73/3
f 140/76/5 137/77/5 138/74/5
f 142/78/5 139/79/5 140/76/5
f 144/80/6 141/81/5 142/78/5
f 146/82/6 143/83/6 144/80/6
f 148/84/6 145/85/6 146/82/6
f 150/57/4 147/86/6 148/84/6
f 152/87/3 149/60/4 150/57/4
f 154/88/3 151/89/3 152/87/3
f 156/90/4 153/91/3 154/88/3
f 158/92/4 155/93/4 156/90/4
f 160/94/3 157/95/4 158/92/4
f 162/96/3 159/97/3 160/94/3
f 164/98/4 161/99/3 162/96/3
f 134/71/4 163/100/4 164/98/4
f 168/101/3 165/6/4 166/46/4
f 170/102/5 167/103/3 168/101/3
f 172/104/5 169/30/5 170/102/5
f 174/105/3 171/106/5 172/104/5
f 176/57/3 173/21/3 174/105/3
f 178/107/5 175/60/3 176/57/3
f 180/108/6 177/24/5 178/107/5
f 182/109/4 179/110/6 180/108/6
f 184/111/4 181/28/4 182/109/4
f 166/71/4 183/112/4 184/111/4
f 188/113/3 185/6/4 186/46/4
f 190/114/3 187/115/3 188/113/3
f 192/78/3 189/116/3 190/114/3
f 194/117/5 191/81/3 192/78/3
f 196/118/5 193/17/5 194/117/5
f 198/57/5 195/119/5 196/118/5
f 200/120/6 197/60/5 198/57/5
f 202/121/4 199/122/6 200/120/6
f 204/92/4 201/13/4 202/121/4
f 206/123/6 203/95/4 204/92/4
f 208/124/6 205/125/6 206/123/6
f 186/71/4 207/126/6 208/124/6
f 108/45/3 107/48/3 105/6/4
f 110/47/5 109/50/5 107/48/3
f 112/49/5 111/52/5 109/50/5
f 114/51/3 113/54/3 111/52/5
f 116/53/3 115/56/3 113/54/3
f 118/55/5 117/58/5 115/56/3
f 120/57/5 119/60/5 117/58/5
f 122/59/3 121/62/3 119/60/5
f 124/61/3 123/64/3 121/62/3
f 126/63/5 125/66/5 123/64/3
f 128/65/6 127/68/6 125/66/5
f 130/67/4 129/70/4 127/68/6
f 132/69/4 131/72/4 129/70/4
f 106/71/4 105/7/4 131/72/4
f 136/73/3 135/75/3 133/6/4
f 138/74/5 137/77/5 135/75/3
f 140/76/5 139/79/5 137/77/5
f 142/78/5 141/81/5 139/79/5
f 144/80/6 143/83/6 141/81/5
f 146/82/6 145/85/6 143/83/6
f 148/84/6 147/86/6 145/85/6
f 150/57/4 149/60/4 147/86/6
f 152/87/3 151/89/3 149/60/4
f 154/88/3 153/91/3 151/89/3
f 156/90/4 155/93/4 153/91/3
f 158/92/4 157/95/4 155/93/4
f 160/94/3 159/97/3 157/95/4
f 162/96/3 161/99/3 159/97/3
f 164/98/4 163/100/4 161/99/3
f 134/71/4 133/7/4 163/100/4
f 168/101/3 167/103/3 165/6/4
f 170/102/5 169/30/5 167/103/3
f 172/104/5 171/106/5 169/30/5
f 174/105/3 173/21/3 171/106/5
f 176/57/3 175/60/3 173/21/3
f 178/107/5 177/24/5 175/60/3
f 180/108/6 179/110/6 177/24/5
f 182/109/4 181/28/4 179/110/6
f 184/111/4 183/112/4 181/28/4
f 166/71/4 165/7/4 183/112/4
f 188/113/3 187/115/3 185/6/4
f 190/114/3 189/116/3 187/115/3
f 192/78/3 191/81/3 189/116/3
f 194/117/5 193/17/5 191/81/3
f 196/118/5 195/119/5 193/17/5
f 198/57/5 197/60/5 195/119/5
f 200/120/6 199/122/6 197/60/5
f 202/121/4 201/13/4 199/122/6
f 204/92/4 203/95/4 201/13/4
f 206/123/6 205/125/6 203/95/4
f 208/124/6 207/126/6 205/125/6
f 186/71/4 185/7/4 207/126/6
