# Blender 5.0.1
# www.blender.org
mtllib menuCredit.mtl
o テキスト
v 2.683333 0.437372 0.150000
v 2.683333 0.270706 0.150000
v 2.433333 0.270706 0.150000
v 2.433333 -0.395961 0.150000
v 2.099999 -0.395961 0.150000
v 2.099999 0.270706 0.150000
v 1.849999 0.270706 0.150000
v 1.849999 0.437372 0.150000
v 1.683333 0.437372 0.150000
v 1.683333 -0.395961 0.150000
v 1.350000 -0.395961 0.150000
v 1.350000 0.437372 0.150000
v 1.183333 0.354039 0.150000
v 1.183333 -0.312628 0.150000
v 1.100000 -0.312628 0.150000
v 1.100000 -0.395961 0.150000
v 0.350000 -0.395961 0.150000
v 0.350000 0.437372 0.150000
v 1.100000 0.437372 0.150000
v 1.100000 0.354039 0.150000
v 0.683333 -0.229294 0.150000
v 0.850000 -0.229294 0.150000
v 0.850000 0.270706 0.150000
v 0.683333 0.270706 0.150000
v 0.183333 -0.229294 0.150000
v 0.183333 -0.395961 0.150000
v -0.566667 -0.395961 0.150000
v -0.566667 -0.312628 0.150000
v -0.650000 -0.312628 0.150000
v -0.650000 0.354039 0.150000
v -0.566667 0.354039 0.150000
v -0.566667 0.437372 0.150000
v 0.183333 0.437372 0.150000
v 0.183333 0.270706 0.150000
v -0.316667 0.270706 0.150000
v -0.316667 0.104039 0.150000
v -0.066667 0.104039 0.150000
v -0.066667 -0.062628 0.150000
v -0.316667 -0.062628 0.150000
v -0.316667 -0.229294 0.150000
v -0.816667 -0.062628 0.150000
v -0.816667 -0.395961 0.150000
v -1.150000 -0.395961 0.150000
v -1.150000 -0.062628 0.150000
v -1.316667 -0.062628 0.150000
v -1.316667 -0.395961 0.150000
v -1.650000 -0.395961 0.150000
v -1.650000 0.437372 0.150000
v -0.900000 0.437372 0.150000
v -0.900000 0.354039 0.150000
v -0.816667 0.354039 0.150000
v -0.816667 0.104039 0.150000
v -0.900000 0.104039 0.150000
v -0.900000 -0.062628 0.150000
v -1.316667 0.104039 0.150000
v -1.150000 0.104039 0.150000
v -1.150000 0.270706 0.150000
v -1.316667 0.270706 0.150000
v -1.816667 -0.229294 0.150000
v -1.816667 -0.395961 0.150000
v -2.566667 -0.395961 0.150000
v -2.566667 -0.312628 0.150000
v -2.650000 -0.312628 0.150000
v -2.650000 0.354039 0.150000
v -2.566667 0.354039 0.150000
v -2.566667 0.437372 0.150000
v -1.816667 0.437372 0.150000
v -1.816667 0.270706 0.150000
v -2.316667 0.270706 0.150000
v -2.316667 -0.229294 0.150000
v 2.683333 0.437372 -0.150000
v 2.683333 0.270706 -0.150000
v 2.433333 0.270706 -0.150000
v 2.433333 -0.395961 -0.150000
v 2.099999 -0.395961 -0.150000
v 2.099999 0.270706 -0.150000
v 1.849999 0.270706 -0.150000
v 1.849999 0.437372 -0.150000
v 1.683333 0.437372 -0.150000
v 1.683333 -0.395961 -0.150000
v 1.350000 -0.395961 -0.150000
v 1.350000 0.437372 -0.150000
v 1.183333 0.354039 -0.150000
v 1.183333 -0.312628 -0.150000
v 1.100000 -0.312628 -0.150000
v 1.100000 -0.395961 -0.150000
v 0.350000 -0.395961 -0.150000
v 0.350000 0.437372 -0.150000
v 1.100000 0.437372 -0.150000
v 1.100000 0.354039 -0.150000
v 0.683333 -0.229294 -0.150000
v 0.850000 -0.229294 -0.150000
v 0.850000 0.270706 -0.150000
v 0.683333 0.270706 -0.150000
v 0.183333 -0.229294 -0.150000
v 0.183333 -0.395961 -0.150000
v -0.566667 -0.395961 -0.150000
v -0.566667 -0.312628 -0.150000
v -0.650000 -0.312628 -0.150000
v -0.650000 0.354039 -0.150000
v -0.566667 0.354039 -0.150000
v -0.566667 0.437372 -0.150000
v 0.183333 0.437372 -0.150000
v 0.183333 0.270706 -0.150000
v -0.316667 0.270706 -0.150000
v -0.316667 0.104039 -0.150000
v -0.066667 0.104039 -0.150000
v -0.066667 -0.062628 -0.150000
v -0.316667 -0.062628 -0.150000
v -0.316667 -0.229294 -0.150000
v -0.816667 -0.062628 -0.150000
v -0.816667 -0.395961 -0.150000
v -1.150000 -0.395961 -0.150000
v -1.150000 -0.062628 -0.150000
v -1.316667 -0.062628 -0.150000
v -1.316667 -0.395961 -0.150000
v -1.650000 -0.395961 -0.150000
v -1.650000 0.437372 -0.150000
v -0.900000 0.437372 -0.150000
v -0.900000 0.354039 -0.150000
v -0.816667 0.354039 -0.150000
v -0.816667 0.104039 -0.150000
v -0.900000 0.104039 -0.150000
v -0.900000 -0.062628 -0.150000
v -1.316667 0.104039 -0.150000
v -1.150000 0.104039 -0.150000
v -1.150000 0.270706 -0.150000
v -1.316667 0.270706 -0.150000
v -1.816667 -0.229294 -0.150000
v -1.816667 -0.395961 -0.150000
v -2.566667 -0.395961 -0.150000
v -2.566667 -0.312628 -0.150000
v -2.650000 -0.312628 -0.150000
v -2.650000 0.354039 -0.150000
v -2.566667 0.354039 -0.150000
v -2.566667 0.437372 -0.150000
v -1.816667 0.437372 -0.150000
v -1.816667 0.270706 -0.150000
v -2.316667 0.270706 -0.150000
v -2.316667 -0.229294 -0.150000
v -1.816667 -0.229294 -0.150000
v -1.816667 -0.229294 0.150000
v -1.816667 -0.395961 -0.150000
v -1.816667 -0.395961 0.150000
v -2.566667 -0.395961 -0.150000
v -2.566667 -0.395961 0.150000
v -2.566667 -0.312628 -0.150000
v -2.566667 -0.312628 0.150000
v -2.650000 -0.312628 -0.150000
v -2.650000 -0.312628 0.150000
v -2.650000 0.354039 -0.150000
v -2.650000 0.354039 0.150000
v -2.566667 0.354039 -0.150000
v -2.566667 0.354039 0.150000
v -2.566667 0.437372 -0.150000
v -2.566667 0.437372 0.150000
v -1.816667 0.437372 -0.150000
v -1.816667 0.437372 0.150000
v -1.816667 0.270706 -0.150000
v -1.816667 0.270706 0.150000
v -2.316667 0.270706 -0.150000
v -2.316667 0.270706 0.150000
v -2.316667 -0.229294 -0.150000
v -2.316667 -0.229294 0.150000
v -0.816667 -0.062628 -0.150000
v -0.816667 -0.062628 0.150000
v -0.816667 -0.395961 -0.150000
v -0.816667 -0.395961 0.150000
v -1.150000 -0.395961 -0.150000
v -1.150000 -0.395961 0.150000
v -1.150000 -0.062628 -0.150000
v -1.150000 -0.062628 0.150000
v -1.316667 -0.062628 -0.150000
v -1.316667 -0.062628 0.150000
v -1.316667 -0.395961 -0.150000
v -1.316667 -0.395961 0.150000
v -1.650000 -0.395961 -0.150000
v -1.650000 -0.395961 0.150000
v -1.650000 0.437372 -0.150000
v -1.650000 0.437372 0.150000
v -0.900000 0.437372 -0.150000
v -0.900000 0.437372 0.150000
v -0.900000 0.354039 -0.150000
v -0.900000 0.354039 0.150000
v -0.816667 0.354039 -0.150000
v -0.816667 0.354039 0.150000
v -0.816667 0.104039 -0.150000
v -0.816667 0.104039 0.150000
v -0.900000 0.104039 -0.150000
v -0.900000 0.104039 0.150000
v -0.900000 -0.062628 -0.150000
v -0.900000 -0.062628 0.150000
v -1.316667 0.104039 -0.150000
v -1.316667 0.104039 0.150000
v -1.150000 0.104039 -0.150000
v -1.150000 0.104039 0.150000
v -1.150000 0.270706 -0.150000
v -1.150000 0.270706 0.150000
v -1.316667 0.270706 -0.150000
v -1.316667 0.270706 0.150000
v 0.183333 -0.229294 -0.150000
v 0.183333 -0.229294 0.150000
v 0.183333 -0.395961 -0.150000
v 0.183333 -0.395961 0.150000
v -0.566667 -0.395961 -0.150000
v -0.566667 -0.395961 0.150000
v -0.566667 -0.312628 -0.150000
v -0.566667 -0.312628 0.150000
v -0.650000 -0.312628 -0.150000
v -0.650000 -0.312628 0.150000
v -0.650000 0.354039 -0.150000
v -0.650000 0.354039 0.150000
v -0.566667 0.354039 -0.150000
v -0.566667 0.354039 0.150000
v -0.566667 0.437372 -0.150000
v -0.566667 0.437372 0.150000
v 0.183333 0.437372 -0.150000
v 0.183333 0.437372 0.150000
v 0.183333 0.270706 -0.150000
v 0.183333 0.270706 0.150000
v -0.316667 0.270706 -0.150000
v -0.316667 0.270706 0.150000
v -0.316667 0.104039 -0.150000
v -0.316667 0.104039 0.150000
v -0.066667 0.104039 -0.150000
v -0.066667 0.104039 0.150000
v -0.066667 -0.062628 -0.150000
v -0.066667 -0.062628 0.150000
v -0.316667 -0.062628 -0.150000
v -0.316667 -0.062628 0.150000
v -0.316667 -0.229294 -0.150000
v -0.316667 -0.229294 0.150000
v 1.183333 0.354039 -0.150000
v 1.183333 0.354039 0.150000
v 1.183333 -0.312628 -0.150000
v 1.183333 -0.312628 0.150000
v 1.100000 -0.312628 -0.150000
v 1.100000 -0.312628 0.150000
v 1.100000 -0.395961 -0.150000
v 1.100000 -0.395961 0.150000
v 0.350000 -0.395961 -0.150000
v 0.350000 -0.395961 0.150000
v 0.350000 0.437372 -0.150000
v 0.350000 0.437372 0.150000
v 1.100000 0.437372 -0.150000
v 1.100000 0.437372 0.150000
v 1.100000 0.354039 -0.150000
v 1.100000 0.354039 0.150000
v 0.683333 -0.229294 -0.150000
v 0.683333 -0.229294 0.150000
v 0.850000 -0.229294 -0.150000
v 0.850000 -0.229294 0.150000
v 0.850000 0.270706 -0.150000
v 0.850000 0.270706 0.150000
v 0.683333 0.270706 -0.150000
v 0.683333 0.270706 0.150000
v 1.683333 0.437372 -0.150000
v 1.683333 0.437372 0.150000
v 1.683333 -0.395961 -0.150000
v 1.683333 -0.395961 0.150000
v 1.350000 -0.395961 -0.150000
v 1.350000 -0.395961 0.150000
v 1.350000 0.437372 -0.150000
v 1.350000 0.437372 0.150000
v 2.683333 0.437372 -0.150000
v 2.683333 0.437372 0.150000
v 2.683333 0.270706 -0.150000
v 2.683333 0.270706 0.150000
v 2.433333 0.270706 -0.150000
v 2.433333 0.270706 0.150000
v 2.433333 -0.395961 -0.150000
v 2.433333 -0.395961 0.150000
v 2.099999 -0.395961 -0.150000
v 2.099999 -0.395961 0.150000
v 2.099999 0.270706 -0.150000
v 2.099999 0.270706 0.150000
v 1.849999 0.270706 -0.150000
v 1.849999 0.270706 0.150000
v 1.849999 0.437372 -0.150000
v 1.849999 0.437372 0.150000
vn -0.0000 -0.0000 1.0000
vn -0.0000 1.0000 -0.0000
vn -0.0000 -0.3511 -0.9363
vn -0.0000 -0.3512 -0.9363
vn -0.0000 -0.0000 -1.0000
vn -0.0000 -1.0000 -0.0000
vn -0.0000 0.9995 0.0318
vn -0.0000 -0.8002 -0.5998
vn -0.0000 0.3512 -0.9363
vn 0.7071 -0.7071 -0.0000
vn 0.7071 0.7071 -0.0000
vn -0.7071 -0.7071 -0.0000
vn -0.7071 0.7071 -0.0000
vt 0.857143 0.000000
vt 0.000000 0.000000
vt 1.000000 0.000000
vt 0.142857 0.000000
vt 0.714286 0.000000
vt 0.571429 0.000000
vt 0.285714 0.000000
vt 0.428571 0.000000
vt 0.666667 0.000000
vt 0.333333 0.000000
vt 0.363636 0.000000
vt 0.454545 0.000000
vt 0.545455 0.000000
vt 0.636364 0.000000
vt 0.909091 0.000000
vt 0.090909 0.000000
vt 0.727273 0.000000
vt 0.818182 0.000000
vt 0.181818 0.000000
vt 0.272727 0.000000
vt 0.400000 0.000000
vt 0.533333 0.000000
vt 0.466667 0.000000
vt 0.600000 0.000000
vt 0.266667 0.000000
vt 0.733333 0.000000
vt 0.933333 0.000000
vt 0.800000 0.000000
vt 0.866667 0.000000
vt 0.200000 0.000000
vt 0.066667 0.000000
vt 0.133333 0.000000
vt 0.352941 0.000000
vt 0.411765 0.000000
vt 0.470588 0.000000
vt 0.529412 0.000000
vt 0.588235 0.000000
vt 0.941176 0.000000
vt 0.647059 0.000000
vt 0.823529 0.000000
vt 0.882353 0.000000
vt 0.235294 0.000000
vt 0.705882 0.000000
vt 0.764706 0.000000
vt 0.294118 0.000000
vt 0.176471 0.000000
vt 0.117647 0.000000
vt 0.058824 0.000000
vt 0.083333 1.000000
vt 0.000000 1.000000
vt 0.166667 1.000000
vt 0.083333 0.000000
vt 0.250000 1.000000
vt 0.166667 0.000000
vt 0.333333 1.000000
vt 0.250000 0.000000
vt 0.416667 1.000000
vt 0.500000 1.000000
vt 0.416667 0.000000
vt 0.583333 1.000000
vt 0.500000 0.000000
vt 0.666667 1.000000
vt 0.583333 0.000000
vt 0.750000 1.000000
vt 0.833333 1.000000
vt 0.750000 0.000000
vt 0.916667 1.000000
vt 0.833333 0.000000
vt 1.000000 1.000000
vt 0.916667 0.000000
vt 0.071429 1.000000
vt 0.142857 1.000000
vt 0.071429 0.000000
vt 0.214286 1.000000
vt 0.285714 1.000000
vt 0.214286 0.000000
vt 0.357143 1.000000
vt 0.428571 1.000000
vt 0.357143 0.000000
vt 0.571429 1.000000
vt 0.642857 1.000000
vt 0.714286 1.000000
vt 0.642857 0.000000
vt 0.785714 1.000000
vt 0.857143 1.000000
vt 0.785714 0.000000
vt 0.928571 1.000000
vt 0.928571 0.000000
vt 0.062500 1.000000
vt 0.125000 1.000000
vt 0.062500 0.000000
vt 0.187500 1.000000
vt 0.125000 0.000000
vt 0.187500 0.000000
vt 0.312500 1.000000
vt 0.375000 1.000000
vt 0.312500 0.000000
vt 0.437500 1.000000
vt 0.375000 0.000000
vt 0.437500 0.000000
vt 0.562500 1.000000
vt 0.625000 1.000000
vt 0.562500 0.000000
vt 0.687500 1.000000
vt 0.625000 0.000000
vt 0.687500 0.000000
vt 0.812500 1.000000
vt 0.875000 1.000000
vt 0.812500 0.000000
vt 0.937500 1.000000
vt 0.875000 0.000000
vt 0.937500 0.000000
s 1
usemtl マテリアル.003
f 7/1/1 1/2/1 8/3/1
f 7/1/1 2/4/1 1/2/1
s 0
f 6/5/2 2/4/2 7/1/2
s 1
f 5/6/1 3/7/1 6/5/1
s 0
f 3/7/2 2/4/2 6/5/2
s 1
f 5/6/1 4/8/1 3/7/1
f 11/9/1 9/2/1 12/3/1
f 11/9/1 10/10/1 9/2/1
f 17/11/1 24/3/1 18/12/1
f 24/3/1 19/13/1 18/12/1
f 24/3/1 20/14/1 19/13/1
f 24/3/1 13/2/1 20/14/1
f 24/3/1 23/15/1 13/2/1
f 23/15/1 14/16/1 13/2/1
f 17/11/1 21/17/1 24/3/1
f 22/18/1 14/16/1 23/15/1
f 17/11/1 22/18/1 21/17/1
f 17/11/1 15/19/1 22/18/1
f 15/19/1 14/16/1 22/18/1
f 17/11/1 16/20/1 15/19/1
f 31/21/1 33/22/1 32/23/1
f 31/21/1 34/24/1 33/22/1
f 29/25/1 31/21/1 30/10/1
f 29/25/1 35/9/1 31/21/1
f 35/9/1 34/24/1 31/21/1
f 29/25/1 36/26/1 35/9/1
f 29/25/1 39/27/1 36/26/1
f 39/27/1 37/28/1 36/26/1
f 39/27/1 38/29/1 37/28/1
f 29/25/1 40/3/1 39/27/1
f 29/25/1 25/2/1 40/3/1
f 29/25/1 28/30/1 25/2/1
f 28/30/1 26/31/1 25/2/1
f 27/32/1 26/31/1 28/30/1
f 47/33/1 58/3/1 48/34/1
f 58/3/1 49/35/1 48/34/1
f 58/3/1 50/36/1 49/35/1
f 58/3/1 51/37/1 50/36/1
f 58/3/1 57/38/1 51/37/1
f 57/38/1 52/39/1 51/37/1
f 47/33/1 55/40/1 58/3/1
f 56/41/1 52/39/1 57/38/1
f 47/33/1 56/41/1 55/40/1
f 47/33/3 45/42/4 56/41/4
f 45/42/1 53/43/1 56/41/1
s 0
f 53/43/2 52/39/2 56/41/2
s 1
f 45/42/1 54/44/1 53/43/1
f 47/33/1 46/45/1 45/42/1
s 0
f 44/46/2 54/44/2 45/42/2
s 1
f 43/47/1 54/44/1 44/46/1
f 43/47/1 41/2/1 54/44/1
f 43/47/1 42/48/1 41/2/1
f 65/13/1 67/17/1 66/14/1
f 65/13/1 68/18/1 67/17/1
f 63/11/1 65/13/1 64/12/1
f 63/11/1 69/15/1 65/13/1
f 69/15/1 68/18/1 65/13/1
f 63/11/1 70/3/1 69/15/1
f 63/11/1 59/2/1 70/3/1
f 63/11/1 62/20/1 59/2/1
f 62/20/1 60/16/1 59/2/1
f 61/19/1 60/16/1 62/20/1
f 77/1/5 78/3/5 71/2/5
f 77/1/5 71/2/5 72/4/5
s 0
f 76/5/2 77/1/2 72/4/2
s 1
f 75/6/5 76/5/5 73/7/5
s 0
f 73/7/6 76/5/6 72/4/6
s 1
f 75/6/5 73/7/5 74/8/5
f 81/9/5 82/3/5 79/2/5
f 81/9/5 79/2/5 80/10/5
f 87/11/5 88/12/5 94/3/5
f 94/3/5 88/12/5 89/13/5
f 94/3/5 89/13/5 90/14/5
f 94/3/5 90/14/5 83/2/5
f 94/3/5 83/2/5 93/15/5
f 93/15/5 83/2/5 84/16/5
f 87/11/5 94/3/5 91/17/5
f 92/18/5 93/15/5 84/16/5
f 87/11/5 91/17/5 92/18/5
f 87/11/5 92/18/5 85/19/5
f 85/19/5 92/18/5 84/16/5
f 87/11/5 85/19/5 86/20/5
f 101/21/5 102/23/5 103/22/5
f 101/21/5 103/22/5 104/24/5
f 99/25/5 100/10/5 101/21/5
f 99/25/5 101/21/5 105/9/5
f 105/9/5 101/21/5 104/24/5
f 99/25/5 105/9/5 106/26/5
f 99/25/5 106/26/5 109/27/5
f 109/27/5 106/26/5 107/28/5
f 109/27/5 107/28/5 108/29/5
f 99/25/5 109/27/5 110/3/5
f 99/25/5 110/3/5 95/2/5
f 99/25/5 95/2/5 98/30/5
f 98/30/5 95/2/5 96/31/5
f 97/32/5 98/30/5 96/31/5
f 117/33/5 118/34/5 128/3/5
f 128/3/5 118/34/5 119/35/5
f 128/3/5 119/35/5 120/36/5
f 128/3/5 120/36/5 121/37/5
f 128/3/5 121/37/5 127/38/5
f 127/38/5 121/37/5 122/39/5
f 117/33/5 128/3/5 125/40/5
f 126/41/5 127/38/5 122/39/5
f 117/33/5 125/40/5 126/41/5
f 117/33/7 126/41/8 115/42/9
f 115/42/5 126/41/5 123/43/5
s 0
f 123/43/2 126/41/2 122/39/2
s 1
f 115/42/5 123/43/5 124/44/5
f 117/33/5 115/42/5 116/45/5
s 0
f 114/46/2 115/42/2 124/44/2
s 1
f 113/47/5 114/46/5 124/44/5
f 113/47/5 124/44/5 111/2/5
f 113/47/5 111/2/5 112/48/5
f 135/13/5 136/14/5 137/17/5
f 135/13/5 137/17/5 138/18/5
f 133/11/5 134/12/5 135/13/5
f 133/11/5 135/13/5 139/15/5
f 139/15/5 135/13/5 138/18/5
f 133/11/5 139/15/5 140/3/5
f 133/11/5 140/3/5 129/2/5
f 133/11/5 129/2/5 132/20/5
f 132/20/5 129/2/5 130/16/5
f 131/19/5 132/20/5 130/16/5
f 144/49/10 141/2/11 142/50/11
f 146/51/12 143/52/10 144/49/10
f 148/53/12 145/54/12 146/51/12
f 150/55/12 147/56/12 148/53/12
f 152/57/13 149/10/12 150/55/12
f 154/58/13 151/59/13 152/57/13
f 156/60/13 153/61/13 154/58/13
f 158/62/11 155/63/13 156/60/13
f 160/64/10 157/9/11 158/62/11
f 162/65/10 159/66/10 160/64/10
f 164/67/11 161/68/10 162/65/10
f 142/69/11 163/70/11 164/67/11
f 168/71/10 165/2/11 166/50/11
f 170/72/12 167/73/10 168/71/10
f 172/74/12 169/4/12 170/72/12
f 174/75/10 171/76/12 172/74/12
f 176/77/10 173/7/10 174/75/10
f 178/78/12 175/79/10 176/77/10
f 180/58/13 177/8/12 178/78/12
f 182/80/11 179/61/13 180/58/13
f 184/81/11 181/6/11 182/80/11
f 186/82/11 183/83/11 184/81/11
f 188/84/10 185/5/11 186/82/11
f 190/85/10 187/86/10 188/84/10
f 192/87/11 189/1/10 190/85/10
f 166/69/11 191/88/11 192/87/11
f 196/53/13 193/2/11 194/50/11
f 198/58/12 195/56/13 196/53/13
f 200/64/10 197/61/12 198/58/12
f 194/69/11 199/66/10 200/64/10
f 204/89/10 201/2/11 202/50/11
f 206/90/12 203/91/10 204/89/10
f 208/92/12 205/93/12 206/90/12
f 210/53/12 207/94/12 208/92/12
f 212/95/13 209/56/12 210/53/12
f 214/96/13 211/97/13 212/95/13
f 216/98/13 213/99/13 214/96/13
f 218/58/11 215/100/13 216/98/13
f 220/101/10 217/61/11 218/58/11
f 222/102/10 219/103/10 220/101/10
f 224/104/11 221/105/10 222/102/10
f 226/64/11 223/106/11 224/104/11
f 228/107/10 225/66/11 226/64/11
f 230/108/10 227/109/10 228/107/10
f 232/110/11 229/111/10 230/108/10
f 202/69/11 231/112/11 232/110/11
f 236/90/10 233/2/11 234/50/11
f 238/53/10 235/93/10 236/90/10
f 240/96/10 237/56/10 238/53/10
f 242/58/12 239/99/10 240/96/10
f 244/102/13 241/61/12 242/58/12
f 246/64/11 243/105/13 244/102/13
f 248/108/11 245/66/11 246/64/11
f 234/69/11 247/111/11 248/108/11
f 252/53/13 249/2/11 250/50/11
f 254/58/12 251/56/13 252/53/13
f 256/64/10 253/61/12 254/58/12
f 250/69/11 255/66/10 256/64/10
f 260/53/10 257/2/11 258/50/11
f 262/58/12 259/56/10 260/53/10
f 264/64/13 261/61/12 262/58/12
f 258/69/11 263/66/13 264/64/13
f 268/90/10 265/2/11 266/50/11
f 270/53/10 267/93/10 268/90/10
f 272/96/10 269/56/10 270/53/10
f 274/58/12 271/99/10 272/96/10
f 276/102/12 273/61/12 274/58/12
f 278/64/12 275/105/12 276/102/12
f 280/108/13 277/66/12 278/64/12
f 266/69/11 279/111/13 280/108/13
f 144/49/10 143/52/10 141/2/11
f 146/51/12 145/54/12 143/52/10
f 148/53/12 147/56/12 145/54/12
f 150/55/12 149/10/12 147/56/12
f 152/57/13 151/59/13 149/10/12
f 154/58/13 153/61/13 151/59/13
f 156/60/13 155/63/13 153/61/13
f 158/62/11 157/9/11 155/63/13
f 160/64/10 159/66/10 157/9/11
f 162/65/10 161/68/10 159/66/10
f 164/67/11 163/70/11 161/68/10
f 142/69/11 141/3/11 163/70/11
f 168/71/10 167/73/10 165/2/11
f 170/72/12 169/4/12 167/73/10
f 172/74/12 171/76/12 169/4/12
f 174/75/10 173/7/10 171/76/12
f 176/77/10 175/79/10 173/7/10
f 178/78/12 177/8/12 175/79/10
f 180/58/13 179/61/13 177/8/12
f 182/80/11 181/6/11 179/61/13
f 184/81/11 183/83/11 181/6/11
f 186/82/11 185/5/11 183/83/11
f 188/84/10 187/86/10 185/5/11
f 190/85/10 189/1/10 187/86/10
f 192/87/11 191/88/11 189/1/10
f 166/69/11 165/3/11 191/88/11
f 196/53/13 195/56/13 193/2/11
f 198/58/12 197/61/12 195/56/13
f 200/64/10 199/66/10 197/61/12
f 194/69/11 193/3/11 199/66/10
f 204/89/10 203/91/10 201/2/11
f 206/90/12 205/93/12 203/91/10
f 208/92/12 207/94/12 205/93/12
f 210/53/12 209/56/12 207/94/12
f 212/95/13 211/97/13 209/56/12
f 214/96/13 213/99/13 211/97/13
f 216/98/13 215/100/13 213/99/13
f 218/58/11 217/61/11 215/100/13
f 220/101/10 219/103/10 217/61/11
f 222/102/10 221/105/10 219/103/10
f 224/104/11 223/106/11 221/105/10
f 226/64/11 225/66/11 223/106/11
f 228/107/10 227/109/10 225/66/11
f 230/108/10 229/111/10 227/109/10
f 232/110/11 231/112/11 229/111/10
f 202/69/11 201/3/11 231/112/11
f 236/90/10 235/93/10 233/2/11
f 238/53/10 237/56/10 235/93/10
f 240/96/10 239/99/10 237/56/10
f 242/58/12 241/61/12 239/99/10
f 244/102/13 243/105/13 241/61/12
f 246/64/11 245/66/11 243/105/13
f 248/108/11 247/111/11 245/66/11
f 234/69/11 233/3/11 247/111/11
f 252/53/13 251/56/13 249/2/11
f 254/58/12 253/61/12 251/56/13
f 256/64/10 255/66/10 253/61/12
f 250/69/11 249/3/11 255/66/10
f 260/53/10 259/56/10 257/2/11
f 262/58/12 261/61/12 259/56/10
f 264/64/13 263/66/13 261/61/12
f 258/69/11 257/3/11 263/66/13
f 268/90/10 267/93/10 265/2/11
f 270/53/10 269/56/10 267/93/10
f 272/96/10 271/99/10 269/56/10
f 274/58/12 273/61/12 271/99/10
f 276/102/12 275/105/12 273/61/12
f 278/64/12 277/66/12 275/105/12
f 280/108/13 279/111/13 277/66/12
f 266/69/11 265/3/11 279/111/13
