# Blender 5.0.1
# www.blender.org
mtllib turtrial_0.mtl
o テキスト
v 3.711794 -0.203275 0.150000
v 3.711794 -0.369942 0.150000
v 2.878461 -0.369942 0.150000
v 2.878461 0.463391 0.150000
v 3.211794 0.463391 0.150000
v 3.211794 -0.203275 0.150000
v 2.711794 0.380058 0.150000
v 2.711794 -0.369942 0.150000
v 2.378461 -0.369942 0.150000
v 2.378461 -0.036609 0.150000
v 2.211794 -0.036609 0.150000
v 2.211794 -0.369942 0.150000
v 1.878461 -0.369942 0.150000
v 1.878461 0.380058 0.150000
v 1.961794 0.380058 0.150000
v 1.961794 0.463391 0.150000
v 2.628461 0.463391 0.150000
v 2.628461 0.380058 0.150000
v 2.211794 0.130058 0.150000
v 2.378461 0.130058 0.150000
v 2.378461 0.296725 0.150000
v 2.211794 0.296725 0.150000
v 1.711794 0.463391 0.150000
v 1.711794 -0.369942 0.150000
v 1.378461 -0.369942 0.150000
v 1.378461 0.463391 0.150000
v 1.211794 -0.036609 0.150000
v 1.211794 -0.369942 0.150000
v 0.878461 -0.369942 0.150000
v 0.878461 -0.036609 0.150000
v 0.711794 -0.036609 0.150000
v 0.711794 -0.369942 0.150000
v 0.378461 -0.369942 0.150000
v 0.378461 0.463391 0.150000
v 1.128461 0.463391 0.150000
v 1.128461 0.380058 0.150000
v 1.211794 0.380058 0.150000
v 1.211794 0.130058 0.150000
v 1.128461 0.130058 0.150000
v 1.128461 -0.036609 0.150000
v 0.711794 0.130058 0.150000
v 0.878461 0.130058 0.150000
v 0.878461 0.296725 0.150000
v 0.711794 0.296725 0.150000
v 0.211794 0.380058 0.150000
v 0.211794 -0.286609 0.150000
v 0.128461 -0.286609 0.150000
v 0.128461 -0.369942 0.150000
v -0.538206 -0.369942 0.150000
v -0.538206 -0.286609 0.150000
v -0.621539 -0.286609 0.150000
v -0.621539 0.380058 0.150000
v -0.538206 0.380058 0.150000
v -0.538206 0.463391 0.150000
v 0.128461 0.463391 0.150000
v 0.128461 0.380058 0.150000
v -0.288206 -0.203275 0.150000
v -0.121539 -0.203275 0.150000
v -0.121539 0.296725 0.150000
v -0.288206 0.296725 0.150000
v -0.788206 0.463391 0.150000
v -0.788206 0.296725 0.150000
v -1.038206 0.296725 0.150000
v -1.038206 -0.369942 0.150000
v -1.371539 -0.369942 0.150000
v -1.371539 0.296725 0.150000
v -1.621539 0.296725 0.150000
v -1.621539 0.463391 0.150000
v -1.788206 0.463391 0.150000
v -1.788206 -0.286609 0.150000
v -1.871539 -0.286609 0.150000
v -1.871539 -0.369942 0.150000
v -2.538206 -0.369942 0.150000
v -2.538206 -0.286609 0.150000
v -2.621539 -0.286609 0.150000
v -2.621539 0.463391 0.150000
v -2.288206 0.463391 0.150000
v -2.288206 -0.203275 0.150000
v -2.121539 -0.203275 0.150000
v -2.121539 0.463391 0.150000
v -2.788206 0.463391 0.150000
v -2.788206 0.296725 0.150000
v -3.038206 0.296725 0.150000
v -3.038206 -0.369942 0.150000
v -3.371539 -0.369942 0.150000
v -3.371539 0.296725 0.150000
v -3.621539 0.296725 0.150000
v -3.621539 0.463391 0.150000
v 3.711794 -0.203275 -0.150000
v 3.711794 -0.369942 -0.150000
v 2.878461 -0.369942 -0.150000
v 2.878461 0.463391 -0.150000
v 3.211794 0.463391 -0.150000
v 3.211794 -0.203275 -0.150000
v 2.711794 0.380058 -0.150000
v 2.711794 -0.369942 -0.150000
v 2.378461 -0.369942 -0.150000
v 2.378461 -0.036609 -0.150000
v 2.211794 -0.036609 -0.150000
v 2.211794 -0.369942 -0.150000
v 1.878461 -0.369942 -0.150000
v 1.878461 0.380058 -0.150000
v 1.961794 0.380058 -0.150000
v 1.961794 0.463391 -0.150000
v 2.628461 0.463391 -0.150000
v 2.628461 0.380058 -0.150000
v 2.211794 0.130058 -0.150000
v 2.378461 0.130058 -0.150000
v 2.378461 0.296725 -0.150000
v 2.211794 0.296725 -0.150000
v 1.711794 0.463391 -0.150000
v 1.711794 -0.369942 -0.150000
v 1.378461 -0.369942 -0.150000
v 1.378461 0.463391 -0.150000
v 1.211794 -0.036609 -0.150000
v 1.211794 -0.369942 -0.150000
v 0.878461 -0.369942 -0.150000
v 0.878461 -0.036609 -0.150000
v 0.711794 -0.036609 -0.150000
v 0.711794 -0.369942 -0.150000
v 0.378461 -0.369942 -0.150000
v 0.378461 0.463391 -0.150000
v 1.128461 0.463391 -0.150000
v 1.128461 0.380058 -0.150000
v 1.211794 0.380058 -0.150000
v 1.211794 0.130058 -0.150000
v 1.128461 0.130058 -0.150000
v 1.128461 -0.036609 -0.150000
v 0.711794 0.130058 -0.150000
v 0.878461 0.130058 -0.150000
v 0.878461 0.296725 -0.150000
v 0.711794 0.296725 -0.150000
v 0.211794 0.380058 -0.150000
v 0.211794 -0.286609 -0.150000
v 0.128461 -0.286609 -0.150000
v 0.128461 -0.369942 -0.150000
v -0.538206 -0.369942 -0.150000
v -0.538206 -0.286609 -0.150000
v -0.621539 -0.286609 -0.150000
v -0.621539 0.380058 -0.150000
v -0.538206 0.380058 -0.150000
v -0.538206 0.463391 -0.150000
v 0.128461 0.463391 -0.150000
v 0.128461 0.380058 -0.150000
v -0.288206 -0.203275 -0.150000
v -0.121539 -0.203275 -0.150000
v -0.121539 0.296725 -0.150000
v -0.288206 0.296725 -0.150000
v -0.788206 0.463391 -0.150000
v -0.788206 0.296725 -0.150000
v -1.038206 0.296725 -0.150000
v -1.038206 -0.369942 -0.150000
v -1.371539 -0.369942 -0.150000
v -1.371539 0.296725 -0.150000
v -1.621539 0.296725 -0.150000
v -1.621539 0.463391 -0.150000
v -1.788206 0.463391 -0.150000
v -1.788206 -0.286609 -0.150000
v -1.871539 -0.286609 -0.150000
v -1.871539 -0.369942 -0.150000
v -2.538206 -0.369942 -0.150000
v -2.538206 -0.286609 -0.150000
v -2.621539 -0.286609 -0.150000
v -2.621539 0.463391 -0.150000
v -2.288206 0.463391 -0.150000
v -2.288206 -0.203275 -0.150000
v -2.121539 -0.203275 -0.150000
v -2.121539 0.463391 -0.150000
v -2.788206 0.463391 -0.150000
v -2.788206 0.296725 -0.150000
v -3.038206 0.296725 -0.150000
v -3.038206 -0.369942 -0.150000
v -3.371539 -0.369942 -0.150000
v -3.371539 0.296725 -0.150000
v -3.621539 0.296725 -0.150000
v -3.621539 0.463391 -0.150000
v -2.788206 0.463391 -0.150000
v -2.788206 0.463391 0.150000
v -2.788206 0.296725 -0.150000
v -2.788206 0.296725 0.150000
v -3.038206 0.296725 -0.150000
v -3.038206 0.296725 0.150000
v -3.038206 -0.369942 -0.150000
v -3.038206 -0.369942 0.150000
v -3.371539 -0.369942 -0.150000
v -3.371539 -0.369942 0.150000
v -3.371539 0.296725 -0.150000
v -3.371539 0.296725 0.150000
v -3.621539 0.296725 -0.150000
v -3.621539 0.296725 0.150000
v -3.621539 0.463391 -0.150000
v -3.621539 0.463391 0.150000
v -1.788206 0.463391 -0.150000
v -1.788206 0.463391 0.150000
v -1.788206 -0.286609 -0.150000
v -1.788206 -0.286609 0.150000
v -1.871539 -0.286609 -0.150000
v -1.871539 -0.286609 0.150000
v -1.871539 -0.369942 -0.150000
v -1.871539 -0.369942 0.150000
v -2.538206 -0.369942 -0.150000
v -2.538206 -0.369942 0.150000
v -2.538206 -0.286609 -0.150000
v -2.538206 -0.286609 0.150000
v -2.621539 -0.286609 -0.150000
v -2.621539 -0.286609 0.150000
v -2.621539 0.463391 -0.150000
v -2.621539 0.463391 0.150000
v -2.288206 0.463391 -0.150000
v -2.288206 0.463391 0.150000
v -2.288206 -0.203275 -0.150000
v -2.288206 -0.203275 0.150000
v -2.121539 -0.203275 -0.150000
v -2.121539 -0.203275 0.150000
v -2.121539 0.463391 -0.150000
v -2.121539 0.463391 0.150000
v -0.788206 0.463391 -0.150000
v -0.788206 0.463391 0.150000
v -0.788206 0.296725 -0.150000
v -0.788206 0.296725 0.150000
v -1.038206 0.296725 -0.150000
v -1.038206 0.296725 0.150000
v -1.038206 -0.369942 -0.150000
v -1.038206 -0.369942 0.150000
v -1.371539 -0.369942 -0.150000
v -1.371539 -0.369942 0.150000
v -1.371539 0.296725 -0.150000
v -1.371539 0.296725 0.150000
v -1.621539 0.296725 -0.150000
v -1.621539 0.296725 0.150000
v -1.621539 0.463391 -0.150000
v -1.621539 0.463391 0.150000
v 0.211794 0.380058 -0.150000
v 0.211794 0.380058 0.150000
v 0.211794 -0.286609 -0.150000
v 0.211794 -0.286609 0.150000
v 0.128461 -0.286609 -0.150000
v 0.128461 -0.286609 0.150000
v 0.128461 -0.369942 -0.150000
v 0.128461 -0.369942 0.150000
v -0.538206 -0.369942 -0.150000
v -0.538206 -0.369942 0.150000
v -0.538206 -0.286609 -0.150000
v -0.538206 -0.286609 0.150000
v -0.621539 -0.286609 -0.150000
v -0.621539 -0.286609 0.150000
v -0.621539 0.380058 -0.150000
v -0.621539 0.380058 0.150000
v -0.538206 0.380058 -0.150000
v -0.538206 0.380058 0.150000
v -0.538206 0.463391 -0.150000
v -0.538206 0.463391 0.150000
v 0.128461 0.463391 -0.150000
v 0.128461 0.463391 0.150000
v 0.128461 0.380058 -0.150000
v 0.128461 0.380058 0.150000
v -0.288206 -0.203275 -0.150000
v -0.288206 -0.203275 0.150000
v -0.121539 -0.203275 -0.150000
v -0.121539 -0.203275 0.150000
v -0.121539 0.296725 -0.150000
v -0.121539 0.296725 0.150000
v -0.288206 0.296725 -0.150000
v -0.288206 0.296725 0.150000
v 1.211794 -0.036609 -0.150000
v 1.211794 -0.036609 0.150000
v 1.211794 -0.369942 -0.150000
v 1.211794 -0.369942 0.150000
v 0.878461 -0.369942 -0.150000
v 0.878461 -0.369942 0.150000
v 0.878461 -0.036609 -0.150000
v 0.878461 -0.036609 0.150000
v 0.711794 -0.036609 -0.150000
v 0.711794 -0.036609 0.150000
v 0.711794 -0.369942 -0.150000
v 0.711794 -0.369942 0.150000
v 0.378461 -0.369942 -0.150000
v 0.378461 -0.369942 0.150000
v 0.378461 0.463391 -0.150000
v 0.378461 0.463391 0.150000
v 1.128461 0.463391 -0.150000
v 1.128461 0.463391 0.150000
v 1.128461 0.380058 -0.150000
v 1.128461 0.380058 0.150000
v 1.211794 0.380058 -0.150000
v 1.211794 0.380058 0.150000
v 1.211794 0.130058 -0.150000
v 1.211794 0.130058 0.150000
v 1.128461 0.130058 -0.150000
v 1.128461 0.130058 0.150000
v 1.128461 -0.036609 -0.150000
v 1.128461 -0.036609 0.150000
v 0.711794 0.130058 -0.150000
v 0.711794 0.130058 0.150000
v 0.878461 0.130058 -0.150000
v 0.878461 0.130058 0.150000
v 0.878461 0.296725 -0.150000
v 0.878461 0.296725 0.150000
v 0.711794 0.296725 -0.150000
v 0.711794 0.296725 0.150000
v 1.711794 0.463391 -0.150000
v 1.711794 0.463391 0.150000
v 1.711794 -0.369942 -0.150000
v 1.711794 -0.369942 0.150000
v 1.378461 -0.369942 -0.150000
v 1.378461 -0.369942 0.150000
v 1.378461 0.463391 -0.150000
v 1.378461 0.463391 0.150000
v 2.711794 0.380058 -0.150000
v 2.711794 0.380058 0.150000
v 2.711794 -0.369942 -0.150000
v 2.711794 -0.369942 0.150000
v 2.378461 -0.369942 -0.150000
v 2.378461 -0.369942 0.150000
v 2.378461 -0.036609 -0.150000
v 2.378461 -0.036609 0.150000
v 2.211794 -0.036609 -0.150000
v 2.211794 -0.036609 0.150000
v 2.211794 -0.369942 -0.150000
v 2.211794 -0.369942 0.150000
v 1.878461 -0.369942 -0.150000
v 1.878461 -0.369942 0.150000
v 1.878461 0.380058 -0.150000
v 1.878461 0.380058 0.150000
v 1.961794 0.380058 -0.150000
v 1.961794 0.380058 0.150000
v 1.961794 0.463391 -0.150000
v 1.961794 0.463391 0.150000
v 2.628461 0.463391 -0.150000
v 2.628461 0.463391 0.150000
v 2.628461 0.380058 -0.150000
v 2.628461 0.380058 0.150000
v 2.211794 0.130058 -0.150000
v 2.211794 0.130058 0.150000
v 2.378461 0.130058 -0.150000
v 2.378461 0.130058 0.150000
v 2.378461 0.296725 -0.150000
v 2.378461 0.296725 0.150000
v 2.211794 0.296725 -0.150000
v 2.211794 0.296725 0.150000
v 3.711794 -0.203275 -0.150000
v 3.711794 -0.203275 0.150000
v 3.711794 -0.369942 -0.150000
v 3.711794 -0.369942 0.150000
v 2.878461 -0.369942 -0.150000
v 2.878461 -0.369942 0.150000
v 2.878461 0.463391 -0.150000
v 2.878461 0.463391 0.150000
v 3.211794 0.463391 -0.150000
v 3.211794 0.463391 0.150000
v 3.211794 -0.203275 -0.150000
v 3.211794 -0.203275 0.150000
vn -0.0000 -0.0000 1.0000
vn -0.0499 -0.0000 0.9988
vn -0.0000 -0.0000 -1.0000
vn -0.0499 -0.0000 -0.9988
vn 0.7071 -0.7071 -0.0000
vn 0.7071 0.7071 -0.0000
vn -0.7071 -0.7071 -0.0000
vn -0.7071 0.7071 -0.0000
vt 0.400000 0.000000
vt 0.800000 0.000000
vt 0.600000 0.000000
vt 1.000000 0.000000
vt 0.000000 0.000000
vt 0.200000 0.000000
vt 0.533333 0.000000
vt 0.666667 0.000000
vt 0.733333 0.000000
vt 0.466667 0.000000
vt 0.933333 0.000000
vt 0.066667 0.000000
vt 0.866667 0.000000
vt 0.266667 0.000000
vt 0.333333 0.000000
vt 0.133333 0.000000
vt 0.352941 0.000000
vt 0.411765 0.000000
vt 0.470588 0.000000
vt 0.529412 0.000000
vt 0.588235 0.000000
vt 0.941176 0.000000
vt 0.647059 0.000000
vt 0.823529 0.000000
vt 0.882353 0.000000
vt 0.235294 0.000000
vt 0.705882 0.000000
vt 0.764706 0.000000
vt 0.294118 0.000000
vt 0.176471 0.000000
vt 0.117647 0.000000
vt 0.058824 0.000000
vt 0.857143 0.000000
vt 0.142857 0.000000
vt 0.714286 0.000000
vt 0.571429 0.000000
vt 0.285714 0.000000
vt 0.428571 0.000000
vt 0.545455 0.000000
vt 0.727273 0.000000
vt 0.636364 0.000000
vt 0.818182 0.000000
vt 0.909091 0.000000
vt 0.090909 0.000000
vt 0.454545 0.000000
vt 0.363636 0.000000
vt 0.181818 0.000000
vt 0.272727 0.000000
vt 0.125000 1.000000
vt 0.000000 1.000000
vt 0.250000 1.000000
vt 0.125000 0.000000
vt 0.375000 1.000000
vt 0.250000 0.000000
vt 0.500000 1.000000
vt 0.375000 0.000000
vt 0.625000 1.000000
vt 0.500000 0.000000
vt 0.750000 1.000000
vt 0.625000 0.000000
vt 0.875000 1.000000
vt 0.750000 0.000000
vt 1.000000 1.000000
vt 0.875000 0.000000
vt 0.083333 1.000000
vt 0.166667 1.000000
vt 0.083333 0.000000
vt 0.166667 0.000000
vt 0.333333 1.000000
vt 0.416667 1.000000
vt 0.416667 0.000000
vt 0.583333 1.000000
vt 0.666667 1.000000
vt 0.583333 0.000000
vt 0.833333 1.000000
vt 0.916667 1.000000
vt 0.833333 0.000000
vt 0.916667 0.000000
vt 0.071429 1.000000
vt 0.142857 1.000000
vt 0.071429 0.000000
vt 0.214286 1.000000
vt 0.285714 1.000000
vt 0.214286 0.000000
vt 0.357143 1.000000
vt 0.428571 1.000000
vt 0.357143 0.000000
vt 0.571429 1.000000
vt 0.642857 1.000000
vt 0.714286 1.000000
vt 0.642857 0.000000
vt 0.785714 1.000000
vt 0.857143 1.000000
vt 0.785714 0.000000
vt 0.928571 1.000000
vt 0.928571 0.000000
s 0
f 3/1/1 5/2/1 4/3/1
f 3/1/1 6/4/1 5/2/1
f 3/1/1 1/5/1 6/4/1
f 3/1/1 2/6/1 1/5/1
f 15/7/1 17/8/1 16/3/1
f 15/7/1 18/9/1 17/8/1
f 13/1/1 15/7/1 14/10/1
f 13/1/1 22/4/1 15/7/1
f 22/4/1 18/9/1 15/7/1
f 22/4/1 7/5/1 18/9/1
f 22/4/1 21/11/1 7/5/1
f 21/11/1 8/12/1 7/5/1
f 13/1/1 19/2/1 22/4/1
f 20/13/1 8/12/1 21/11/1
f 13/1/1 20/13/1 19/2/1
f 13/1/2 11/14/2 20/13/2
f 11/14/1 10/6/1 20/13/1
f 10/6/1 8/12/1 20/13/1
f 13/1/1 12/15/1 11/14/1
f 9/16/1 8/12/1 10/6/1
f 25/8/1 23/5/1 26/4/1
f 25/8/1 24/15/1 23/5/1
f 33/17/1 44/4/1 34/18/1
f 44/4/1 35/19/1 34/18/1
f 44/4/1 36/20/1 35/19/1
f 44/4/1 37/21/1 36/20/1
f 44/4/1 43/22/1 37/21/1
f 43/22/1 38/23/1 37/21/1
f 33/17/1 41/24/1 44/4/1
f 42/25/1 38/23/1 43/22/1
f 33/17/1 42/25/1 41/24/1
f 33/17/2 31/26/2 42/25/2
f 31/26/1 39/27/1 42/25/1
f 39/27/1 38/23/1 42/25/1
f 31/26/1 40/28/1 39/27/1
f 33/17/1 32/29/1 31/26/1
f 30/30/1 40/28/1 31/26/1
f 29/31/1 40/28/1 30/30/1
f 29/31/1 27/5/1 40/28/1
f 29/31/1 28/32/1 27/5/1
f 53/7/1 55/8/1 54/3/1
f 53/7/1 56/9/1 55/8/1
f 51/1/1 53/7/1 52/10/1
f 51/1/1 60/4/1 53/7/1
f 60/4/1 56/9/1 53/7/1
f 60/4/1 45/5/1 56/9/1
f 60/4/1 59/11/1 45/5/1
f 59/11/1 46/12/1 45/5/1
f 51/1/1 57/2/1 60/4/1
f 58/13/1 46/12/1 59/11/1
f 51/1/1 58/13/1 57/2/1
f 51/1/1 46/12/1 58/13/1
f 50/15/1 46/12/1 51/1/1
f 49/14/1 47/16/1 50/15/1
f 47/16/1 46/12/1 50/15/1
f 49/14/1 48/6/1 47/16/1
f 67/33/1 61/5/1 68/4/1
f 67/33/1 62/34/1 61/5/1
f 66/35/1 62/34/1 67/33/1
f 65/36/1 63/37/1 66/35/1
f 63/37/1 62/34/1 66/35/1
f 65/36/1 64/38/1 63/37/1
f 75/39/1 77/40/1 76/41/1
f 75/39/1 78/42/1 77/40/1
f 79/43/1 69/5/1 80/4/1
f 79/43/1 70/44/1 69/5/1
f 75/39/1 79/43/1 78/42/1
f 75/39/1 70/44/1 79/43/1
f 74/45/1 70/44/1 75/39/1
f 73/46/1 71/47/1 74/45/1
f 71/47/1 70/44/1 74/45/1
f 73/46/1 72/48/1 71/47/1
f 87/33/1 81/5/1 88/4/1
f 87/33/1 82/34/1 81/5/1
f 86/35/1 82/34/1 87/33/1
f 85/36/1 83/37/1 86/35/1
f 83/37/1 82/34/1 86/35/1
f 85/36/1 84/38/1 83/37/1
f 91/1/3 92/3/3 93/2/3
f 91/1/3 93/2/3 94/4/3
f 91/1/3 94/4/3 89/5/3
f 91/1/3 89/5/3 90/6/3
f 103/7/3 104/3/3 105/8/3
f 103/7/3 105/8/3 106/9/3
f 101/1/3 102/10/3 103/7/3
f 101/1/3 103/7/3 110/4/3
f 110/4/3 103/7/3 106/9/3
f 110/4/3 106/9/3 95/5/3
f 110/4/3 95/5/3 109/11/3
f 109/11/3 95/5/3 96/12/3
f 101/1/3 110/4/3 107/2/3
f 108/13/3 109/11/3 96/12/3
f 101/1/3 107/2/3 108/13/3
f 101/1/4 108/13/4 99/14/4
f 99/14/3 108/13/3 98/6/3
f 98/6/3 108/13/3 96/12/3
f 101/1/3 99/14/3 100/15/3
f 97/16/3 98/6/3 96/12/3
f 113/8/3 114/4/3 111/5/3
f 113/8/3 111/5/3 112/15/3
f 121/17/3 122/18/3 132/4/3
f 132/4/3 122/18/3 123/19/3
f 132/4/3 123/19/3 124/20/3
f 132/4/3 124/20/3 125/21/3
f 132/4/3 125/21/3 131/22/3
f 131/22/3 125/21/3 126/23/3
f 121/17/3 132/4/3 129/24/3
f 130/25/3 131/22/3 126/23/3
f 121/17/3 129/24/3 130/25/3
f 121/17/4 130/25/4 119/26/4
f 119/26/3 130/25/3 127/27/3
f 127/27/1 130/25/1 126/23/1
f 119/26/3 127/27/3 128/28/3
f 121/17/3 119/26/3 120/29/3
f 118/30/1 119/26/1 128/28/1
f 117/31/3 118/30/3 128/28/3
f 117/31/3 128/28/3 115/5/3
f 117/31/3 115/5/3 116/32/3
f 141/7/3 142/3/3 143/8/3
f 141/7/3 143/8/3 144/9/3
f 139/1/3 140/10/3 141/7/3
f 139/1/3 141/7/3 148/4/3
f 148/4/3 141/7/3 144/9/3
f 148/4/3 144/9/3 133/5/3
f 148/4/3 133/5/3 147/11/3
f 147/11/3 133/5/3 134/12/3
f 139/1/3 148/4/3 145/2/3
f 146/13/3 147/11/3 134/12/3
f 139/1/3 145/2/3 146/13/3
f 139/1/3 146/13/3 134/12/3
f 138/15/1 139/1/1 134/12/1
f 137/14/3 138/15/3 135/16/3
f 135/16/1 138/15/1 134/12/1
f 137/14/3 135/16/3 136/6/3
f 155/33/3 156/4/3 149/5/3
f 155/33/3 149/5/3 150/34/3
f 154/35/1 155/33/1 150/34/1
f 153/36/3 154/35/3 151/37/3
f 151/37/1 154/35/1 150/34/1
f 153/36/3 151/37/3 152/38/3
f 163/39/3 164/41/3 165/40/3
f 163/39/3 165/40/3 166/42/3
f 167/43/3 168/4/3 157/5/3
f 167/43/3 157/5/3 158/44/3
f 163/39/3 166/42/3 167/43/3
f 163/39/3 167/43/3 158/44/3
f 162/45/1 163/39/1 158/44/1
f 161/46/3 162/45/3 159/47/3
f 159/47/1 162/45/1 158/44/1
f 161/46/3 159/47/3 160/48/3
f 175/33/3 176/4/3 169/5/3
f 175/33/3 169/5/3 170/34/3
f 174/35/1 175/33/1 170/34/1
f 173/36/3 174/35/3 171/37/3
f 171/37/1 174/35/1 170/34/1
f 173/36/3 171/37/3 172/38/3
s 1
f 180/49/5 177/5/6 178/50/6
f 182/51/5 179/52/5 180/49/5
f 184/53/5 181/54/5 182/51/5
f 186/55/7 183/56/5 184/53/5
f 188/57/7 185/58/7 186/55/7
f 190/59/7 187/60/7 188/57/7
f 192/61/8 189/62/7 190/59/7
f 178/63/6 191/64/8 192/61/8
f 196/65/5 193/5/6 194/50/6
f 198/66/5 195/67/5 196/65/5
f 200/51/5 197/68/5 198/66/5
f 202/69/7 199/54/5 200/51/5
f 204/70/7 201/15/7 202/69/7
f 206/55/7 203/71/7 204/70/7
f 208/72/8 205/58/7 206/55/7
f 210/73/6 207/74/8 208/72/8
f 212/59/6 209/8/6 210/73/6
f 214/75/8 211/62/6 212/59/6
f 216/76/8 213/77/8 214/75/8
f 194/63/6 215/78/8 216/76/8
f 220/49/5 217/5/6 218/50/6
f 222/51/5 219/52/5 220/49/5
f 224/53/5 221/54/5 222/51/5
f 226/55/7 223/56/5 224/53/5
f 228/57/7 225/58/7 226/55/7
f 230/59/7 227/60/7 228/57/7
f 232/61/8 229/62/7 230/59/7
f 218/63/6 231/64/8 232/61/8
f 236/65/5 233/5/6 234/50/6
f 238/66/5 235/67/5 236/65/5
f 240/51/5 237/68/5 238/66/5
f 242/69/7 239/54/5 240/51/5
f 244/70/7 241/15/7 242/69/7
f 246/55/7 243/71/7 244/70/7
f 248/72/8 245/58/7 246/55/7
f 250/73/8 247/74/8 248/72/8
f 252/59/8 249/8/8 250/73/8
f 254/75/6 251/62/8 252/59/8
f 256/76/6 253/77/6 254/75/6
f 234/63/6 255/78/6 256/76/6
f 260/51/8 257/5/6 258/50/6
f 262/55/7 259/54/8 260/51/8
f 264/59/5 261/58/7 262/55/7
f 258/63/6 263/62/5 264/59/5
f 268/79/5 265/5/6 266/50/6
f 270/80/7 267/81/5 268/79/5
f 272/82/7 269/34/7 270/80/7
f 274/83/5 271/84/7 272/82/7
f 276/85/5 273/37/5 274/83/5
f 278/86/7 275/87/5 276/85/5
f 280/55/8 277/38/7 278/86/7
f 282/88/6 279/58/8 280/55/8
f 284/89/6 281/36/6 282/88/6
f 286/90/6 283/91/6 284/89/6
f 288/92/5 285/35/6 286/90/6
f 290/93/5 287/94/5 288/92/5
f 292/95/6 289/33/5 290/93/5
f 266/63/6 291/96/6 292/95/6
f 296/51/8 293/5/6 294/50/6
f 298/55/7 295/54/8 296/51/8
f 300/59/5 297/58/7 298/55/7
f 294/63/6 299/62/5 300/59/5
f 304/51/5 301/5/6 302/50/6
f 306/55/7 303/54/5 304/51/5
f 308/59/8 305/58/7 306/55/7
f 302/63/6 307/62/8 308/59/8
f 312/65/5 309/5/6 310/50/6
f 314/66/7 311/67/5 312/65/5
f 316/51/7 313/68/7 314/66/7
f 318/69/5 315/54/7 316/51/7
f 320/70/5 317/15/5 318/69/5
f 322/55/7 319/71/5 320/70/5
f 324/72/8 321/58/7 322/55/7
f 326/73/8 323/74/8 324/72/8
f 328/59/8 325/8/8 326/73/8
f 330/75/6 327/62/8 328/59/8
f 332/76/6 329/77/6 330/75/6
f 310/63/6 331/78/6 332/76/6
f 336/51/8 333/5/6 334/50/6
f 338/55/7 335/54/8 336/51/8
f 340/59/5 337/58/7 338/55/7
f 334/63/6 339/62/5 340/59/5
f 344/66/5 341/5/6 342/50/6
f 346/69/7 343/68/5 344/66/5
f 348/55/8 345/15/7 346/69/7
f 350/73/6 347/58/8 348/55/8
f 352/75/6 349/8/6 350/73/6
f 342/63/6 351/77/6 352/75/6
f 180/49/5 179/52/5 177/5/6
f 182/51/5 181/54/5 179/52/5
f 184/53/5 183/56/5 181/54/5
f 186/55/7 185/58/7 183/56/5
f 188/57/7 187/60/7 185/58/7
f 190/59/7 189/62/7 187/60/7
f 192/61/8 191/64/8 189/62/7
f 178/63/6 177/4/6 191/64/8
f 196/65/5 195/67/5 193/5/6
f 198/66/5 197/68/5 195/67/5
f 200/51/5 199/54/5 197/68/5
f 202/69/7 201/15/7 199/54/5
f 204/70/7 203/71/7 201/15/7
f 206/55/7 205/58/7 203/71/7
f 208/72/8 207/74/8 205/58/7
f 210/73/6 209/8/6 207/74/8
f 212/59/6 211/62/6 209/8/6
f 214/75/8 213/77/8 211/62/6
f 216/76/8 215/78/8 213/77/8
f 194/63/6 193/4/6 215/78/8
f 220/49/5 219/52/5 217/5/6
f 222/51/5 221/54/5 219/52/5
f 224/53/5 223/56/5 221/54/5
f 226/55/7 225/58/7 223/56/5
f 228/57/7 227/60/7 225/58/7
f 230/59/7 229/62/7 227/60/7
f 232/61/8 231/64/8 229/62/7
f 218/63/6 217/4/6 231/64/8
f 236/65/5 235/67/5 233/5/6
f 238/66/5 237/68/5 235/67/5
f 240/51/5 239/54/5 237/68/5
f 242/69/7 241/15/7 239/54/5
f 244/70/7 243/71/7 241/15/7
f 246/55/7 245/58/7 243/71/7
f 248/72/8 247/74/8 245/58/7
f 250/73/8 249/8/8 247/74/8
f 252/59/8 251/62/8 249/8/8
f 254/75/6 253/77/6 251/62/8
f 256/76/6 255/78/6 253/77/6
f 234/63/6 233/4/6 255/78/6
f 260/51/8 259/54/8 257/5/6
f 262/55/7 261/58/7 259/54/8
f 264/59/5 263/62/5 261/58/7
f 258/63/6 257/4/6 263/62/5
f 268/79/5 267/81/5 265/5/6
f 270/80/7 269/34/7 267/81/5
f 272/82/7 271/84/7 269/34/7
f 274/83/5 273/37/5 271/84/7
f 276/85/5 275/87/5 273/37/5
f 278/86/7 277/38/7 275/87/5
f 280/55/8 279/58/8 277/38/7
f 282/88/6 281/36/6 279/58/8
f 284/89/6 283/91/6 281/36/6
f 286/90/6 285/35/6 283/91/6
f 288/92/5 287/94/5 285/35/6
f 290/93/5 289/33/5 287/94/5
f 292/95/6 291/96/6 289/33/5
f 266/63/6 265/4/6 291/96/6
f 296/51/8 295/54/8 293/5/6
f 298/55/7 297/58/7 295/54/8
f 300/59/5 299/62/5 297/58/7
f 294/63/6 293/4/6 299/62/5
f 304/51/5 303/54/5 301/5/6
f 306/55/7 305/58/7 303/54/5
f 308/59/8 307/62/8 305/58/7
f 302/63/6 301/4/6 307/62/8
f 312/65/5 311/67/5 309/5/6
f 314/66/7 313/68/7 311/67/5
f 316/51/7 315/54/7 313/68/7
f 318/69/5 317/15/5 315/54/7
f 320/70/5 319/71/5 317/15/5
f 322/55/7 321/58/7 319/71/5
f 324/72/8 323/74/8 321/58/7
f 326/73/8 325/8/8 323/74/8
f 328/59/8 327/62/8 325/8/8
f 330/75/6 329/77/6 327/62/8
f 332/76/6 331/78/6 329/77/6
f 310/63/6 309/4/6 331/78/6
f 336/51/8 335/54/8 333/5/6
f 338/55/7 337/58/7 335/54/8
f 340/59/5 339/62/5 337/58/7
f 334/63/6 333/4/6 339/62/5
f 344/66/5 343/68/5 341/5/6
f 346/69/7 345/15/7 343/68/5
f 348/55/8 347/58/8 345/15/7
f 350/73/6 349/8/6 347/58/8
f 352/75/6 351/77/6 349/8/6
f 342/63/6 341/4/6 351/77/6
