# Blender 5.0.1
# www.blender.org
mtllib bomb.mtl
o Cube
v -0.323004 0.020641 0.318165
v -0.314966 0.186911 0.489728
v -0.484510 0.190645 0.325265
v -0.326953 0.831140 0.485441
v -0.316535 1.001053 0.321984
v -0.039811 1.010000 0.039811
v -0.489140 0.833734 0.317904
v -0.321093 0.024509 -0.326814
v -0.488347 0.186495 -0.319056
v -0.326877 0.189125 -0.485508
v -0.321984 1.001053 -0.316535
v -0.039811 1.010000 -0.039811
v -0.317798 0.833626 -0.489241
v -0.485485 0.831205 -0.326770
v 0.321093 0.024509 0.326814
v 0.489241 0.186378 0.317800
v 0.326877 0.189125 0.485508
v 0.321984 1.001053 0.316535
v 0.040194 1.010916 0.013215
v 0.317798 0.833626 0.489241
v 0.485485 0.831205 0.326770
v 0.323538 0.020766 -0.318007
v 0.317803 0.186383 -0.489242
v 0.485492 0.188904 -0.326807
v 0.316535 1.001053 -0.321984
v 0.489241 0.833626 -0.317798
v 0.326770 0.831205 -0.485485
v 0.000000 1.194490 -0.000000
vn -0.3509 -0.8747 0.3345
vn -0.8771 -0.3464 -0.3326
vn -0.3377 -0.8729 -0.3522
vn -0.3318 -0.3469 0.8772
vn -0.8739 -0.3345 0.3527
vn 0.3475 -0.8766 -0.3328
vn 0.3369 -0.8730 0.3527
vn -0.3544 0.3373 0.8721
vn 0.3330 0.3475 0.8766
vn 0.3528 -0.3365 0.8731
vn -0.8769 0.3465 0.3333
vn -0.3368 0.8734 0.3517
vn 0.3517 0.8733 0.3371
vn -0.3514 0.8735 -0.3368
vn 0.3324 -0.3474 -0.8768
vn -0.3524 -0.3364 -0.8733
vn -0.8725 0.3377 -0.3533
vn -0.3329 0.3474 -0.8766
vn 0.3368 0.8734 -0.3518
vn 0.8773 -0.3469 0.3317
vn 0.8766 0.3474 -0.3330
vn 0.8725 -0.3375 -0.3533
vn 0.8722 0.3380 0.3535
vn 0.3536 0.3380 -0.8722
vn 0.0029 0.9994 -0.0353
vn -0.0152 0.9997 0.0171
vn 0.0118 0.9999 0.0020
vn -0.5802 0.2895 0.7613
vn 0.0684 0.9974 -0.0240
vn -0.4917 0.2837 -0.8232
vn 0.9636 0.2217 0.1491
vt 0.170861 0.704668
vt 0.130552 0.546587
vt 0.170306 0.545053
vt 0.169886 0.743986
vt 0.131953 0.706681
vt 0.334991 0.543920
vt 0.335852 0.706460
vt 0.578512 0.005793
vt 0.428361 0.043441
vt 0.428361 0.002904
vt 0.579790 0.789348
vt 0.426248 0.945582
vt 0.372627 0.763418
vt 0.579379 0.045657
vt 0.428361 0.207857
vt 0.618519 0.044347
vt 0.622646 0.944407
vt 0.639095 0.751572
vt 0.619501 0.235321
vt 0.372918 0.485820
vt 0.169072 0.506672
vt 0.427501 0.289274
vt 0.579960 0.209714
vt 0.579367 0.279711
vt 0.639143 0.497667
vt 0.405267 0.706486
vt 0.580508 0.531057
vt 0.404410 0.543078
vt 0.581224 0.719612
vt 0.580553 0.460742
vt 0.747720 0.611545
vt 0.820328 0.698243
vt 0.747720 0.637703
vt 0.724289 0.629246
vt 0.820328 0.551757
vt 0.736004 0.624388
vt 0.579681 0.946132
s 1
usemtl Material.005
f 1/1/1 9/2/2 8/3/3
f 1/1/1 2/4/4 3/5/5
f 22/6/6 1/1/1 8/3/3
f 15/7/7 2/4/4 1/1/1
f 4/8/8 3/9/5 2/10/4
f 20/11/9 2/12/4 17/13/10
f 7/14/11 9/15/2 3/9/5
f 4/8/8 5/16/12 7/14/11
f 5/17/12 20/11/9 18/18/13
f 11/19/14 7/14/11 5/16/12
f 8/3/3 23/20/15 22/6/6
f 8/3/3 9/2/2 10/21/16
f 10/22/16 14/23/17 13/24/18
f 13/24/18 23/20/15 10/22/16
f 11/19/14 13/24/18 14/23/17
f 25/25/19 13/24/18 11/19/14
f 15/7/7 16/26/20 17/13/10
f 22/6/6 16/26/20 15/7/7
f 26/27/21 16/26/20 24/28/22
f 17/13/10 21/29/23 20/11/9
f 18/18/13 26/27/21 25/25/19
f 18/18/13 20/11/9 21/29/23
f 22/6/6 23/20/15 24/28/22
f 24/28/22 27/30/24 26/27/21
f 25/25/19 26/27/21 27/30/24
f 12/31/25 5/32/12 6/33/26
f 19/34/27 11/35/14 12/31/25
f 6/33/26 18/18/13 19/34/27
f 6/33/28 28/36/29 12/31/30
f 19/34/31 28/36/29 6/33/28
f 12/31/30 28/36/29 19/34/31
f 1/1/1 3/5/5 9/2/2
f 22/6/6 15/7/7 1/1/1
f 15/7/7 17/13/10 2/4/4
f 4/8/8 7/14/11 3/9/5
f 20/11/9 4/37/8 2/12/4
f 7/14/11 14/23/17 9/15/2
f 5/17/12 4/37/8 20/11/9
f 11/19/14 14/23/17 7/14/11
f 8/3/3 10/21/16 23/20/15
f 10/22/16 9/15/2 14/23/17
f 13/24/18 27/30/24 23/20/15
f 25/25/19 27/30/24 13/24/18
f 22/6/6 24/28/22 16/26/20
f 26/27/21 21/29/23 16/26/20
f 17/13/10 16/26/20 21/29/23
f 18/18/13 21/29/23 26/27/21
f 24/28/22 23/20/15 27/30/24
f 12/31/25 11/35/14 5/32/12
f 19/34/27 25/25/19 11/35/14
f 19/34/27 18/18/13 25/25/19
f 6/33/26 5/32/12 18/18/13
o 立方体
v -0.050000 -0.050000 0.050000
v -0.050000 0.050000 0.050000
v -0.050000 -0.050000 -0.050000
v -0.050000 0.050000 -0.050000
v 0.050000 -0.050000 0.050000
v 0.050000 0.050000 0.050000
v 0.050000 -0.050000 -0.050000
v 0.050000 0.050000 -0.050000
vn -1.0000 -0.0000 -0.0000
vn -0.0000 -0.0000 -1.0000
vn 1.0000 -0.0000 -0.0000
vn -0.0000 -0.0000 1.0000
vn -0.0000 -1.0000 -0.0000
vn -0.0000 1.0000 -0.0000
vt 0.625000 0.000000
vt 0.375000 0.250000
vt 0.375000 0.000000
vt 0.625000 0.250000
vt 0.375000 0.500000
vt 0.625000 0.500000
vt 0.375000 0.750000
vt 0.625000 0.750000
vt 0.375000 1.000000
vt 0.125000 0.750000
vt 0.125000 0.500000
vt 0.875000 0.500000
vt 0.625000 1.000000
vt 0.875000 0.750000
s 0
f 30/38/32 31/39/32 29/40/32
f 32/41/33 35/42/33 31/39/33
f 36/43/34 33/44/34 35/42/34
f 34/45/35 29/46/35 33/44/35
f 35/42/36 29/47/36 31/48/36
f 32/49/37 34/45/37 36/43/37
f 30/38/32 32/41/32 31/39/32
f 32/41/33 36/43/33 35/42/33
f 36/43/34 34/45/34 33/44/34
f 34/45/35 30/50/35 29/46/35
f 35/42/36 33/44/36 29/47/36
f 32/49/37 30/51/37 34/45/37
