# Blender 5.0.1
# www.blender.org
mtllib enemy.mtl
o Cube.001
v -0.514330 0.005000 0.514330
v -0.514330 0.129935 0.600000
v -0.600000 0.129935 0.514330
v -0.514330 1.630065 0.600000
v -0.514330 1.755000 0.514330
v -0.600000 1.630065 0.514330
v -0.514330 0.005000 -0.514330
v -0.600000 0.129935 -0.514330
v -0.514330 0.129935 -0.600000
v -0.514330 1.755000 -0.514330
v -0.514330 1.630065 -0.600000
v -0.600000 1.630065 -0.514330
v 0.514330 0.005000 0.514330
v 0.600000 0.129935 0.514330
v 0.514330 0.129935 0.600000
v 0.514330 1.755000 0.514330
v 0.514330 1.630065 0.600000
v 0.600000 1.630065 0.514330
v 0.514330 0.005000 -0.514330
v 0.514330 0.129935 -0.600000
v 0.600000 0.129935 -0.514330
v 0.514330 1.755000 -0.514330
v 0.600000 1.630065 -0.514330
v 0.514330 1.630065 -0.600000
v -0.514330 0.005000 0.000000
v -0.600000 0.129935 0.000000
v -0.514330 1.755000 -0.000000
v -0.600000 1.630065 -0.000000
v 0.514330 0.005000 0.000000
v 0.600000 0.129935 0.000000
v 0.514330 1.755000 -0.000000
v 0.600000 1.630065 -0.000000
v 0.000000 0.005000 -0.514330
v 0.000000 0.129935 -0.600000
v 0.000000 1.755000 -0.514330
v 0.000000 1.630065 -0.600000
v 0.000000 0.005000 0.514330
v 0.000000 0.129935 0.600000
v 0.000000 1.755000 0.514330
v 0.000000 1.630065 0.600000
v 0.000000 2.192500 -0.000000
v 0.000000 0.005000 0.000000
v -0.514330 0.880000 0.600000
v -0.600000 0.880000 0.514330
v -0.514330 0.880000 -0.600000
v -0.600000 0.880000 -0.514330
v 0.600000 0.880000 -0.514330
v 0.514330 0.880000 -0.600000
v 0.514330 0.880000 0.600000
v 0.600000 0.880000 0.514330
v 0.780000 0.880000 0.000000
v -0.780000 0.880000 0.000000
v 0.000000 0.880000 -0.780000
v 0.000000 0.880000 0.780000
vn -0.6363 -0.4363 0.6363
vn -0.6363 0.4363 0.6363
vn -0.6363 -0.4363 -0.6363
vn -0.6363 0.4363 -0.6363
vn 0.6363 -0.4363 0.6363
vn 0.6363 0.4363 0.6363
vn 0.6363 -0.4363 -0.6363
vn 0.6363 0.4363 -0.6363
vn -0.8247 -0.5655 -0.0000
vn -0.7071 -0.0000 0.7071
vn -0.8247 0.5655 -0.0000
vn -0.7071 -0.0000 -0.7071
vn -0.0000 -0.5655 -0.8247
vn -0.0000 0.5655 -0.8247
vn 0.7071 -0.0000 -0.7071
vn 0.8247 -0.5655 -0.0000
vn 0.8247 0.5655 -0.0000
vn 0.7071 -0.0000 0.7071
vn -0.0000 -0.5655 0.8247
vn -0.0000 0.5655 0.8247
vn -0.0000 -1.0000 -0.0000
vn -0.9205 0.2209 -0.3222
vn -0.3222 0.2209 0.9205
vn -0.5438 0.6393 0.5438
vn 0.3222 0.2209 -0.9205
vn 0.9205 0.2209 0.3222
vn 0.9205 0.2209 -0.3222
vn -0.5438 0.6393 -0.5438
vn -0.9205 0.2209 0.3222
vn -0.0000 1.0000 -0.0000
vn -0.3222 0.2209 -0.9205
vn 0.3222 0.2209 0.9205
vn -0.0000 -0.0000 1.0000
vn -0.0000 -0.0000 -1.0000
vn -1.0000 -0.0000 -0.0000
vn 1.0000 -0.0000 -0.0000
vn 0.5438 0.6393 -0.5438
vn 0.5438 0.6393 0.5438
vn 0.3222 -0.2209 0.9205
vn -0.3222 -0.2209 -0.9205
vn -0.9205 -0.2209 0.3222
vn 0.9205 -0.2209 -0.3222
vn 0.9205 -0.2209 0.3222
vn 0.3222 -0.2209 -0.9205
vn -0.3222 -0.2209 0.9205
vn -0.9205 -0.2209 -0.3222
vt 0.142848 0.732152
vt 0.142848 0.750000
vt 0.125000 0.732152
vt 0.607152 0.000000
vt 0.625000 0.017848
vt 0.607152 0.017848
vt 0.142848 0.517848
vt 0.125000 0.517848
vt 0.142848 0.500000
vt 0.625000 0.244051
vt 0.607152 0.263386
vt 0.607152 0.232152
vt 0.357152 0.732152
vt 0.388386 0.732152
vt 0.375000 0.758924
vt 0.633924 0.750000
vt 0.607152 0.767848
vt 0.607152 0.736614
vt 0.357152 0.517848
vt 0.375000 0.491076
vt 0.388386 0.517848
vt 0.633924 0.500000
vt 0.607152 0.513386
vt 0.607152 0.482152
vt 0.125000 0.625000
vt 0.142848 0.625000
vt 0.500000 0.017848
vt 0.500000 0.000000
vt 0.607152 0.125000
vt 0.625000 0.130949
vt 0.392848 0.267848
vt 0.500000 0.232152
vt 0.500000 0.265617
vt 0.258924 0.495538
vt 0.250000 0.517848
vt 0.607152 0.372769
vt 0.629462 0.372025
vt 0.491076 0.486614
vt 0.497769 0.515617
vt 0.388386 0.625000
vt 0.357152 0.625000
vt 0.607152 0.625000
vt 0.633924 0.625000
vt 0.497769 0.734383
vt 0.491076 0.763386
vt 0.258924 0.754462
vt 0.250000 0.732152
vt 0.625000 0.982152
vt 0.607152 0.875000
vt 0.629462 0.866076
vt 0.250000 0.625000
vt 0.500000 0.125000
vt 0.500000 0.982152
vt 0.495538 0.872769
vt 0.857152 0.625000
vt 0.745538 0.741076
vt 0.745538 0.625000
vt 0.495538 0.376116
vt 0.497769 0.625000
vt 0.745538 0.508924
vt 0.383924 0.870538
vt 0.383924 0.379462
vt 0.392848 0.125000
vt 0.392848 0.017848
vt 0.392848 0.982152
vt 0.392848 0.232152
vt 0.392848 0.000000
vt 0.607152 0.982152
vt 0.857152 0.732152
vt 0.857152 0.517848
s 1
usemtl Material.003
f 1/1/1 2/2/1 3/3/1
f 4/4/2 5/5/2 6/6/2
f 7/7/3 8/8/3 9/9/3
f 10/10/4 11/11/4 12/12/4
f 13/13/5 14/14/5 15/15/5
f 16/16/6 17/17/6 18/18/6
f 19/19/7 20/20/7 21/21/7
f 22/22/8 23/23/8 24/24/8
f 1/1/9 26/25/9 25/26/9
f 4/4/10 44/27/10 43/28/10
f 10/10/11 28/29/11 27/30/11
f 9/31/12 46/32/12 45/33/12
f 7/7/13 34/34/13 33/35/13
f 22/22/14 36/36/14 35/37/14
f 21/21/15 48/38/15 47/39/15
f 19/19/16 30/40/16 29/41/16
f 16/16/17 32/42/17 31/43/17
f 15/15/18 50/44/18 49/45/18
f 13/13/19 38/46/19 37/47/19
f 5/48/20 40/49/20 39/50/20
f 29/41/21 37/47/21 42/51/21
f 28/29/22 46/32/22 52/52/22
f 40/49/23 43/53/23 54/54/23
f 27/55/24 39/56/24 41/57/24
f 36/36/25 48/38/25 53/58/25
f 32/42/26 50/44/26 51/59/26
f 47/39/27 32/42/27 51/59/27
f 35/60/28 27/55/28 41/57/28
f 44/27/29 28/29/29 52/52/29
f 19/19/21 42/51/21 33/35/21
f 31/43/17 23/23/17 22/22/17
f 29/41/16 14/14/16 13/13/16
f 27/30/11 6/6/11 5/5/11
f 25/26/9 8/8/9 7/7/9
f 33/35/21 25/26/21 7/7/21
f 35/60/30 31/43/30 22/22/30
f 45/33/31 36/36/31 53/58/31
f 31/43/30 39/56/30 16/16/30
f 49/45/32 40/49/32 54/54/32
f 42/51/21 1/1/21 25/26/21
f 39/50/20 17/17/20 16/16/20
f 37/47/19 2/2/19 1/1/19
f 35/37/14 11/11/14 10/10/14
f 33/35/13 20/20/13 19/19/13
f 49/45/33 38/61/33 15/15/33
f 45/33/34 34/62/34 9/31/34
f 44/27/35 26/63/35 3/64/35
f 47/39/36 30/40/36 21/21/36
f 30/40/36 50/44/36 14/14/36
f 34/62/34 48/38/34 20/20/34
f 38/61/33 43/53/33 2/65/33
f 26/63/35 46/32/35 8/66/35
f 49/45/18 18/18/18 17/17/18
f 47/39/15 24/24/15 23/23/15
f 45/33/12 12/12/12 11/11/12
f 43/28/10 3/64/10 2/67/10
f 1/1/9 3/3/9 26/25/9
f 4/4/10 6/6/10 44/27/10
f 10/10/11 12/12/11 28/29/11
f 9/31/12 8/66/12 46/32/12
f 7/7/13 9/9/13 34/34/13
f 22/22/14 24/24/14 36/36/14
f 21/21/15 20/20/15 48/38/15
f 19/19/16 21/21/16 30/40/16
f 16/16/17 18/18/17 32/42/17
f 15/15/18 14/14/18 50/44/18
f 13/13/19 15/15/19 38/46/19
f 5/48/20 4/68/20 40/49/20
f 29/41/21 13/13/21 37/47/21
f 28/29/35 12/12/35 46/32/35
f 40/49/33 4/68/33 43/53/33
f 27/55/30 5/69/30 39/56/30
f 36/36/34 24/24/34 48/38/34
f 32/42/36 18/18/36 50/44/36
f 47/39/36 23/23/36 32/42/36
f 35/60/30 10/70/30 27/55/30
f 44/27/35 6/6/35 28/29/35
f 19/19/21 29/41/21 42/51/21
f 31/43/17 32/42/17 23/23/17
f 29/41/16 30/40/16 14/14/16
f 27/30/11 28/29/11 6/6/11
f 25/26/9 26/25/9 8/8/9
f 33/35/21 42/51/21 25/26/21
f 35/60/37 41/57/37 31/43/37
f 45/33/34 11/11/34 36/36/34
f 31/43/38 41/57/38 39/56/38
f 49/45/33 17/17/33 40/49/33
f 42/51/21 37/47/21 1/1/21
f 39/50/20 40/49/20 17/17/20
f 37/47/19 38/46/19 2/2/19
f 35/37/14 36/36/14 11/11/14
f 33/35/13 34/34/13 20/20/13
f 49/45/39 54/54/39 38/61/39
f 45/33/40 53/58/40 34/62/40
f 44/27/41 52/52/41 26/63/41
f 47/39/42 51/59/42 30/40/42
f 30/40/43 51/59/43 50/44/43
f 34/62/44 53/58/44 48/38/44
f 38/61/45 54/54/45 43/53/45
f 26/63/46 52/52/46 46/32/46
f 49/45/18 50/44/18 18/18/18
f 47/39/15 48/38/15 24/24/15
f 45/33/12 46/32/12 12/12/12
f 43/28/10 44/27/10 3/64/10
