# Blender 5.0.1
# www.blender.org
mtllib block.mtl
o Untitled.001
v -1.000000 -2.000000 1.000000
v -1.000000 -2.000000 -1.000000
v -1.000000 -0.050000 1.000000
v -1.000000 -0.050000 -1.000000
v -1.000000 0.000000 1.000000
v -1.000000 -0.000000 -1.000000
v 1.000000 -2.000000 1.000000
v 1.000000 -2.000000 -1.000000
v 1.000000 -0.050000 1.000000
v 1.000000 -0.050000 -1.000000
v 1.000000 0.000000 1.000000
v 1.000000 -0.000000 -1.000000
v -1.000000 -2.000000 1.000000
v -1.000000 -0.050000 1.000000
v -1.000000 0.000000 1.000000
v 1.000000 -2.000000 1.000000
v 1.000000 -0.050000 1.000000
v 1.000000 0.000000 1.000000
v -1.000000 -2.000000 -1.000000
v -1.000000 -0.050000 -1.000000
v -1.000000 -0.000000 -1.000000
v 1.000000 -2.000000 -1.000000
v 1.000000 -0.050000 -1.000000
v 1.000000 -0.000000 -1.000000
v -1.000000 -2.000000 1.000000
v 1.000000 -2.000000 1.000000
v -1.000000 -2.000000 -1.000000
v 1.000000 -2.000000 -1.000000
v -1.000000 0.000000 1.000000
v 1.000000 0.000000 1.000000
v -0.950000 0.000000 0.950000
v 0.950000 0.000000 0.950000
v -0.900000 0.000000 0.900000
v -0.700000 0.000000 0.900000
v 0.700000 0.000000 0.900000
v 0.900000 0.000000 0.900000
v -0.850000 0.000000 0.850000
v -0.700000 0.000000 0.850000
v 0.700000 0.000000 0.850000
v 0.850000 0.000000 0.850000
v -0.900000 0.000000 0.700000
v -0.850000 0.000000 0.700000
v 0.850000 0.000000 0.700000
v 0.900000 0.000000 0.700000
v -0.900000 0.000000 -0.700000
v -0.850000 0.000000 -0.700000
v 0.850000 0.000000 -0.700000
v 0.900000 0.000000 -0.700000
v -0.850000 -0.000000 -0.850000
v -0.700000 -0.000000 -0.850000
v 0.700000 -0.000000 -0.850000
v 0.850000 -0.000000 -0.850000
v -0.900000 -0.000000 -0.900000
v -0.700000 -0.000000 -0.900000
v 0.700000 -0.000000 -0.900000
v 0.900000 -0.000000 -0.900000
v -0.950000 -0.000000 -0.950000
v 0.950000 -0.000000 -0.950000
v -1.000000 -0.000000 -1.000000
v 1.000000 -0.000000 -1.000000
vn -1.0000 -0.0000 -0.0000
vn 1.0000 -0.0000 -0.0000
vn -0.0000 -0.0000 1.0000
vn -0.0000 -0.0000 -1.0000
vn -0.0000 -1.0000 -0.0000
vn -0.0000 1.0000 -0.0000
vt 0.994141 0.500000
vt 0.962891 0.500000
s 1
usemtl palette.013
f 3/1/1 2/1/1 1/1/1
f 4/1/1 2/1/1 3/1/1
f 5/2/1 4/2/1 3/2/1
f 6/2/1 4/2/1 5/2/1
f 7/1/2 8/1/2 9/1/2
f 9/1/2 8/1/2 10/1/2
f 9/2/2 10/2/2 11/2/2
f 11/2/2 10/2/2 12/2/2
f 16/1/3 14/1/3 13/1/3
f 17/2/3 15/2/3 14/2/3
f 17/1/3 14/1/3 16/1/3
f 18/2/3 15/2/3 17/2/3
f 19/1/4 20/1/4 22/1/4
f 20/2/4 21/2/4 23/2/4
f 22/1/4 20/1/4 23/1/4
f 23/2/4 21/2/4 24/2/4
f 27/1/5 26/1/5 25/1/5
f 28/1/5 26/1/5 27/1/5
f 29/2/6 30/2/6 31/2/6
f 31/2/6 30/2/6 32/2/6
f 31/1/6 32/1/6 33/1/6
f 33/1/6 32/1/6 34/1/6
f 34/1/6 32/1/6 35/1/6
f 35/1/6 32/1/6 36/1/6
f 33/2/6 34/2/6 37/2/6
f 34/1/6 35/1/6 38/1/6
f 37/2/6 34/2/6 38/2/6
f 35/2/6 36/2/6 39/2/6
f 38/1/6 35/1/6 39/1/6
f 39/2/6 36/2/6 40/2/6
f 31/1/6 33/1/6 41/1/6
f 33/2/6 37/2/6 41/2/6
f 39/1/6 40/1/6 42/1/6
f 41/2/6 37/2/6 42/2/6
f 37/1/6 38/1/6 42/1/6
f 38/1/6 39/1/6 42/1/6
f 40/2/6 36/2/6 43/2/6
f 42/1/6 40/1/6 43/1/6
f 36/1/6 32/1/6 44/1/6
f 43/2/6 36/2/6 44/2/6
f 41/1/6 42/1/6 45/1/6
f 42/1/6 43/1/6 45/1/6
f 43/1/6 44/1/6 45/1/6
f 31/1/6 41/1/6 45/1/6
f 45/1/6 44/1/6 46/1/6
f 46/1/6 44/1/6 47/1/6
f 44/1/6 32/1/6 48/1/6
f 47/1/6 44/1/6 48/1/6
f 46/1/6 47/1/6 49/1/6
f 45/2/6 46/2/6 49/2/6
f 49/1/6 47/1/6 50/1/6
f 50/1/6 47/1/6 51/1/6
f 47/2/6 48/2/6 52/2/6
f 51/1/6 47/1/6 52/1/6
f 31/1/6 45/1/6 53/1/6
f 45/2/6 49/2/6 53/2/6
f 49/2/6 50/2/6 53/2/6
f 50/1/6 51/1/6 54/1/6
f 53/2/6 50/2/6 54/2/6
f 51/2/6 52/2/6 55/2/6
f 54/1/6 51/1/6 55/1/6
f 48/1/6 32/1/6 56/1/6
f 55/2/6 52/2/6 56/2/6
f 52/2/6 48/2/6 56/2/6
f 29/2/6 31/2/6 57/2/6
f 54/1/6 55/1/6 57/1/6
f 55/1/6 56/1/6 57/1/6
f 31/1/6 53/1/6 57/1/6
f 53/1/6 54/1/6 57/1/6
f 56/1/6 32/1/6 58/1/6
f 57/1/6 56/1/6 58/1/6
f 32/2/6 30/2/6 58/2/6
f 29/2/6 57/2/6 59/2/6
f 57/2/6 58/2/6 59/2/6
f 58/2/6 30/2/6 60/2/6
f 59/2/6 58/2/6 60/2/6
