# Blender 5.0.1
# www.blender.org
mtllib pause.mtl
o テキスト
v 2.421376 -0.247084 0.200000
v 2.421376 -0.413750 0.200000
v 1.671376 -0.413750 0.200000
v 1.671376 -0.330417 0.200000
v 1.588043 -0.330417 0.200000
v 1.588043 0.336250 0.200000
v 1.671376 0.336250 0.200000
v 1.671376 0.419583 0.200000
v 2.421376 0.419583 0.200000
v 2.421376 0.252916 0.200000
v 1.921376 0.252916 0.200000
v 1.921376 0.086250 0.200000
v 2.171376 0.086250 0.200000
v 2.171376 -0.080417 0.200000
v 1.921376 -0.080417 0.200000
v 1.921376 -0.247084 0.200000
v 1.421376 0.002916 0.200000
v 1.421376 -0.330417 0.200000
v 1.338043 -0.330417 0.200000
v 1.338043 -0.413750 0.200000
v 0.588043 -0.413750 0.200000
v 0.588043 -0.247084 0.200000
v 1.088043 -0.247084 0.200000
v 1.088043 -0.080417 0.200000
v 0.671376 -0.080417 0.200000
v 0.671376 0.002916 0.200000
v 0.588043 0.002916 0.200000
v 0.588043 0.336250 0.200000
v 0.671376 0.336250 0.200000
v 0.671376 0.419583 0.200000
v 1.421376 0.419583 0.200000
v 1.421376 0.252916 0.200000
v 0.921376 0.252916 0.200000
v 0.921376 0.086250 0.200000
v 1.338043 0.086250 0.200000
v 1.338043 0.002916 0.200000
v 0.421376 0.419583 0.200000
v 0.421376 -0.330417 0.200000
v 0.338043 -0.330417 0.200000
v 0.338043 -0.413750 0.200000
v -0.328624 -0.413750 0.200000
v -0.328624 -0.330417 0.200000
v -0.411957 -0.330417 0.200000
v -0.411957 0.419583 0.200000
v -0.078624 0.419583 0.200000
v -0.078624 -0.247084 0.200000
v 0.088043 -0.247084 0.200000
v 0.088043 0.419583 0.200000
v -0.578624 0.336250 0.200000
v -0.578624 -0.413750 0.200000
v -0.911957 -0.413750 0.200000
v -0.911957 -0.080417 0.200000
v -1.078624 -0.080417 0.200000
v -1.078624 -0.413750 0.200000
v -1.411957 -0.413750 0.200000
v -1.411957 0.336250 0.200000
v -1.328624 0.336250 0.200000
v -1.328624 0.419583 0.200000
v -0.661957 0.419583 0.200000
v -0.661957 0.336250 0.200000
v -1.078624 0.086250 0.200000
v -0.911957 0.086250 0.200000
v -0.911957 0.252916 0.200000
v -1.078624 0.252916 0.200000
v -1.578624 0.336250 0.200000
v -1.578624 0.002916 0.200000
v -1.661957 0.002916 0.200000
v -1.661957 -0.080417 0.200000
v -2.078624 -0.080417 0.200000
v -2.078624 -0.413750 0.200000
v -2.411957 -0.413750 0.200000
v -2.411957 0.419583 0.200000
v -1.661957 0.419583 0.200000
v -1.661957 0.336250 0.200000
v -2.078624 0.086250 0.200000
v -1.911957 0.086250 0.200000
v -1.911957 0.252916 0.200000
v -2.078624 0.252916 0.200000
v 2.421376 -0.247084 -0.200000
v 2.421376 -0.413750 -0.200000
v 1.671376 -0.413750 -0.200000
v 1.671376 -0.330417 -0.200000
v 1.588043 -0.330417 -0.200000
v 1.588043 0.336250 -0.200000
v 1.671376 0.336250 -0.200000
v 1.671376 0.419583 -0.200000
v 2.421376 0.419583 -0.200000
v 2.421376 0.252916 -0.200000
v 1.921376 0.252916 -0.200000
v 1.921376 0.086250 -0.200000
v 2.171376 0.086250 -0.200000
v 2.171376 -0.080417 -0.200000
v 1.921376 -0.080417 -0.200000
v 1.921376 -0.247084 -0.200000
v 1.421376 0.002916 -0.200000
v 1.421376 -0.330417 -0.200000
v 1.338043 -0.330417 -0.200000
v 1.338043 -0.413750 -0.200000
v 0.588043 -0.413750 -0.200000
v 0.588043 -0.247084 -0.200000
v 1.088043 -0.247084 -0.200000
v 1.088043 -0.080417 -0.200000
v 0.671376 -0.080417 -0.200000
v 0.671376 0.002916 -0.200000
v 0.588043 0.002916 -0.200000
v 0.588043 0.336250 -0.200000
v 0.671376 0.336250 -0.200000
v 0.671376 0.419583 -0.200000
v 1.421376 0.419583 -0.200000
v 1.421376 0.252916 -0.200000
v 0.921376 0.252916 -0.200000
v 0.921376 0.086250 -0.200000
v 1.338043 0.086250 -0.200000
v 1.338043 0.002916 -0.200000
v 0.421376 0.419583 -0.200000
v 0.421376 -0.330417 -0.200000
v 0.338043 -0.330417 -0.200000
v 0.338043 -0.413750 -0.200000
v -0.328624 -0.413750 -0.200000
v -0.328624 -0.330417 -0.200000
v -0.411957 -0.330417 -0.200000
v -0.411957 0.419583 -0.200000
v -0.078624 0.419583 -0.200000
v -0.078624 -0.247084 -0.200000
v 0.088043 -0.247084 -0.200000
v 0.088043 0.419583 -0.200000
v -0.578624 0.336250 -0.200000
v -0.578624 -0.413750 -0.200000
v -0.911957 -0.413750 -0.200000
v -0.911957 -0.080417 -0.200000
v -1.078624 -0.080417 -0.200000
v -1.078624 -0.413750 -0.200000
v -1.411957 -0.413750 -0.200000
v -1.411957 0.336250 -0.200000
v -1.328624 0.336250 -0.200000
v -1.328624 0.419583 -0.200000
v -0.661957 0.419583 -0.200000
v -0.661957 0.336250 -0.200000
v -1.078624 0.086250 -0.200000
v -0.911957 0.086250 -0.200000
v -0.911957 0.252916 -0.200000
v -1.078624 0.252916 -0.200000
v -1.578624 0.336250 -0.200000
v -1.578624 0.002916 -0.200000
v -1.661957 0.002916 -0.200000
v -1.661957 -0.080417 -0.200000
v -2.078624 -0.080417 -0.200000
v -2.078624 -0.413750 -0.200000
v -2.411957 -0.413750 -0.200000
v -2.411957 0.419583 -0.200000
v -1.661957 0.419583 -0.200000
v -1.661957 0.336250 -0.200000
v -2.078624 0.086250 -0.200000
v -1.911957 0.086250 -0.200000
v -1.911957 0.252916 -0.200000
v -2.078624 0.252916 -0.200000
v -1.578624 0.336250 -0.200000
v -1.578624 0.336250 0.200000
v -1.578624 0.002916 -0.200000
v -1.578624 0.002916 0.200000
v -1.661957 0.002916 -0.200000
v -1.661957 0.002916 0.200000
v -1.661957 -0.080417 -0.200000
v -1.661957 -0.080417 0.200000
v -2.078624 -0.080417 -0.200000
v -2.078624 -0.080417 0.200000
v -2.078624 -0.413750 -0.200000
v -2.078624 -0.413750 0.200000
v -2.411957 -0.413750 -0.200000
v -2.411957 -0.413750 0.200000
v -2.411957 0.419583 -0.200000
v -2.411957 0.419583 0.200000
v -1.661957 0.419583 -0.200000
v -1.661957 0.419583 0.200000
v -1.661957 0.336250 -0.200000
v -1.661957 0.336250 0.200000
v -2.078624 0.086250 -0.200000
v -2.078624 0.086250 0.200000
v -1.911957 0.086250 -0.200000
v -1.911957 0.086250 0.200000
v -1.911957 0.252916 -0.200000
v -1.911957 0.252916 0.200000
v -2.078624 0.252916 -0.200000
v -2.078624 0.252916 0.200000
v -0.578624 0.336250 -0.200000
v -0.578624 0.336250 0.200000
v -0.578624 -0.413750 -0.200000
v -0.578624 -0.413750 0.200000
v -0.911957 -0.413750 -0.200000
v -0.911957 -0.413750 0.200000
v -0.911957 -0.080417 -0.200000
v -0.911957 -0.080417 0.200000
v -1.078624 -0.080417 -0.200000
v -1.078624 -0.080417 0.200000
v -1.078624 -0.413750 -0.200000
v -1.078624 -0.413750 0.200000
v -1.411957 -0.413750 -0.200000
v -1.411957 -0.413750 0.200000
v -1.411957 0.336250 -0.200000
v -1.411957 0.336250 0.200000
v -1.328624 0.336250 -0.200000
v -1.328624 0.336250 0.200000
v -1.328624 0.419583 -0.200000
v -1.328624 0.419583 0.200000
v -0.661957 0.419583 -0.200000
v -0.661957 0.419583 0.200000
v -0.661957 0.336250 -0.200000
v -0.661957 0.336250 0.200000
v -1.078624 0.086250 -0.200000
v -1.078624 0.086250 0.200000
v -0.911957 0.086250 -0.200000
v -0.911957 0.086250 0.200000
v -0.911957 0.252916 -0.200000
v -0.911957 0.252916 0.200000
v -1.078624 0.252916 -0.200000
v -1.078624 0.252916 0.200000
v 0.421376 0.419583 -0.200000
v 0.421376 0.419583 0.200000
v 0.421376 -0.330417 -0.200000
v 0.421376 -0.330417 0.200000
v 0.338043 -0.330417 -0.200000
v 0.338043 -0.330417 0.200000
v 0.338043 -0.413750 -0.200000
v 0.338043 -0.413750 0.200000
v -0.328624 -0.413750 -0.200000
v -0.328624 -0.413750 0.200000
v -0.328624 -0.330417 -0.200000
v -0.328624 -0.330417 0.200000
v -0.411957 -0.330417 -0.200000
v -0.411957 -0.330417 0.200000
v -0.411957 0.419583 -0.200000
v -0.411957 0.419583 0.200000
v -0.078624 0.419583 -0.200000
v -0.078624 0.419583 0.200000
v -0.078624 -0.247084 -0.200000
v -0.078624 -0.247084 0.200000
v 0.088043 -0.247084 -0.200000
v 0.088043 -0.247084 0.200000
v 0.088043 0.419583 -0.200000
v 0.088043 0.419583 0.200000
v 1.421376 0.002916 -0.200000
v 1.421376 0.002916 0.200000
v 1.421376 -0.330417 -0.200000
v 1.421376 -0.330417 0.200000
v 1.338043 -0.330417 -0.200000
v 1.338043 -0.330417 0.200000
v 1.338043 -0.413750 -0.200000
v 1.338043 -0.413750 0.200000
v 0.588043 -0.413750 -0.200000
v 0.588043 -0.413750 0.200000
v 0.588043 -0.247084 -0.200000
v 0.588043 -0.247084 0.200000
v 1.088043 -0.247084 -0.200000
v 1.088043 -0.247084 0.200000
v 1.088043 -0.080417 -0.200000
v 1.088043 -0.080417 0.200000
v 0.671376 -0.080417 -0.200000
v 0.671376 -0.080417 0.200000
v 0.671376 0.002916 -0.200000
v 0.671376 0.002916 0.200000
v 0.588043 0.002916 -0.200000
v 0.588043 0.002916 0.200000
v 0.588043 0.336250 -0.200000
v 0.588043 0.336250 0.200000
v 0.671376 0.336250 -0.200000
v 0.671376 0.336250 0.200000
v 0.671376 0.419583 -0.200000
v 0.671376 0.419583 0.200000
v 1.421376 0.419583 -0.200000
v 1.421376 0.419583 0.200000
v 1.421376 0.252916 -0.200000
v 1.421376 0.252916 0.200000
v 0.921376 0.252916 -0.200000
v 0.921376 0.252916 0.200000
v 0.921376 0.086250 -0.200000
v 0.921376 0.086250 0.200000
v 1.338043 0.086250 -0.200000
v 1.338043 0.086250 0.200000
v 1.338043 0.002916 -0.200000
v 1.338043 0.002916 0.200000
v 2.421376 -0.247084 -0.200000
v 2.421376 -0.247084 0.200000
v 2.421376 -0.413750 -0.200000
v 2.421376 -0.413750 0.200000
v 1.671376 -0.413750 -0.200000
v 1.671376 -0.413750 0.200000
v 1.671376 -0.330417 -0.200000
v 1.671376 -0.330417 0.200000
v 1.588043 -0.330417 -0.200000
v 1.588043 -0.330417 0.200000
v 1.588043 0.336250 -0.200000
v 1.588043 0.336250 0.200000
v 1.671376 0.336250 -0.200000
v 1.671376 0.336250 0.200000
v 1.671376 0.419583 -0.200000
v 1.671376 0.419583 0.200000
v 2.421376 0.419583 -0.200000
v 2.421376 0.419583 0.200000
v 2.421376 0.252916 -0.200000
v 2.421376 0.252916 0.200000
v 1.921376 0.252916 -0.200000
v 1.921376 0.252916 0.200000
v 1.921376 0.086250 -0.200000
v 1.921376 0.086250 0.200000
v 2.171376 0.086250 -0.200000
v 2.171376 0.086250 0.200000
v 2.171376 -0.080417 -0.200000
v 2.171376 -0.080417 0.200000
v 1.921376 -0.080417 -0.200000
v 1.921376 -0.080417 0.200000
v 1.921376 -0.247084 -0.200000
v 1.921376 -0.247084 0.200000
vn -0.0000 -0.0000 1.0000
vn -0.0000 -0.0000 -1.0000
vn 0.7071 -0.7071 -0.0000
vn 0.7071 0.7071 -0.0000
vn -0.7071 -0.7071 -0.0000
vn -0.7071 0.7071 -0.0000
vt 0.400000 0.000000
vt 0.533333 0.000000
vt 0.466667 0.000000
vt 0.600000 0.000000
vt 0.266667 0.000000
vt 0.333333 0.000000
vt 0.666667 0.000000
vt 0.733333 0.000000
vt 0.933333 0.000000
vt 0.800000 0.000000
vt 0.866667 0.000000
vt 1.000000 0.000000
vt 0.000000 0.000000
vt 0.200000 0.000000
vt 0.066667 0.000000
vt 0.133333 0.000000
vt 0.631579 0.000000
vt 0.736842 0.000000
vt 0.684211 0.000000
vt 0.789474 0.000000
vt 0.526316 0.000000
vt 0.578947 0.000000
vt 0.842105 0.000000
vt 0.894737 0.000000
vt 0.947368 0.000000
vt 0.473684 0.000000
vt 0.421053 0.000000
vt 0.368421 0.000000
vt 0.052632 0.000000
vt 0.315789 0.000000
vt 0.210526 0.000000
vt 0.263158 0.000000
vt 0.105263 0.000000
vt 0.157895 0.000000
vt 0.545455 0.000000
vt 0.727273 0.000000
vt 0.636364 0.000000
vt 0.818182 0.000000
vt 0.909091 0.000000
vt 0.090909 0.000000
vt 0.454545 0.000000
vt 0.363636 0.000000
vt 0.181818 0.000000
vt 0.272727 0.000000
vt 0.461538 0.000000
vt 0.538462 0.000000
vt 0.615385 0.000000
vt 0.692308 0.000000
vt 0.923077 0.000000
vt 0.076923 0.000000
vt 0.769231 0.000000
vt 0.846154 0.000000
vt 0.307692 0.000000
vt 0.153846 0.000000
vt 0.230769 0.000000
vt 0.384615 0.000000
vt 0.100000 1.000000
vt 0.000000 1.000000
vt 0.200000 1.000000
vt 0.100000 0.000000
vt 0.300000 1.000000
vt 0.400000 1.000000
vt 0.300000 0.000000
vt 0.500000 1.000000
vt 0.600000 1.000000
vt 0.500000 0.000000
vt 0.700000 1.000000
vt 0.800000 1.000000
vt 0.700000 0.000000
vt 0.900000 1.000000
vt 1.000000 1.000000
vt 0.900000 0.000000
vt 0.250000 1.000000
vt 0.250000 0.000000
vt 0.750000 1.000000
vt 0.750000 0.000000
vt 0.083333 1.000000
vt 0.166667 1.000000
vt 0.083333 0.000000
vt 0.166667 0.000000
vt 0.333333 1.000000
vt 0.416667 1.000000
vt 0.416667 0.000000
vt 0.583333 1.000000
vt 0.666667 1.000000
vt 0.583333 0.000000
vt 0.833333 1.000000
vt 0.916667 1.000000
vt 0.833333 0.000000
vt 0.916667 0.000000
vt 0.050000 1.000000
vt 0.050000 0.000000
vt 0.150000 1.000000
vt 0.150000 0.000000
vt 0.350000 1.000000
vt 0.350000 0.000000
vt 0.450000 1.000000
vt 0.450000 0.000000
vt 0.550000 1.000000
vt 0.550000 0.000000
vt 0.650000 1.000000
vt 0.650000 0.000000
vt 0.850000 1.000000
vt 0.850000 0.000000
vt 0.950000 1.000000
vt 0.950000 0.000000
vt 0.062500 1.000000
vt 0.125000 1.000000
vt 0.062500 0.000000
vt 0.187500 1.000000
vt 0.125000 0.000000
vt 0.187500 0.000000
vt 0.312500 1.000000
vt 0.375000 1.000000
vt 0.312500 0.000000
vt 0.437500 1.000000
vt 0.375000 0.000000
vt 0.437500 0.000000
vt 0.562500 1.000000
vt 0.625000 1.000000
vt 0.562500 0.000000
vt 0.687500 1.000000
vt 0.625000 0.000000
vt 0.687500 0.000000
vt 0.812500 1.000000
vt 0.875000 1.000000
vt 0.812500 0.000000
vt 0.937500 1.000000
vt 0.875000 0.000000
vt 0.937500 0.000000
s 0
usemtl マテリアル
f 7/1/1 9/2/1 8/3/1
f 7/1/1 10/4/1 9/2/1
f 5/5/1 7/1/1 6/6/1
f 5/5/1 11/7/1 7/1/1
f 11/7/1 10/4/1 7/1/1
f 5/5/1 12/8/1 11/7/1
f 5/5/1 15/9/1 12/8/1
f 15/9/1 13/10/1 12/8/1
f 15/9/1 14/11/1 13/10/1
f 5/5/1 16/12/1 15/9/1
f 5/5/1 1/13/1 16/12/1
f 5/5/1 4/14/1 1/13/1
f 4/14/1 2/15/1 1/13/1
f 3/16/1 2/15/1 4/14/1
f 29/17/1 31/18/1 30/19/1
f 29/17/1 32/20/1 31/18/1
f 27/21/1 29/17/1 28/22/1
f 27/21/1 33/23/1 29/17/1
f 33/23/1 32/20/1 29/17/1
f 27/21/1 34/24/1 33/23/1
f 27/21/1 35/25/1 34/24/1
f 27/21/1 36/12/1 35/25/1
f 26/26/1 36/12/1 27/21/1
f 25/27/1 36/12/1 26/26/1
f 25/27/1 17/13/1 36/12/1
f 25/27/1 24/28/1 17/13/1
f 24/28/1 18/29/1 17/13/1
f 23/30/1 18/29/1 24/28/1
f 21/31/1 23/30/1 22/32/1
f 21/31/1 19/33/1 23/30/1
f 19/33/1 18/29/1 23/30/1
f 21/31/1 20/34/1 19/33/1
f 43/35/1 45/36/1 44/37/1
f 43/35/1 46/38/1 45/36/1
f 47/39/1 37/13/1 48/12/1
f 47/39/1 38/40/1 37/13/1
f 43/35/1 47/39/1 46/38/1
f 43/35/1 38/40/1 47/39/1
f 42/41/1 38/40/1 43/35/1
f 41/42/1 39/43/1 42/41/1
f 39/43/1 38/40/1 42/41/1
f 41/42/1 40/44/1 39/43/1
f 57/2/1 59/7/1 58/4/1
f 57/2/1 60/8/1 59/7/1
f 55/1/1 57/2/1 56/3/1
f 55/1/1 64/12/1 57/2/1
f 64/12/1 60/8/1 57/2/1
f 64/12/1 49/13/1 60/8/1
f 64/12/1 63/9/1 49/13/1
f 63/9/1 50/15/1 49/13/1
f 55/1/1 61/10/1 64/12/1
f 62/11/1 50/15/1 63/9/1
f 55/1/1 62/11/1 61/10/1
f 55/1/1 53/5/1 62/11/1
f 53/5/1 52/14/1 62/11/1
f 52/14/1 50/15/1 62/11/1
f 55/1/1 54/6/1 53/5/1
f 51/16/1 50/15/1 52/14/1
f 71/45/1 78/12/1 72/46/1
f 78/12/1 73/47/1 72/46/1
f 78/12/1 74/48/1 73/47/1
f 78/12/1 65/13/1 74/48/1
f 78/12/1 77/49/1 65/13/1
f 77/49/1 66/50/1 65/13/1
f 71/45/1 75/51/1 78/12/1
f 76/52/1 66/50/1 77/49/1
f 71/45/1 69/53/1 75/51/1
f 69/53/1 76/52/1 75/51/1
f 69/53/1 67/54/1 76/52/1
f 67/54/1 66/50/1 76/52/1
f 69/53/1 68/55/1 67/54/1
f 71/45/1 70/56/1 69/53/1
f 85/1/2 86/3/2 87/2/2
f 85/1/2 87/2/2 88/4/2
f 83/5/2 84/6/2 85/1/2
f 83/5/2 85/1/2 89/7/2
f 89/7/2 85/1/2 88/4/2
f 83/5/2 89/7/2 90/8/2
f 83/5/2 90/8/2 93/9/2
f 93/9/2 90/8/2 91/10/2
f 93/9/2 91/10/2 92/11/2
f 83/5/2 93/9/2 94/12/2
f 83/5/2 94/12/2 79/13/2
f 83/5/2 79/13/2 82/14/2
f 82/14/2 79/13/2 80/15/2
f 81/16/2 82/14/2 80/15/2
f 107/17/2 108/19/2 109/18/2
f 107/17/2 109/18/2 110/20/2
f 105/21/2 106/22/2 107/17/2
f 105/21/2 107/17/2 111/23/2
f 111/23/2 107/17/2 110/20/2
f 105/21/2 111/23/2 112/24/2
f 105/21/2 112/24/2 113/25/2
f 105/21/2 113/25/2 114/12/2
f 104/26/1 105/21/1 114/12/1
f 103/27/2 104/26/2 114/12/2
f 103/27/2 114/12/2 95/13/2
f 103/27/2 95/13/2 102/28/2
f 102/28/2 95/13/2 96/29/2
f 101/30/2 102/28/2 96/29/2
f 99/31/2 100/32/2 101/30/2
f 99/31/2 101/30/2 97/33/2
f 97/33/2 101/30/2 96/29/2
f 99/31/2 97/33/2 98/34/2
f 121/35/2 122/37/2 123/36/2
f 121/35/2 123/36/2 124/38/2
f 125/39/2 126/12/2 115/13/2
f 125/39/2 115/13/2 116/40/2
f 121/35/2 124/38/2 125/39/2
f 121/35/2 125/39/2 116/40/2
f 120/41/1 121/35/1 116/40/1
f 119/42/2 120/41/2 117/43/2
f 117/43/1 120/41/1 116/40/1
f 119/42/2 117/43/2 118/44/2
f 135/2/2 136/4/2 137/7/2
f 135/2/2 137/7/2 138/8/2
f 133/1/2 134/3/2 135/2/2
f 133/1/2 135/2/2 142/12/2
f 142/12/2 135/2/2 138/8/2
f 142/12/2 138/8/2 127/13/2
f 142/12/2 127/13/2 141/9/2
f 141/9/2 127/13/2 128/15/2
f 133/1/2 142/12/2 139/10/2
f 140/11/2 141/9/2 128/15/2
f 133/1/2 139/10/2 140/11/2
f 133/1/1 140/11/1 131/5/1
f 131/5/2 140/11/2 130/14/2
f 130/14/2 140/11/2 128/15/2
f 133/1/2 131/5/2 132/6/2
f 129/16/2 130/14/2 128/15/2
f 149/45/2 150/46/2 156/12/2
f 156/12/2 150/46/2 151/47/2
f 156/12/2 151/47/2 152/48/2
f 156/12/2 152/48/2 143/13/2
f 156/12/2 143/13/2 155/49/2
f 155/49/2 143/13/2 144/50/2
f 149/45/2 156/12/2 153/51/2
f 154/52/2 155/49/2 144/50/2
f 149/45/2 153/51/2 147/53/2
f 147/53/2 153/51/2 154/52/2
f 147/53/2 154/52/2 145/54/2
f 145/54/2 154/52/2 144/50/2
f 147/53/2 145/54/2 146/55/2
f 149/45/2 147/53/2 148/56/2
s 1
f 160/57/3 157/13/4 158/58/4
f 162/59/3 159/60/3 160/57/3
f 164/61/3 161/14/3 162/59/3
f 166/62/3 163/63/3 164/61/3
f 168/64/3 165/1/3 166/62/3
f 170/65/5 167/66/3 168/64/3
f 172/67/6 169/4/5 170/65/5
f 174/68/4 171/69/6 172/67/6
f 176/70/4 173/10/4 174/68/4
f 158/71/4 175/72/4 176/70/4
f 180/73/6 177/13/4 178/58/4
f 182/64/5 179/74/6 180/73/6
f 184/75/3 181/66/5 182/64/5
f 178/71/4 183/76/3 184/75/3
f 188/77/3 185/13/4 186/58/4
f 190/78/5 187/79/3 188/77/3
f 192/73/5 189/80/5 190/78/5
f 194/81/3 191/74/5 192/73/5
f 196/82/3 193/6/3 194/81/3
f 198/64/5 195/83/3 196/82/3
f 200/84/6 197/66/5 198/64/5
f 202/85/6 199/86/6 200/84/6
f 204/75/6 201/7/6 202/85/6
f 206/87/4 203/76/6 204/75/6
f 208/88/4 205/89/4 206/87/4
f 186/71/4 207/90/4 208/88/4
f 212/73/6 209/13/4 210/58/4
f 214/64/5 211/74/6 212/73/6
f 216/75/3 213/66/5 214/64/5
f 210/71/4 215/76/3 216/75/3
f 220/77/3 217/13/4 218/58/4
f 222/78/3 219/79/3 220/77/3
f 224/73/3 221/80/3 222/78/3
f 226/81/5 223/74/3 224/73/3
f 228/82/5 225/6/5 226/81/5
f 230/64/5 227/83/5 228/82/5
f 232/84/6 229/66/5 230/64/5
f 234/85/4 231/86/6 232/84/6
f 236/75/4 233/7/4 234/85/4
f 238/87/6 235/76/4 236/75/4
f 240/88/6 237/89/6 238/87/6
f 218/71/4 239/90/6 240/88/6
f 244/91/3 241/13/4 242/58/4
f 246/57/3 243/92/3 244/91/3
f 248/93/3 245/60/3 246/57/3
f 250/59/5 247/94/3 248/93/3
f 252/73/6 249/14/5 250/59/5
f 254/61/6 251/74/6 252/73/6
f 256/95/5 253/63/6 254/61/6
f 258/62/5 255/96/5 256/95/5
f 260/97/5 257/1/5 258/62/5
f 262/64/5 259/98/5 260/97/5
f 264/99/6 261/66/5 262/64/5
f 266/65/6 263/100/6 264/99/6
f 268/101/6 265/4/6 266/65/6
f 270/67/4 267/102/6 268/101/6
f 272/75/3 269/69/4 270/67/4
f 274/68/3 271/76/3 272/75/3
f 276/103/4 273/10/3 274/68/3
f 278/70/4 275/104/4 276/103/4
f 280/105/4 277/72/4 278/70/4
f 242/71/4 279/106/4 280/105/4
f 284/107/3 281/13/4 282/58/4
f 286/108/5 283/109/3 284/107/3
f 288/110/5 285/111/5 286/108/5
f 290/73/5 287/112/5 288/110/5
f 292/113/6 289/74/5 290/73/5
f 294/114/6 291/115/6 292/113/6
f 296/116/6 293/117/6 294/114/6
f 298/64/4 295/118/6 296/116/6
f 300/119/3 297/66/4 298/64/4
f 302/120/3 299/121/3 300/119/3
f 304/122/4 301/123/3 302/120/3
f 306/75/4 303/124/4 304/122/4
f 308/125/3 305/76/4 306/75/4
f 310/126/3 307/127/3 308/125/3
f 312/128/4 309/129/3 310/126/3
f 282/71/4 311/130/4 312/128/4
f 160/57/3 159/60/3 157/13/4
f 162/59/3 161/14/3 159/60/3
f 164/61/3 163/63/3 161/14/3
f 166/62/3 165/1/3 163/63/3
f 168/64/3 167/66/3 165/1/3
f 170/65/5 169/4/5 167/66/3
f 172/67/6 171/69/6 169/4/5
f 174/68/4 173/10/4 171/69/6
f 176/70/4 175/72/4 173/10/4
f 158/71/4 157/12/4 175/72/4
f 180/73/6 179/74/6 177/13/4
f 182/64/5 181/66/5 179/74/6
f 184/75/3 183/76/3 181/66/5
f 178/71/4 177/12/4 183/76/3
f 188/77/3 187/79/3 185/13/4
f 190/78/5 189/80/5 187/79/3
f 192/73/5 191/74/5 189/80/5
f 194/81/3 193/6/3 191/74/5
f 196/82/3 195/83/3 193/6/3
f 198/64/5 197/66/5 195/83/3
f 200/84/6 199/86/6 197/66/5
f 202/85/6 201/7/6 199/86/6
f 204/75/6 203/76/6 201/7/6
f 206/87/4 205/89/4 203/76/6
f 208/88/4 207/90/4 205/89/4
f 186/71/4 185/12/4 207/90/4
f 212/73/6 211/74/6 209/13/4
f 214/64/5 213/66/5 211/74/6
f 216/75/3 215/76/3 213/66/5
f 210/71/4 209/12/4 215/76/3
f 220/77/3 219/79/3 217/13/4
f 222/78/3 221/80/3 219/79/3
f 224/73/3 223/74/3 221/80/3
f 226/81/5 225/6/5 223/74/3
f 228/82/5 227/83/5 225/6/5
f 230/64/5 229/66/5 227/83/5
f 232/84/6 231/86/6 229/66/5
f 234/85/4 233/7/4 231/86/6
f 236/75/4 235/76/4 233/7/4
f 238/87/6 237/89/6 235/76/4
f 240/88/6 239/90/6 237/89/6
f 218/71/4 217/12/4 239/90/6
f 244/91/3 243/92/3 241/13/4
f 246/57/3 245/60/3 243/92/3
f 248/93/3 247/94/3 245/60/3
f 250/59/5 249/14/5 247/94/3
f 252/73/6 251/74/6 249/14/5
f 254/61/6 253/63/6 251/74/6
f 256/95/5 255/96/5 253/63/6
f 258/62/5 257/1/5 255/96/5
f 260/97/5 259/98/5 257/1/5
f 262/64/5 261/66/5 259/98/5
f 264/99/6 263/100/6 261/66/5
f 266/65/6 265/4/6 263/100/6
f 268/101/6 267/102/6 265/4/6
f 270/67/4 269/69/4 267/102/6
f 272/75/3 271/76/3 269/69/4
f 274/68/3 273/10/3 271/76/3
f 276/103/4 275/104/4 273/10/3
f 278/70/4 277/72/4 275/104/4
f 280/105/4 279/106/4 277/72/4
f 242/71/4 241/12/4 279/106/4
f 284/107/3 283/109/3 281/13/4
f 286/108/5 285/111/5 283/109/3
f 288/110/5 287/112/5 285/111/5
f 290/73/5 289/74/5 287/112/5
f 292/113/6 291/115/6 289/74/5
f 294/114/6 293/117/6 291/115/6
f 296/116/6 295/118/6 293/117/6
f 298/64/4 297/66/4 295/118/6
f 300/119/3 299/121/3 297/66/4
f 302/120/3 301/123/3 299/121/3
f 304/122/4 303/124/4 301/123/3
f 306/75/4 305/76/4 303/124/4
f 308/125/3 307/127/3 305/76/4
f 310/126/3 309/129/3 307/127/3
f 312/128/4 311/130/4 309/129/3
f 282/71/4 281/12/4 311/130/4
