# Blender 5.0.1
# www.blender.org
mtllib title.mtl
o テキスト
v 13.000000 2.400000 0.700000
v 13.000000 -3.000000 0.700000
v 11.631580 -3.000000 0.700000
v 11.631580 1.800000 0.700000
v 10.947369 1.800000 0.700000
v 10.947369 -3.000000 0.700000
v 9.578945 -3.000000 0.700000
v 9.578945 1.800000 0.700000
v 8.894737 1.800000 0.700000
v 8.894737 -3.000000 0.700000
v 7.526314 -3.000000 0.700000
v 7.526314 3.000000 0.700000
v 12.657894 3.000000 0.700000
v 12.657894 2.400000 0.700000
v 6.842106 2.400000 0.700000
v 6.842106 -2.400000 0.700000
v 6.500000 -2.400000 0.700000
v 6.500000 -3.000000 0.700000
v 3.763157 -3.000000 0.700000
v 3.763157 -2.400000 0.700000
v 3.421053 -2.400000 0.700000
v 3.421053 2.400000 0.700000
v 3.763157 2.400000 0.700000
v 3.763157 3.000000 0.700000
v 6.500000 3.000000 0.700000
v 6.500000 2.400000 0.700000
v 4.789473 -1.800000 0.700000
v 5.473684 -1.800000 0.700000
v 5.473684 1.800000 0.700000
v 4.789473 1.800000 0.700000
v 2.736842 -0.600000 0.700000
v 2.736842 -2.400000 0.700000
v 2.394736 -2.400000 0.700000
v 2.394736 -3.000000 0.700000
v -0.684210 -3.000000 0.700000
v -0.684210 3.000000 0.700000
v 2.394736 3.000000 0.700000
v 2.394736 2.400000 0.700000
v 2.736842 2.400000 0.700000
v 2.736842 0.600000 0.700000
v 2.394736 0.600000 0.700000
v 2.394736 -0.600000 0.700000
v 0.684210 0.600000 0.700000
v 1.368421 0.600000 0.700000
v 1.368421 1.800000 0.700000
v 0.684210 1.800000 0.700000
v 0.684210 -1.800000 0.700000
v 1.368421 -1.800000 0.700000
v 1.368421 -0.600000 0.700000
v 0.684210 -0.600000 0.700000
v -1.368421 3.000000 0.700000
v -1.368421 -2.400000 0.700000
v -1.710527 -2.400000 0.700000
v -1.710527 -3.000000 0.700000
v -4.447369 -3.000000 0.700000
v -4.447369 -2.400000 0.700000
v -4.789474 -2.400000 0.700000
v -4.789474 3.000000 0.700000
v -3.421053 3.000000 0.700000
v -3.421053 -1.800000 0.700000
v -2.736843 -1.800000 0.700000
v -2.736843 3.000000 0.700000
v -5.473684 -1.800000 0.700000
v -5.473684 -3.000000 0.700000
v -8.894737 -3.000000 0.700000
v -8.894737 3.000000 0.700000
v -7.526316 3.000000 0.700000
v -7.526316 -1.800000 0.700000
v -9.578947 -1.800000 0.700000
v -9.578947 -3.000000 0.700000
v -12.657895 -3.000000 0.700000
v -12.657895 -2.400000 0.700000
v -13.000000 -2.400000 0.700000
v -13.000000 2.400000 0.700000
v -12.657895 2.400000 0.700000
v -12.657895 3.000000 0.700000
v -9.578947 3.000000 0.700000
v -9.578947 1.800000 0.700000
v -11.631578 1.800000 0.700000
v -11.631578 -1.800000 0.700000
v 13.000000 2.400000 -0.700000
v 13.000000 -3.000000 -0.700000
v 11.631580 -3.000000 -0.700000
v 11.631580 1.800000 -0.700000
v 10.947369 1.800000 -0.700000
v 10.947369 -3.000000 -0.700000
v 9.578945 -3.000000 -0.700000
v 9.578945 1.800000 -0.700000
v 8.894737 1.800000 -0.700000
v 8.894737 -3.000000 -0.700000
v 7.526314 -3.000000 -0.700000
v 7.526314 3.000000 -0.700000
v 12.657894 3.000000 -0.700000
v 12.657894 2.400000 -0.700000
v 6.842106 2.400000 -0.700000
v 6.842106 -2.400000 -0.700000
v 6.500000 -2.400000 -0.700000
v 6.500000 -3.000000 -0.700000
v 3.763157 -3.000000 -0.700000
v 3.763157 -2.400000 -0.700000
v 3.421053 -2.400000 -0.700000
v 3.421053 2.400000 -0.700000
v 3.763157 2.400000 -0.700000
v 3.763157 3.000000 -0.700000
v 6.500000 3.000000 -0.700000
v 6.500000 2.400000 -0.700000
v 4.789473 -1.800000 -0.700000
v 5.473684 -1.800000 -0.700000
v 5.473684 1.800000 -0.700000
v 4.789473 1.800000 -0.700000
v 2.736842 -0.600000 -0.700000
v 2.736842 -2.400000 -0.700000
v 2.394736 -2.400000 -0.700000
v 2.394736 -3.000000 -0.700000
v -0.684210 -3.000000 -0.700000
v -0.684210 3.000000 -0.700000
v 2.394736 3.000000 -0.700000
v 2.394736 2.400000 -0.700000
v 2.736842 2.400000 -0.700000
v 2.736842 0.600000 -0.700000
v 2.394736 0.600000 -0.700000
v 2.394736 -0.600000 -0.700000
v 0.684210 0.600000 -0.700000
v 1.368421 0.600000 -0.700000
v 1.368421 1.800000 -0.700000
v 0.684210 1.800000 -0.700000
v 0.684210 -1.800000 -0.700000
v 1.368421 -1.800000 -0.700000
v 1.368421 -0.600000 -0.700000
v 0.684210 -0.600000 -0.700000
v -1.368421 3.000000 -0.700000
v -1.368421 -2.400000 -0.700000
v -1.710527 -2.400000 -0.700000
v -1.710527 -3.000000 -0.700000
v -4.447369 -3.000000 -0.700000
v -4.447369 -2.400000 -0.700000
v -4.789474 -2.400000 -0.700000
v -4.789474 3.000000 -0.700000
v -3.421053 3.000000 -0.700000
v -3.421053 -1.800000 -0.700000
v -2.736843 -1.800000 -0.700000
v -2.736843 3.000000 -0.700000
v -5.473684 -1.800000 -0.700000
v -5.473684 -3.000000 -0.700000
v -8.894737 -3.000000 -0.700000
v -8.894737 3.000000 -0.700000
v -7.526316 3.000000 -0.700000
v -7.526316 -1.800000 -0.700000
v -9.578947 -1.800000 -0.700000
v -9.578947 -3.000000 -0.700000
v -12.657895 -3.000000 -0.700000
v -12.657895 -2.400000 -0.700000
v -13.000000 -2.400000 -0.700000
v -13.000000 2.400000 -0.700000
v -12.657895 2.400000 -0.700000
v -12.657895 3.000000 -0.700000
v -9.578947 3.000000 -0.700000
v -9.578947 1.800000 -0.700000
v -11.631578 1.800000 -0.700000
v -11.631578 -1.800000 -0.700000
v -9.578947 -1.800000 -0.700000
v -9.578947 -1.800000 0.700000
v -9.578947 -3.000000 -0.700000
v -9.578947 -3.000000 0.700000
v -12.657895 -3.000000 -0.700000
v -12.657895 -3.000000 0.700000
v -12.657895 -2.400000 -0.700000
v -12.657895 -2.400000 0.700000
v -13.000000 -2.400000 -0.700000
v -13.000000 -2.400000 0.700000
v -13.000000 2.400000 -0.700000
v -13.000000 2.400000 0.700000
v -12.657895 2.400000 -0.700000
v -12.657895 2.400000 0.700000
v -12.657895 3.000000 -0.700000
v -12.657895 3.000000 0.700000
v -9.578947 3.000000 -0.700000
v -9.578947 3.000000 0.700000
v -9.578947 1.800000 -0.700000
v -9.578947 1.800000 0.700000
v -11.631578 1.800000 -0.700000
v -11.631578 1.800000 0.700000
v -11.631578 -1.800000 -0.700000
v -11.631578 -1.800000 0.700000
v -5.473684 -1.800000 -0.700000
v -5.473684 -1.800000 0.700000
v -5.473684 -3.000000 -0.700000
v -5.473684 -3.000000 0.700000
v -8.894737 -3.000000 -0.700000
v -8.894737 -3.000000 0.700000
v -8.894737 3.000000 -0.700000
v -8.894737 3.000000 0.700000
v -7.526316 3.000000 -0.700000
v -7.526316 3.000000 0.700000
v -7.526316 -1.800000 -0.700000
v -7.526316 -1.800000 0.700000
v -1.368421 3.000000 -0.700000
v -1.368421 3.000000 0.700000
v -1.368421 -2.400000 -0.700000
v -1.368421 -2.400000 0.700000
v -1.710527 -2.400000 -0.700000
v -1.710527 -2.400000 0.700000
v -1.710527 -3.000000 -0.700000
v -1.710527 -3.000000 0.700000
v -4.447369 -3.000000 -0.700000
v -4.447369 -3.000000 0.700000
v -4.447369 -2.400000 -0.700000
v -4.447369 -2.400000 0.700000
v -4.789474 -2.400000 -0.700000
v -4.789474 -2.400000 0.700000
v -4.789474 3.000000 -0.700000
v -4.789474 3.000000 0.700000
v -3.421053 3.000000 -0.700000
v -3.421053 3.000000 0.700000
v -3.421053 -1.800000 -0.700000
v -3.421053 -1.800000 0.700000
v -2.736843 -1.800000 -0.700000
v -2.736843 -1.800000 0.700000
v -2.736843 3.000000 -0.700000
v -2.736843 3.000000 0.700000
v 2.736842 -0.600000 -0.700000
v 2.736842 -0.600000 0.700000
v 2.736842 -2.400000 -0.700000
v 2.736842 -2.400000 0.700000
v 2.394736 -2.400000 -0.700000
v 2.394736 -2.400000 0.700000
v 2.394736 -3.000000 -0.700000
v 2.394736 -3.000000 0.700000
v -0.684210 -3.000000 -0.700000
v -0.684210 -3.000000 0.700000
v -0.684210 3.000000 -0.700000
v -0.684210 3.000000 0.700000
v 2.394736 3.000000 -0.700000
v 2.394736 3.000000 0.700000
v 2.394736 2.400000 -0.700000
v 2.394736 2.400000 0.700000
v 2.736842 2.400000 -0.700000
v 2.736842 2.400000 0.700000
v 2.736842 0.600000 -0.700000
v 2.736842 0.600000 0.700000
v 2.394736 0.600000 -0.700000
v 2.394736 0.600000 0.700000
v 2.394736 -0.600000 -0.700000
v 2.394736 -0.600000 0.700000
v 0.684210 0.600000 -0.700000
v 0.684210 0.600000 0.700000
v 1.368421 0.600000 -0.700000
v 1.368421 0.600000 0.700000
v 1.368421 1.800000 -0.700000
v 1.368421 1.800000 0.700000
v 0.684210 1.800000 -0.700000
v 0.684210 1.800000 0.700000
v 0.684210 -1.800000 -0.700000
v 0.684210 -1.800000 0.700000
v 1.368421 -1.800000 -0.700000
v 1.368421 -1.800000 0.700000
v 1.368421 -0.600000 -0.700000
v 1.368421 -0.600000 0.700000
v 0.684210 -0.600000 -0.700000
v 0.684210 -0.600000 0.700000
v 6.842106 2.400000 -0.700000
v 6.842106 2.400000 0.700000
v 6.842106 -2.400000 -0.700000
v 6.842106 -2.400000 0.700000
v 6.500000 -2.400000 -0.700000
v 6.500000 -2.400000 0.700000
v 6.500000 -3.000000 -0.700000
v 6.500000 -3.000000 0.700000
v 3.763157 -3.000000 -0.700000
v 3.763157 -3.000000 0.700000
v 3.763157 -2.400000 -0.700000
v 3.763157 -2.400000 0.700000
v 3.421053 -2.400000 -0.700000
v 3.421053 -2.400000 0.700000
v 3.421053 2.400000 -0.700000
v 3.421053 2.400000 0.700000
v 3.763157 2.400000 -0.700000
v 3.763157 2.400000 0.700000
v 3.763157 3.000000 -0.700000
v 3.763157 3.000000 0.700000
v 6.500000 3.000000 -0.700000
v 6.500000 3.000000 0.700000
v 6.500000 2.400000 -0.700000
v 6.500000 2.400000 0.700000
v 4.789473 -1.800000 -0.700000
v 4.789473 -1.800000 0.700000
v 5.473684 -1.800000 -0.700000
v 5.473684 -1.800000 0.700000
v 5.473684 1.800000 -0.700000
v 5.473684 1.800000 0.700000
v 4.789473 1.800000 -0.700000
v 4.789473 1.800000 0.700000
v 13.000000 2.400000 -0.700000
v 13.000000 2.400000 0.700000
v 13.000000 -3.000000 -0.700000
v 13.000000 -3.000000 0.700000
v 11.631580 -3.000000 -0.700000
v 11.631580 -3.000000 0.700000
v 11.631580 1.800000 -0.700000
v 11.631580 1.800000 0.700000
v 10.947369 1.800000 -0.700000
v 10.947369 1.800000 0.700000
v 10.947369 -3.000000 -0.700000
v 10.947369 -3.000000 0.700000
v 9.578945 -3.000000 -0.700000
v 9.578945 -3.000000 0.700000
v 9.578945 1.800000 -0.700000
v 9.578945 1.800000 0.700000
v 8.894737 1.800000 -0.700000
v 8.894737 1.800000 0.700000
v 8.894737 -3.000000 -0.700000
v 8.894737 -3.000000 0.700000
v 7.526314 -3.000000 -0.700000
v 7.526314 -3.000000 0.700000
v 7.526314 3.000000 -0.700000
v 7.526314 3.000000 0.700000
v 12.657894 3.000000 -0.700000
v 12.657894 3.000000 0.700000
v 12.657894 2.400000 -0.700000
v 12.657894 2.400000 0.700000
vn -0.0000 -0.0000 1.0000
vn -0.0000 1.0000 -0.0000
vn -0.0000 -1.0000 -0.0000
vn -0.0000 -0.0000 -1.0000
vn 0.8687 -0.4954 -0.0000
vn 0.8687 0.4954 -0.0000
vn 0.8687 0.4953 -0.0000
vn -0.8687 -0.4953 -0.0000
vn 0.8687 -0.4953 -0.0000
vn -0.8687 -0.4954 -0.0000
vn -0.8687 0.4953 -0.0000
vn -0.8687 0.4954 -0.0000
vn 0.8687 -0.4954 -0.0001
vn -0.8687 0.4953 0.0002
vn 0.8687 0.4954 0.0001
vn 0.8687 0.4953 -0.0001
vn -0.8687 0.4954 0.0001
vn 0.8687 -0.4953 -0.0001
vn -0.8687 -0.4953 -0.0002
vn 0.8687 0.4953 0.0001
vn 0.8687 -0.4953 0.0001
vn 0.8687 -0.4954 -0.0002
vn -0.8687 0.4953 0.0001
vn -0.8687 -0.4953 -0.0001
vt 0.769231 0.000000
vt 0.615385 0.000000
vt 0.846154 0.000000
vt 0.923077 0.000000
vt 1.000000 0.000000
vt 0.000000 0.000000
vt 0.538462 0.000000
vt 0.307692 0.000000
vt 0.230769 0.000000
vt 0.076923 0.000000
vt 0.692308 0.000000
vt 0.461538 0.000000
vt 0.384615 0.000000
vt 0.153846 0.000000
vt 0.533333 0.000000
vt 0.666667 0.000000
vt 0.600000 0.000000
vt 0.733333 0.000000
vt 0.400000 0.000000
vt 0.466667 0.000000
vt 0.933333 0.000000
vt 0.066667 0.000000
vt 0.800000 0.000000
vt 0.866667 0.000000
vt 0.333333 0.000000
vt 0.266667 0.000000
vt 0.133333 0.000000
vt 0.200000 0.000000
vt 0.210526 0.000000
vt 0.789474 0.000000
vt 0.263158 0.000000
vt 0.315789 0.000000
vt 0.368421 0.000000
vt 0.421053 0.000000
vt 0.736842 0.000000
vt 0.473684 0.000000
vt 0.631579 0.000000
vt 0.684211 0.000000
vt 0.526316 0.000000
vt 0.578947 0.000000
vt 0.842105 0.000000
vt 0.947368 0.000000
vt 0.894737 0.000000
vt 0.052632 0.000000
vt 0.105263 0.000000
vt 0.157895 0.000000
vt 0.545455 0.000000
vt 0.727273 0.000000
vt 0.636364 0.000000
vt 0.818182 0.000000
vt 0.909091 0.000000
vt 0.090909 0.000000
vt 0.454545 0.000000
vt 0.363636 0.000000
vt 0.181818 0.000000
vt 0.272727 0.000000
vt 0.083333 1.000000
vt 0.000000 1.000000
vt 0.166667 1.000000
vt 0.083333 0.000000
vt 0.250000 1.000000
vt 0.166667 0.000000
vt 0.333333 1.000000
vt 0.250000 0.000000
vt 0.416667 1.000000
vt 0.500000 1.000000
vt 0.416667 0.000000
vt 0.583333 1.000000
vt 0.500000 0.000000
vt 0.666667 1.000000
vt 0.583333 0.000000
vt 0.750000 1.000000
vt 0.833333 1.000000
vt 0.750000 0.000000
vt 0.916667 1.000000
vt 0.833333 0.000000
vt 1.000000 1.000000
vt 0.916667 0.000000
vt 0.071429 1.000000
vt 0.142857 1.000000
vt 0.071429 0.000000
vt 0.214286 1.000000
vt 0.142857 0.000000
vt 0.285714 1.000000
vt 0.214286 0.000000
vt 0.357143 1.000000
vt 0.285714 0.000000
vt 0.428571 1.000000
vt 0.357143 0.000000
vt 0.428571 0.000000
vt 0.571429 1.000000
vt 0.642857 1.000000
vt 0.571429 0.000000
vt 0.714286 1.000000
vt 0.642857 0.000000
vt 0.785714 1.000000
vt 0.714286 0.000000
vt 0.857143 1.000000
vt 0.785714 0.000000
vt 0.928571 1.000000
vt 0.857143 0.000000
vt 0.928571 0.000000
s 1
usemtl マテリアル.003
f 11/1/1 9/2/1 12/3/1
f 9/2/1 13/4/1 12/3/1
f 9/2/1 14/5/1 13/4/1
f 9/2/1 1/6/1 14/5/1
f 9/2/1 8/7/1 1/6/1
f 8/7/1 5/8/1 1/6/1
f 5/8/1 4/9/1 1/6/1
f 4/9/1 2/10/1 1/6/1
f 11/1/1 10/11/1 9/2/1
f 7/12/1 5/8/1 8/7/1
f 7/12/1 6/13/1 5/8/1
f 3/14/1 2/10/1 4/9/1
f 23/15/1 25/16/1 24/17/1
f 23/15/1 26/18/1 25/16/1
f 21/19/1 23/15/1 22/20/1
f 21/19/1 30/5/1 23/15/1
f 30/5/1 26/18/1 23/15/1
f 30/5/1 15/6/1 26/18/1
f 30/5/1 29/21/1 15/6/1
f 29/21/1 16/22/1 15/6/1
f 21/19/1 27/23/1 30/5/1
f 28/24/1 16/22/1 29/21/1
f 21/19/1 28/24/1 27/23/1
f 21/19/1 16/22/1 28/24/1
s 0
f 20/25/2 16/22/2 21/19/2
s 1
f 19/26/1 17/27/1 20/25/1
s 0
f 17/27/2 16/22/2 20/25/2
s 1
f 19/26/1 18/28/1 17/27/1
f 35/29/1 46/30/1 36/31/1
f 46/30/1 37/32/1 36/31/1
f 46/30/1 38/33/1 37/32/1
f 46/30/1 39/34/1 38/33/1
f 46/30/1 45/35/1 39/34/1
f 45/35/1 40/36/1 39/34/1
f 35/29/1 43/37/1 46/30/1
f 44/38/1 40/36/1 45/35/1
f 35/29/1 50/5/1 43/37/1
f 50/5/1 44/38/1 43/37/1
f 50/5/1 41/39/1 44/38/1
s 0
f 41/39/3 40/36/3 44/38/3
s 1
f 50/5/1 42/40/1 41/39/1
f 35/29/1 47/41/1 50/5/1
s 0
f 49/42/2 42/40/2 50/5/2
s 1
f 48/43/1 42/40/1 49/42/1
f 48/43/1 31/6/1 42/40/1
f 48/43/1 32/44/1 31/6/1
f 35/29/1 48/43/1 47/41/1
f 35/29/1 33/45/1 48/43/1
f 33/45/1 32/44/1 48/43/1
f 35/29/1 34/46/1 33/45/1
f 57/47/1 59/48/1 58/49/1
f 57/47/1 60/50/1 59/48/1
f 61/51/1 51/6/1 62/5/1
f 61/51/1 52/52/1 51/6/1
f 57/47/1 61/51/1 60/50/1
f 57/47/1 52/52/1 61/51/1
s 0
f 56/53/2 52/52/2 57/47/2
s 1
f 55/54/1 53/55/1 56/53/1
s 0
f 53/55/2 52/52/2 56/53/2
s 1
f 55/54/1 54/56/1 53/55/1
f 65/19/1 67/23/1 66/17/1
f 65/19/1 68/5/1 67/23/1
f 65/19/1 63/6/1 68/5/1
f 65/19/1 64/28/1 63/6/1
f 75/47/1 77/48/1 76/49/1
f 75/47/1 78/50/1 77/48/1
f 73/54/1 75/47/1 74/53/1
f 73/54/1 79/51/1 75/47/1
f 79/51/1 78/50/1 75/47/1
f 73/54/1 80/5/1 79/51/1
f 73/54/1 69/6/1 80/5/1
f 73/54/1 72/56/1 69/6/1
f 72/56/1 70/52/1 69/6/1
f 71/55/1 70/52/1 72/56/1
f 91/1/4 92/3/4 89/2/4
f 89/2/4 92/3/4 93/4/4
f 89/2/4 93/4/4 94/5/4
f 89/2/4 94/5/4 81/6/4
f 89/2/4 81/6/4 88/7/4
f 88/7/4 81/6/4 85/8/4
f 85/8/4 81/6/4 84/9/4
f 84/9/4 81/6/4 82/10/4
f 91/1/4 89/2/4 90/11/4
f 87/12/4 88/7/4 85/8/4
f 87/12/4 85/8/4 86/13/4
f 83/14/4 84/9/4 82/10/4
f 103/15/4 104/17/4 105/16/4
f 103/15/4 105/16/4 106/18/4
f 101/19/4 102/20/4 103/15/4
f 101/19/4 103/15/4 110/5/4
f 110/5/4 103/15/4 106/18/4
f 110/5/4 106/18/4 95/6/4
f 110/5/4 95/6/4 109/21/4
f 109/21/4 95/6/4 96/22/4
f 101/19/4 110/5/4 107/23/4
f 108/24/4 109/21/4 96/22/4
f 101/19/4 107/23/4 108/24/4
f 101/19/4 108/24/4 96/22/4
s 0
f 100/25/2 101/19/2 96/22/2
s 1
f 99/26/4 100/25/4 97/27/4
s 0
f 97/27/3 100/25/3 96/22/3
s 1
f 99/26/4 97/27/4 98/28/4
f 115/29/4 116/31/4 126/30/4
f 126/30/4 116/31/4 117/32/4
f 126/30/4 117/32/4 118/33/4
f 126/30/4 118/33/4 119/34/4
f 126/30/4 119/34/4 125/35/4
f 125/35/4 119/34/4 120/36/4
f 115/29/4 126/30/4 123/37/4
f 124/38/4 125/35/4 120/36/4
f 115/29/4 123/37/4 130/5/4
f 130/5/4 123/37/4 124/38/4
f 130/5/4 124/38/4 121/39/4
s 0
f 121/39/3 124/38/3 120/36/3
s 1
f 130/5/4 121/39/4 122/40/4
f 115/29/4 130/5/4 127/41/4
s 0
f 129/42/3 130/5/3 122/40/3
s 1
f 128/43/4 129/42/4 122/40/4
f 128/43/4 122/40/4 111/6/4
f 128/43/4 111/6/4 112/44/4
f 115/29/4 127/41/4 128/43/4
f 115/29/4 128/43/4 113/45/4
f 113/45/4 128/43/4 112/44/4
f 115/29/4 113/45/4 114/46/4
f 137/47/4 138/49/4 139/48/4
f 137/47/4 139/48/4 140/50/4
f 141/51/4 142/5/4 131/6/4
f 141/51/4 131/6/4 132/52/4
f 137/47/4 140/50/4 141/51/4
f 137/47/4 141/51/4 132/52/4
s 0
f 136/53/2 137/47/2 132/52/2
s 1
f 135/54/4 136/53/4 133/55/4
s 0
f 133/55/2 136/53/2 132/52/2
s 1
f 135/54/4 133/55/4 134/56/4
f 145/19/4 146/17/4 147/23/4
f 145/19/4 147/23/4 148/5/4
f 145/19/4 148/5/4 143/6/4
f 145/19/4 143/6/4 144/28/4
f 155/47/4 156/49/4 157/48/4
f 155/47/4 157/48/4 158/50/4
f 153/54/4 154/53/4 155/47/4
f 153/54/4 155/47/4 159/51/4
f 159/51/4 155/47/4 158/50/4
f 153/54/4 159/51/4 160/5/4
f 153/54/4 160/5/4 149/6/4
f 153/54/4 149/6/4 152/56/4
f 152/56/4 149/6/4 150/52/4
f 151/55/4 152/56/4 150/52/4
f 164/57/5 161/6/6 162/58/7
f 166/59/8 163/60/9 164/57/5
f 168/61/8 165/62/10 166/59/8
f 170/63/10 167/64/8 168/61/8
f 172/65/11 169/25/10 170/63/10
f 174/66/11 171/67/12 172/65/11
f 176/68/12 173/69/11 174/66/11
f 178/70/7 175/71/11 176/68/12
f 180/72/5 177/16/6 178/70/7
f 182/73/9 179/74/9 180/72/5
f 184/75/6 181/76/5 182/73/9
f 162/77/7 183/78/7 184/75/6
f 188/59/13 185/6/6 186/58/7
f 190/63/8 187/62/9 188/59/13
f 192/66/14 189/25/8 190/63/8
f 194/70/7 191/69/11 192/66/14
f 196/73/6 193/16/15 194/70/7
f 186/77/7 195/76/16 196/73/6
f 200/57/5 197/6/15 198/58/7
f 202/59/9 199/60/5 200/57/5
f 204/61/5 201/62/9 202/59/9
f 206/63/8 203/64/9 204/61/5
f 208/65/8 205/25/10 206/63/8
f 210/66/10 207/67/8 208/65/8
f 212/68/17 209/69/10 210/66/10
f 214/70/7 211/71/11 212/68/17
f 216/72/6 213/16/15 214/70/7
f 218/73/11 215/74/16 216/72/6
f 220/75/17 217/76/12 218/73/11
f 198/77/7 219/78/11 220/75/17
f 224/57/9 221/6/7 222/58/6
f 226/59/18 223/60/5 224/57/9
f 228/61/5 225/62/9 226/59/18
f 230/63/8 227/64/9 228/61/5
f 232/65/14 229/25/19 230/63/8
f 234/66/7 231/67/11 232/65/14
f 236/68/7 233/69/6 234/66/7
f 238/70/6 235/71/20 236/68/7
f 240/72/9 237/16/7 238/70/6
f 242/73/18 239/74/5 240/72/9
f 244/75/7 241/76/9 242/73/18
f 222/77/6 243/78/20 244/75/7
f 248/61/11 245/6/7 246/58/7
f 250/66/8 247/64/11 248/61/11
f 252/72/9 249/69/8 250/66/8
f 246/77/7 251/74/9 252/72/9
f 256/61/11 253/6/7 254/58/7
f 258/66/8 255/64/11 256/61/11
f 260/72/9 257/69/8 258/66/8
f 254/77/7 259/74/9 260/72/9
f 264/57/5 261/6/6 262/58/6
f 266/59/9 263/60/5 264/57/5
f 268/61/5 265/62/9 266/59/9
f 270/63/8 267/64/9 268/61/5
f 272/65/8 269/25/10 270/63/8
f 274/66/10 271/67/8 272/65/8
f 276/68/11 273/69/10 274/66/10
f 278/70/11 275/71/12 276/68/11
f 280/72/12 277/16/11 278/70/11
f 282/73/7 279/74/11 280/72/12
f 284/75/7 281/76/6 282/73/7
f 262/77/6 283/78/7 284/75/7
f 288/61/11 285/6/16 286/58/6
f 290/66/10 287/64/12 288/61/11
f 292/72/21 289/69/8 290/66/10
f 286/77/6 291/74/5 292/72/21
f 296/79/13 293/6/15 294/58/6
f 298/80/8 295/81/9 296/79/13
f 300/82/10 297/83/10 298/80/8
f 302/84/9 299/85/8 300/82/10
f 304/86/22 301/87/5 302/84/9
f 306/88/8 303/89/9 304/86/22
f 308/66/10 305/90/10 306/88/8
f 310/91/21 307/69/8 308/66/10
f 312/92/22 309/93/5 310/91/21
f 314/94/8 311/95/9 312/92/22
f 316/96/23 313/97/24 314/94/8
f 318/98/6 315/99/12 316/96/23
f 320/100/7 317/101/6 318/98/6
f 294/77/6 319/102/7 320/100/7
f 164/57/5 163/60/9 161/6/6
f 166/59/8 165/62/10 163/60/9
f 168/61/8 167/64/8 165/62/10
f 170/63/10 169/25/10 167/64/8
f 172/65/11 171/67/12 169/25/10
f 174/66/11 173/69/11 171/67/12
f 176/68/12 175/71/11 173/69/11
f 178/70/7 177/16/6 175/71/11
f 180/72/5 179/74/9 177/16/6
f 182/73/9 181/76/5 179/74/9
f 184/75/6 183/78/7 181/76/5
f 162/77/7 161/5/6 183/78/7
f 188/59/13 187/62/9 185/6/6
f 190/63/8 189/25/8 187/62/9
f 192/66/14 191/69/11 189/25/8
f 194/70/7 193/16/15 191/69/11
f 196/73/6 195/76/16 193/16/15
f 186/77/7 185/5/6 195/76/16
f 200/57/5 199/60/5 197/6/15
f 202/59/9 201/62/9 199/60/5
f 204/61/5 203/64/9 201/62/9
f 206/63/8 205/25/10 203/64/9
f 208/65/8 207/67/8 205/25/10
f 210/66/10 209/69/10 207/67/8
f 212/68/17 211/71/11 209/69/10
f 214/70/7 213/16/15 211/71/11
f 216/72/6 215/74/16 213/16/15
f 218/73/11 217/76/12 215/74/16
f 220/75/17 219/78/11 217/76/12
f 198/77/7 197/5/15 219/78/11
f 224/57/9 223/60/5 221/6/7
f 226/59/18 225/62/9 223/60/5
f 228/61/5 227/64/9 225/62/9
f 230/63/8 229/25/19 227/64/9
f 232/65/14 231/67/11 229/25/19
f 234/66/7 233/69/6 231/67/11
f 236/68/7 235/71/20 233/69/6
f 238/70/6 237/16/7 235/71/20
f 240/72/9 239/74/5 237/16/7
f 242/73/18 241/76/9 239/74/5
f 244/75/7 243/78/20 241/76/9
f 222/77/6 221/5/7 243/78/20
f 248/61/11 247/64/11 245/6/7
f 250/66/8 249/69/8 247/64/11
f 252/72/9 251/74/9 249/69/8
f 246/77/7 245/5/7 251/74/9
f 256/61/11 255/64/11 253/6/7
f 258/66/8 257/69/8 255/64/11
f 260/72/9 259/74/9 257/69/8
f 254/77/7 253/5/7 259/74/9
f 264/57/5 263/60/5 261/6/6
f 266/59/9 265/62/9 263/60/5
f 268/61/5 267/64/9 265/62/9
f 270/63/8 269/25/10 267/64/9
f 272/65/8 271/67/8 269/25/10
f 274/66/10 273/69/10 271/67/8
f 276/68/11 275/71/12 273/69/10
f 278/70/11 277/16/11 275/71/12
f 280/72/12 279/74/11 277/16/11
f 282/73/7 281/76/6 279/74/11
f 284/75/7 283/78/7 281/76/6
f 262/77/6 261/5/6 283/78/7
f 288/61/11 287/64/12 285/6/16
f 290/66/10 289/69/8 287/64/12
f 292/72/21 291/74/5 289/69/8
f 286/77/6 285/5/16 291/74/5
f 296/79/13 295/81/9 293/6/15
f 298/80/8 297/83/10 295/81/9
f 300/82/10 299/85/8 297/83/10
f 302/84/9 301/87/5 299/85/8
f 304/86/22 303/89/9 301/87/5
f 306/88/8 305/90/10 303/89/9
f 308/66/10 307/69/8 305/90/10
f 310/91/21 309/93/5 307/69/8
f 312/92/22 311/95/9 309/93/5
f 314/94/8 313/97/24 311/95/9
f 316/96/23 315/99/12 313/97/24
f 318/98/6 317/101/6 315/99/12
f 320/100/7 319/102/7 317/101/6
f 294/77/6 293/5/15 319/102/7
