# Blender 5.0.1
# www.blender.org
mtllib bomb.mtl
o Cube
v -0.353479 -0.472279 0.286555
v -0.286555 -0.500000 0.286555
v -0.286555 -0.472279 0.353479
v -0.357768 -0.435982 0.357768
v -0.286555 -0.353479 0.472279
v -0.286555 -0.286555 0.500000
v -0.353479 -0.286555 0.472279
v -0.357768 -0.357768 0.435982
v -0.472279 -0.353479 0.286555
v -0.435982 -0.357768 0.357768
v -0.472279 -0.286555 0.353479
v -0.500000 -0.286555 0.286555
v -0.353479 0.286555 0.472279
v -0.286555 0.286555 0.500000
v -0.286555 0.353479 0.472279
v -0.357768 0.357768 0.435982
v -0.286555 0.472279 0.353479
v -0.039811 0.500000 0.039811
v -0.353479 0.472279 0.286555
v -0.357768 0.435982 0.357768
v -0.472279 0.286555 0.353479
v -0.435982 0.357768 0.357768
v -0.472279 0.353479 0.286555
v -0.500000 0.286555 0.286555
v -0.286555 -0.472279 -0.353479
v -0.286555 -0.500000 -0.286555
v -0.353479 -0.472279 -0.286555
v -0.357768 -0.435982 -0.357768
v -0.472279 -0.353479 -0.286555
v -0.500000 -0.286555 -0.286555
v -0.472279 -0.286555 -0.353479
v -0.435982 -0.357768 -0.357768
v -0.286555 -0.353479 -0.472279
v -0.357768 -0.357768 -0.435982
v -0.353479 -0.286555 -0.472279
v -0.286555 -0.286555 -0.500000
v -0.353479 0.472279 -0.286555
v -0.039811 0.500000 -0.039811
v -0.286555 0.472279 -0.353479
v -0.357768 0.435982 -0.357768
v -0.286555 0.353479 -0.472279
v -0.286555 0.286555 -0.500000
v -0.353479 0.286555 -0.472279
v -0.357768 0.357768 -0.435982
v -0.472279 0.353479 -0.286555
v -0.435982 0.357768 -0.357768
v -0.472279 0.286555 -0.353479
v -0.500000 0.286555 -0.286555
v 0.286555 -0.472279 0.353479
v 0.286555 -0.500000 0.286555
v 0.353479 -0.472279 0.286555
v 0.357768 -0.435982 0.357768
v 0.472279 -0.353479 0.286555
v 0.500000 -0.286555 0.286555
v 0.472279 -0.286555 0.353479
v 0.435982 -0.357768 0.357768
v 0.286555 -0.353479 0.472279
v 0.357768 -0.357768 0.435982
v 0.353479 -0.286555 0.472279
v 0.286555 -0.286555 0.500000
v 0.353479 0.472279 0.286555
v 0.039811 0.500000 0.039811
v 0.286555 0.472279 0.353479
v 0.357768 0.435982 0.357768
v 0.286555 0.353479 0.472279
v 0.286555 0.286555 0.500000
v 0.353479 0.286555 0.472279
v 0.357768 0.357768 0.435982
v 0.472279 0.353479 0.286555
v 0.435982 0.357768 0.357768
v 0.472279 0.286555 0.353479
v 0.500000 0.286555 0.286555
v 0.353479 -0.472279 -0.286555
v 0.286555 -0.500000 -0.286555
v 0.286555 -0.472279 -0.353479
v 0.357768 -0.435982 -0.357768
v 0.286555 -0.353479 -0.472279
v 0.286555 -0.286555 -0.500000
v 0.353479 -0.286555 -0.472279
v 0.357768 -0.357768 -0.435982
v 0.472279 -0.353479 -0.286555
v 0.435982 -0.357768 -0.357768
v 0.472279 -0.286555 -0.353479
v 0.500000 -0.286555 -0.286555
v 0.286555 0.472279 -0.353479
v 0.039811 0.500000 -0.039811
v 0.353479 0.472279 -0.286555
v 0.357768 0.435982 -0.357768
v 0.472279 0.353479 -0.286555
v 0.500000 0.286555 -0.286555
v 0.472279 0.286555 -0.353479
v 0.435982 0.357768 -0.357768
v 0.286555 0.353479 -0.472279
v 0.357768 0.357768 -0.435982
v 0.353479 0.286555 -0.472279
v 0.286555 0.286555 -0.500000
v -0.286555 0.500000 0.286555
v -0.286555 0.500000 -0.286555
v 0.286555 0.500000 -0.286555
v 0.286555 0.500000 0.286555
v -0.039811 0.670692 0.039811
v -0.019610 0.690893 0.019610
v -0.019610 0.690893 -0.019610
v -0.039811 0.670692 -0.039811
v 0.019610 0.690893 -0.019610
v 0.039811 0.670692 -0.039811
v 0.019610 0.690893 0.019610
v 0.039811 0.670692 0.039811
vn -0.3976 -0.8270 0.3976
vn -0.3976 -0.3976 0.8270
vn -0.8629 -0.3574 0.3574
vn -0.3976 0.3976 0.8270
vn -0.3976 0.8270 0.3976
vn -0.8629 0.3574 0.3574
vn -0.3976 -0.8270 -0.3976
vn -0.8270 -0.3976 -0.3976
vn -0.3574 -0.3574 -0.8629
vn -0.3976 0.8270 -0.3976
vn -0.3976 0.3976 -0.8270
vn -0.8629 0.3574 -0.3574
vn 0.3976 -0.8270 0.3976
vn 0.8270 -0.3976 0.3976
vn 0.3574 -0.3574 0.8629
vn 0.3976 0.8270 0.3976
vn 0.3976 0.3976 0.8270
vn 0.8629 0.3574 0.3574
vn 0.3976 -0.8270 -0.3976
vn 0.3976 -0.3976 -0.8270
vn 0.8629 -0.3574 -0.3574
vn 0.3976 0.8270 -0.3976
vn 0.8270 0.3976 -0.3976
vn 0.3574 0.3574 -0.8629
vn -0.6739 -0.6739 0.3029
vn -0.3029 -0.6739 0.6739
vn -0.6739 -0.3029 0.6739
vn -0.6739 0.3029 0.6739
vn -0.3029 0.6739 0.6739
vn -0.6739 0.6739 0.3029
vn -0.3029 -0.6739 -0.6739
vn -0.6739 -0.6739 -0.3029
vn -0.6739 -0.3029 -0.6739
vn -0.6739 0.6739 -0.3029
vn -0.3029 0.6739 -0.6739
vn -0.6739 0.3029 -0.6739
vn 0.3029 -0.6739 0.6739
vn 0.6739 -0.6739 0.3029
vn 0.6739 -0.3029 0.6739
vn 0.6739 0.6739 0.3029
vn 0.3029 0.6739 0.6739
vn 0.6739 0.3029 0.6739
vn 0.6739 -0.6739 -0.3029
vn 0.3029 -0.6739 -0.6739
vn 0.6739 -0.3029 -0.6739
vn 0.3029 0.6739 -0.6739
vn 0.6739 0.6739 -0.3029
vn 0.6739 0.3029 -0.6739
vn -0.3827 -0.9239 -0.0000
vn -0.9239 -0.3827 -0.0000
vn -0.3827 -0.0000 0.9239
vn -0.9239 -0.0000 0.3827
vn -0.3827 0.9239 -0.0000
vn -0.9239 0.3827 -0.0000
vn -0.3827 -0.0000 -0.9239
vn -0.9239 -0.0000 -0.3827
vn -0.0000 -0.9239 -0.3827
vn -0.0000 -0.3827 -0.9239
vn -0.0000 0.9239 -0.3827
vn -0.0000 0.3827 -0.9239
vn 0.9239 -0.0000 -0.3827
vn 0.3827 -0.0000 -0.9239
vn 0.3827 -0.9239 -0.0000
vn 0.9239 -0.3827 -0.0000
vn 0.3827 0.9239 -0.0000
vn 0.9239 0.3827 -0.0000
vn 0.3827 -0.0000 0.9239
vn 0.9239 -0.0000 0.3827
vn -0.0000 -0.9239 0.3827
vn -0.0000 -0.3827 0.9239
vn -0.0000 0.9239 0.3827
vn -0.0000 0.3827 0.9239
vn -0.7071 -0.7071 -0.0000
vn -0.5774 -0.5774 0.5774
vn -0.0000 -1.0000 -0.0000
vn -0.0000 -0.7071 0.7071
vn -0.7071 -0.0000 0.7071
vn -0.0000 -0.0000 1.0000
vn -1.0000 -0.0000 -0.0000
vn -0.5774 0.5774 0.5774
vn -0.0000 0.7071 0.7071
vn -0.7071 0.7071 -0.0000
vn -0.0000 -0.7071 -0.7071
vn -0.5774 -0.5774 -0.5774
vn -0.7071 -0.0000 -0.7071
vn -0.0000 -0.0000 -1.0000
vn -0.5774 0.5774 -0.5774
vn -0.0000 0.7071 -0.7071
vn 0.5774 -0.5774 0.5774
vn 0.7071 -0.7071 -0.0000
vn 1.0000 -0.0000 -0.0000
vn 0.7071 -0.0000 0.7071
vn 0.7071 0.7071 -0.0000
vn 0.5774 0.5774 0.5774
vn 0.5774 -0.5774 -0.5774
vn 0.7071 -0.0000 -0.7071
vn 0.5774 0.5774 -0.5774
vn -0.0000 1.0000 -0.0000
vn -0.3574 -0.8629 0.3574
vn -0.3574 -0.3574 0.8629
vn -0.8270 -0.3976 0.3976
vn -0.3574 0.3574 0.8629
vn -0.3574 0.8629 0.3574
vn -0.8270 0.3976 0.3976
vn -0.3574 -0.8629 -0.3574
vn -0.8629 -0.3574 -0.3574
vn -0.3976 -0.3976 -0.8270
vn -0.3574 0.8629 -0.3574
vn -0.3574 0.3574 -0.8629
vn -0.8270 0.3976 -0.3976
vn 0.3574 -0.8629 0.3574
vn 0.8629 -0.3574 0.3574
vn 0.3976 -0.3976 0.8270
vn 0.3574 0.8629 0.3574
vn 0.3574 0.3574 0.8629
vn 0.8270 0.3976 0.3976
vn 0.3574 -0.8629 -0.3574
vn 0.3574 -0.3574 -0.8629
vn 0.8270 -0.3976 -0.3976
vn 0.3574 0.8629 -0.3574
vn 0.8629 0.3574 -0.3574
vn 0.3976 0.3976 -0.8270
vt 0.161630 0.696639
vt 0.179137 0.713758
vt 0.160558 0.714442
vt 0.177295 0.743762
vt 0.161630 0.743070
vt 0.160558 0.733995
vt 0.131930 0.699089
vt 0.131930 0.713370
vt 0.125000 0.701539
vt 0.571639 0.006930
vt 0.584905 0.003465
vt 0.587441 0.015004
vt 0.618070 0.036630
vt 0.618070 0.051834
vt 0.608995 0.035558
vt 0.571639 0.036630
vt 0.588370 0.053878
vt 0.571639 0.053361
vt 0.179137 0.536242
vt 0.161630 0.553361
vt 0.160558 0.535558
vt 0.131930 0.553361
vt 0.128465 0.540095
vt 0.140004 0.537559
vt 0.177295 0.506238
vt 0.161630 0.506930
vt 0.174771 0.499345
vt 0.618070 0.219829
vt 0.620494 0.251836
vt 0.609996 0.235980
vt 0.588758 0.287235
vt 0.571639 0.271004
vt 0.589442 0.259997
vt 0.588370 0.200742
vt 0.571639 0.218761
vt 0.571639 0.196639
vt 0.327793 0.716447
vt 0.343567 0.696639
vt 0.353446 0.718443
vt 0.395542 0.696639
vt 0.413511 0.717684
vt 0.387665 0.718443
vt 0.356424 0.760462
vt 0.387778 0.764821
vt 0.376056 0.777209
vt 0.638984 0.735692
vt 0.635462 0.768576
vt 0.624274 0.754501
vt 0.591447 0.797207
vt 0.569600 0.780316
vt 0.593443 0.771554
vt 0.591835 0.710252
vt 0.570402 0.728608
vt 0.570984 0.705817
vt 0.343567 0.553361
vt 0.327793 0.533553
vt 0.353446 0.531557
vt 0.356424 0.489538
vt 0.387778 0.485179
vt 0.370499 0.500726
vt 0.395542 0.553361
vt 0.413511 0.532316
vt 0.418126 0.552960
vt 0.635462 0.478769
vt 0.638984 0.514308
vt 0.624274 0.495499
vt 0.591835 0.539748
vt 0.570402 0.521392
vt 0.593443 0.512665
vt 0.591447 0.451297
vt 0.569600 0.469684
vt 0.569526 0.447167
vt 0.141005 0.714442
vt 0.589442 0.035558
vt 0.160558 0.516005
vt 0.589442 0.225778
vt 0.370499 0.749274
vt 0.593443 0.737335
vt 0.387665 0.531557
vt 0.593443 0.478446
vt 0.178361 0.696639
vt 0.178361 0.553361
vt 0.125000 0.553361
vt 0.571639 0.000000
vt 0.428361 0.006930
vt 0.428361 0.000000
vt 0.428361 0.053361
vt 0.625437 0.233087
vt 0.625000 0.049334
vt 0.426248 0.303889
vt 0.571131 0.293909
vt 0.428361 0.220106
vt 0.428361 0.196639
vt 0.321639 0.553361
vt 0.376056 0.472728
vt 0.651681 0.500365
vt 0.570984 0.544183
vt 0.321639 0.696639
vt 0.418126 0.697040
vt 0.651681 0.747887
vt 0.569526 0.802305
vt 0.174771 0.750655
vt 0.626311 0.944018
vt 0.588758 0.945863
vt 0.571131 0.946385
vt 0.428361 0.036630
vt 0.426248 0.945582
vt 0.618992 0.944794
vt 0.428361 0.279239
vt 0.747720 0.611545
vt 0.820328 0.698243
vt 0.747720 0.637703
vt 0.724289 0.610212
vt 0.820328 0.551757
vt 0.724289 0.638793
vt 0.741775 0.618024
vt 0.747720 0.637703
vt 0.741775 0.631162
vt 0.730234 0.617621
vt 0.730234 0.631446
s 0
usemtl Material.005
f 1/1/1 3/2/1 4/3/1
f 5/4/2 7/5/2 8/6/2
f 9/7/3 11/8/3 12/9/3
f 13/10/4 15/11/4 16/12/4
f 17/13/5 19/14/5 20/15/5
f 21/16/6 23/17/6 24/18/6
f 25/19/7 27/20/7 28/21/7
f 29/22/8 31/23/8 32/24/8
f 33/25/9 35/26/9 36/27/9
f 37/28/10 39/29/10 40/30/10
f 41/31/11 43/32/11 44/33/11
f 45/34/12 47/35/12 48/36/12
f 49/37/13 51/38/13 52/39/13
f 53/40/14 55/41/14 56/42/14
f 57/43/15 59/44/15 60/45/15
f 61/46/16 63/47/16 64/48/16
f 65/49/17 67/50/17 68/51/17
f 69/52/18 71/53/18 72/54/18
f 73/55/19 75/56/19 76/57/19
f 77/58/20 79/59/20 80/60/20
f 81/61/21 83/62/21 84/63/21
f 85/64/22 87/65/22 88/66/22
f 89/67/23 91/68/23 92/69/23
f 93/70/24 95/71/24 96/72/24
f 1/1/25 10/73/25 9/7/25
f 5/4/26 4/3/26 3/2/26
f 11/8/27 8/6/27 7/5/27
f 13/10/28 22/74/28 21/16/28
f 17/13/29 16/12/29 15/11/29
f 23/17/30 20/15/30 19/14/30
f 25/19/31 34/75/31 33/25/31
f 29/22/32 28/21/32 27/20/32
f 35/26/33 32/24/33 31/23/33
f 37/28/34 46/76/34 45/34/34
f 41/31/35 40/30/35 39/29/35
f 47/35/36 44/33/36 43/32/36
f 49/37/37 58/77/37 57/43/37
f 53/40/38 52/39/38 51/38/38
f 59/44/39 56/42/39 55/41/39
f 61/46/40 70/78/40 69/52/40
f 65/49/41 64/48/41 63/47/41
f 71/53/42 68/51/42 67/50/42
f 73/55/43 82/79/43 81/61/43
f 77/58/44 76/57/44 75/56/44
f 83/62/45 80/60/45 79/59/45
f 85/64/46 94/80/46 93/70/46
f 89/67/47 88/66/47 87/65/47
f 95/71/48 92/69/48 91/68/48
f 2/81/49 27/20/49 26/82/49
f 30/83/50 9/7/50 12/9/50
f 14/84/51 7/85/51 6/86/51
f 12/87/52 21/16/52 24/18/52
f 98/88/53 19/14/53 97/89/53
f 24/18/54 45/34/54 48/36/54
f 36/90/55 43/32/55 42/91/55
f 48/36/56 31/92/56 30/93/56
f 26/82/57 75/56/57 74/94/57
f 78/95/58 33/25/58 36/27/58
f 99/96/59 39/29/59 98/88/59
f 42/91/60 93/70/60 96/72/60
f 84/63/61 91/68/61 90/97/61
f 96/72/62 79/59/62 78/95/62
f 74/94/63 51/38/63 50/98/63
f 54/99/64 81/61/64 84/63/64
f 100/100/65 87/65/65 99/96/65
f 90/97/66 69/52/66 72/54/66
f 60/45/67 67/50/67 66/101/67
f 72/54/68 55/41/68 54/99/68
f 50/98/69 3/2/69 2/81/69
f 6/102/70 57/43/70 60/45/70
f 97/103/71 63/47/71 100/100/71
f 66/101/72 15/104/72 14/105/72
f 1/1/73 29/22/73 27/20/73
f 4/3/74 8/6/74 10/73/74
f 74/94/75 2/81/75 26/82/75
f 49/37/76 5/4/76 3/2/76
f 13/10/77 11/106/77 7/85/77
f 66/101/78 6/107/78 60/45/78
f 24/18/79 30/93/79 12/87/79
f 16/12/80 20/15/80 22/74/80
f 17/108/81 65/49/81 63/47/81
f 37/28/82 23/17/82 19/14/82
f 25/19/83 77/58/83 75/56/83
f 28/21/84 32/24/84 34/75/84
f 35/109/85 47/35/85 43/32/85
f 42/91/86 78/95/86 36/90/86
f 40/30/87 44/33/87 46/76/87
f 85/64/88 41/31/88 39/29/88
f 52/39/89 56/42/89 58/77/89
f 73/55/90 53/40/90 51/38/90
f 90/97/91 54/99/91 84/63/91
f 59/44/92 71/53/92 67/50/92
f 61/46/93 89/67/93 87/65/93
f 64/48/94 68/51/94 70/78/94
f 76/57/95 80/60/95 82/79/95
f 83/62/96 95/71/96 91/68/96
f 88/66/97 92/69/97 94/80/97
f 38/110/98 97/111/98 18/112/98
f 86/113/98 98/114/98 38/110/98
f 62/115/98 99/96/98 86/113/98
f 18/112/98 100/100/98 62/115/98
f 103/116/82 101/117/82 102/118/82
f 105/119/88 104/110/88 103/116/88
f 107/120/93 106/113/93 105/119/93
f 102/118/81 108/115/81 107/120/81
f 18/112/79 104/110/79 38/110/79
f 103/116/98 107/120/98 105/119/98
f 62/115/78 101/117/78 18/112/78
f 38/110/86 106/113/86 86/113/86
f 86/113/91 108/115/91 62/115/91
f 1/1/99 2/81/99 3/2/99
f 5/4/100 6/102/100 7/5/100
f 9/7/101 10/73/101 11/8/101
f 13/10/102 14/84/102 15/11/102
f 17/13/103 97/89/103 19/14/103
f 21/16/104 22/74/104 23/17/104
f 25/19/105 26/82/105 27/20/105
f 29/22/106 30/83/106 31/23/106
f 33/25/107 34/75/107 35/26/107
f 37/28/108 98/88/108 39/29/108
f 41/31/109 42/91/109 43/32/109
f 45/34/110 46/76/110 47/35/110
f 49/37/111 50/98/111 51/38/111
f 53/40/112 54/99/112 55/41/112
f 57/43/113 58/77/113 59/44/113
f 61/46/114 100/100/114 63/47/114
f 65/49/115 66/101/115 67/50/115
f 69/52/116 70/78/116 71/53/116
f 73/55/117 74/94/117 75/56/117
f 77/58/118 78/95/118 79/59/118
f 81/61/119 82/79/119 83/62/119
f 85/64/120 99/96/120 87/65/120
f 89/67/121 90/97/121 91/68/121
f 93/70/122 94/80/122 95/71/122
f 1/1/25 4/3/25 10/73/25
f 5/4/26 8/6/26 4/3/26
f 11/8/27 10/73/27 8/6/27
f 13/10/28 16/12/28 22/74/28
f 17/13/29 20/15/29 16/12/29
f 23/17/30 22/74/30 20/15/30
f 25/19/31 28/21/31 34/75/31
f 29/22/32 32/24/32 28/21/32
f 35/26/33 34/75/33 32/24/33
f 37/28/34 40/30/34 46/76/34
f 41/31/35 44/33/35 40/30/35
f 47/35/36 46/76/36 44/33/36
f 49/37/37 52/39/37 58/77/37
f 53/40/38 56/42/38 52/39/38
f 59/44/39 58/77/39 56/42/39
f 61/46/40 64/48/40 70/78/40
f 65/49/41 68/51/41 64/48/41
f 71/53/42 70/78/42 68/51/42
f 73/55/43 76/57/43 82/79/43
f 77/58/44 80/60/44 76/57/44
f 83/62/45 82/79/45 80/60/45
f 85/64/46 88/66/46 94/80/46
f 89/67/47 92/69/47 88/66/47
f 95/71/48 94/80/48 92/69/48
f 2/81/49 1/1/49 27/20/49
f 30/83/50 29/22/50 9/7/50
f 14/84/51 13/10/51 7/85/51
f 12/87/52 11/106/52 21/16/52
f 98/88/53 37/28/53 19/14/53
f 24/18/54 23/17/54 45/34/54
f 36/90/55 35/109/55 43/32/55
f 48/36/56 47/35/56 31/92/56
f 26/82/57 25/19/57 75/56/57
f 78/95/58 77/58/58 33/25/58
f 99/96/59 85/64/59 39/29/59
f 42/91/60 41/31/60 93/70/60
f 84/63/61 83/62/61 91/68/61
f 96/72/62 95/71/62 79/59/62
f 74/94/63 73/55/63 51/38/63
f 54/99/64 53/40/64 81/61/64
f 100/100/65 61/46/65 87/65/65
f 90/97/66 89/67/66 69/52/66
f 60/45/67 59/44/67 67/50/67
f 72/54/68 71/53/68 55/41/68
f 50/98/69 49/37/69 3/2/69
f 6/102/70 5/4/70 57/43/70
f 97/103/71 17/108/71 63/47/71
f 66/101/72 65/49/72 15/104/72
f 1/1/73 9/7/73 29/22/73
f 74/94/75 50/98/75 2/81/75
f 49/37/76 57/43/76 5/4/76
f 13/10/77 21/16/77 11/106/77
f 66/101/78 14/105/78 6/107/78
f 24/18/79 48/36/79 30/93/79
f 17/108/81 15/104/81 65/49/81
f 37/28/82 45/34/82 23/17/82
f 25/19/83 33/25/83 77/58/83
f 35/109/85 31/92/85 47/35/85
f 42/91/86 96/72/86 78/95/86
f 85/64/88 93/70/88 41/31/88
f 73/55/90 81/61/90 53/40/90
f 90/97/91 72/54/91 54/99/91
f 59/44/92 55/41/92 71/53/92
f 61/46/93 69/52/93 89/67/93
f 83/62/96 79/59/96 95/71/96
f 38/110/98 98/114/98 97/111/98
f 86/113/98 99/96/98 98/114/98
f 62/115/98 100/100/98 99/96/98
f 18/112/98 97/111/98 100/100/98
f 103/116/82 104/110/82 101/117/82
f 105/119/88 106/113/88 104/110/88
f 107/120/93 108/115/93 106/113/93
f 102/118/81 101/117/81 108/115/81
f 18/112/79 101/117/79 104/110/79
f 103/116/98 102/118/98 107/120/98
f 62/115/78 108/115/78 101/117/78
f 38/110/86 104/110/86 106/113/86
f 86/113/91 106/113/91 108/115/91
