# Blender 5.0.1
# www.blender.org
mtllib 9.mtl
o テキスト
v 0.422191 0.335000 0.150000
v 0.422191 -0.331667 0.150000
v 0.338858 -0.331667 0.150000
v 0.338858 -0.415000 0.150000
v -0.411142 -0.415000 0.150000
v -0.411142 -0.248333 0.150000
v 0.088858 -0.248333 0.150000
v 0.088858 -0.081667 0.150000
v -0.327809 -0.081667 0.150000
v -0.327809 0.001667 0.150000
v -0.411142 0.001667 0.150000
v -0.411142 0.335000 0.150000
v -0.327809 0.335000 0.150000
v -0.327809 0.418333 0.150000
v 0.338858 0.418333 0.150000
v 0.338858 0.335000 0.150000
v -0.077809 0.085000 0.150000
v 0.088858 0.085000 0.150000
v 0.088858 0.251667 0.150000
v -0.077809 0.251667 0.150000
v 0.422191 0.335000 -0.150000
v 0.422191 -0.331667 -0.150000
v 0.338858 -0.331667 -0.150000
v 0.338858 -0.415000 -0.150000
v -0.411142 -0.415000 -0.150000
v -0.411142 -0.248333 -0.150000
v 0.088858 -0.248333 -0.150000
v 0.088858 -0.081667 -0.150000
v -0.327809 -0.081667 -0.150000
v -0.327809 0.001667 -0.150000
v -0.411142 0.001667 -0.150000
v -0.411142 0.335000 -0.150000
v -0.327809 0.335000 -0.150000
v -0.327809 0.418333 -0.150000
v 0.338858 0.418333 -0.150000
v 0.338858 0.335000 -0.150000
v -0.077809 0.085000 -0.150000
v 0.088858 0.085000 -0.150000
v 0.088858 0.251667 -0.150000
v -0.077809 0.251667 -0.150000
v 0.422191 0.335000 -0.150000
v 0.422191 0.335000 0.150000
v 0.422191 -0.331667 -0.150000
v 0.422191 -0.331667 0.150000
v 0.338858 -0.331667 -0.150000
v 0.338858 -0.331667 0.150000
v 0.338858 -0.415000 -0.150000
v 0.338858 -0.415000 0.150000
v -0.411142 -0.415000 -0.150000
v -0.411142 -0.415000 0.150000
v -0.411142 -0.248333 -0.150000
v -0.411142 -0.248333 0.150000
v 0.088858 -0.248333 -0.150000
v 0.088858 -0.248333 0.150000
v 0.088858 -0.081667 -0.150000
v 0.088858 -0.081667 0.150000
v -0.327809 -0.081667 -0.150000
v -0.327809 -0.081667 0.150000
v -0.327809 0.001667 -0.150000
v -0.327809 0.001667 0.150000
v -0.411142 0.001667 -0.150000
v -0.411142 0.001667 0.150000
v -0.411142 0.335000 -0.150000
v -0.411142 0.335000 0.150000
v -0.327809 0.335000 -0.150000
v -0.327809 0.335000 0.150000
v -0.327809 0.418333 -0.150000
v -0.327809 0.418333 0.150000
v 0.338858 0.418333 -0.150000
v 0.338858 0.418333 0.150000
v 0.338858 0.335000 -0.150000
v 0.338858 0.335000 0.150000
v -0.077809 0.085000 -0.150000
v -0.077809 0.085000 0.150000
v 0.088858 0.085000 -0.150000
v 0.088858 0.085000 0.150000
v 0.088858 0.251667 -0.150000
v 0.088858 0.251667 0.150000
v -0.077809 0.251667 -0.150000
v -0.077809 0.251667 0.150000
vn -0.0000 -0.0000 1.0000
vn -0.0000 -0.0000 -1.0000
vn 0.7071 -0.7071 -0.0000
vn 0.7071 0.7071 -0.0000
vn -0.7071 -0.7071 -0.0000
vn -0.7071 0.7071 -0.0000
vt 0.631579 0.000000
vt 0.736842 0.000000
vt 0.684211 0.000000
vt 0.789474 0.000000
vt 0.526316 0.000000
vt 0.578947 0.000000
vt 1.000000 0.000000
vt 0.000000 0.000000
vt 0.947368 0.000000
vt 0.052632 0.000000
vt 0.842105 0.000000
vt 0.894737 0.000000
vt 0.473684 0.000000
vt 0.368421 0.000000
vt 0.421053 0.000000
vt 0.315789 0.000000
vt 0.210526 0.000000
vt 0.263158 0.000000
vt 0.105263 0.000000
vt 0.157895 0.000000
vt 0.062500 1.000000
vt 0.000000 1.000000
vt 0.125000 1.000000
vt 0.062500 0.000000
vt 0.187500 1.000000
vt 0.125000 0.000000
vt 0.250000 1.000000
vt 0.187500 0.000000
vt 0.312500 1.000000
vt 0.250000 0.000000
vt 0.375000 1.000000
vt 0.312500 0.000000
vt 0.437500 1.000000
vt 0.375000 0.000000
vt 0.500000 1.000000
vt 0.437500 0.000000
vt 0.562500 1.000000
vt 0.500000 0.000000
vt 0.625000 1.000000
vt 0.562500 0.000000
vt 0.687500 1.000000
vt 0.625000 0.000000
vt 0.750000 1.000000
vt 0.687500 0.000000
vt 0.812500 1.000000
vt 0.750000 0.000000
vt 0.875000 1.000000
vt 0.812500 0.000000
vt 0.937500 1.000000
vt 0.875000 0.000000
vt 1.000000 1.000000
vt 0.937500 0.000000
s 0
usemtl マテリアル
f 13/1/1 15/2/1 14/3/1
f 13/1/1 16/4/1 15/2/1
f 11/5/1 13/1/1 12/6/1
f 11/5/1 20/7/1 13/1/1
f 20/7/1 16/4/1 13/1/1
f 20/7/1 1/8/1 16/4/1
f 20/7/1 19/9/1 1/8/1
f 19/9/1 2/10/1 1/8/1
f 11/5/1 17/11/1 20/7/1
f 18/12/1 2/10/1 19/9/1
f 11/5/1 18/12/1 17/11/1
f 11/5/1 10/13/1 18/12/1
f 10/13/1 8/14/1 18/12/1
f 8/14/1 2/10/1 18/12/1
f 9/15/1 8/14/1 10/13/1
f 7/16/1 2/10/1 8/14/1
f 5/17/1 7/16/1 6/18/1
f 5/17/1 3/19/1 7/16/1
f 3/19/1 2/10/1 7/16/1
f 5/17/1 4/20/1 3/19/1
f 33/1/2 34/3/2 35/2/2
f 33/1/2 35/2/2 36/4/2
f 31/5/2 32/6/2 33/1/2
f 31/5/2 33/1/2 40/7/2
f 40/7/2 33/1/2 36/4/2
f 40/7/2 36/4/2 21/8/2
f 40/7/2 21/8/2 39/9/2
f 39/9/2 21/8/2 22/10/2
f 31/5/2 40/7/2 37/11/2
f 38/12/2 39/9/2 22/10/2
f 31/5/2 37/11/2 38/12/2
f 31/5/2 38/12/2 30/13/2
f 30/13/2 38/12/2 28/14/2
f 28/14/2 38/12/2 22/10/2
f 29/15/2 30/13/2 28/14/2
f 27/16/2 28/14/2 22/10/2
f 25/17/2 26/18/2 27/16/2
f 25/17/2 27/16/2 23/19/2
f 23/19/2 27/16/2 22/10/2
f 25/17/2 23/19/2 24/20/2
s 1
f 44/21/3 41/8/4 42/22/4
f 46/23/3 43/24/3 44/21/3
f 48/25/3 45/26/3 46/23/3
f 50/27/5 47/28/3 48/25/3
f 52/29/6 49/30/5 50/27/5
f 54/31/6 51/32/6 52/29/6
f 56/33/5 53/34/6 54/31/6
f 58/35/5 55/36/5 56/33/5
f 60/37/5 57/38/5 58/35/5
f 62/39/5 59/40/5 60/37/5
f 64/41/6 61/42/5 62/39/5
f 66/43/6 63/44/6 64/41/6
f 68/45/6 65/46/6 66/43/6
f 70/47/4 67/48/6 68/45/6
f 72/49/4 69/50/4 70/47/4
f 42/51/4 71/52/4 72/49/4
f 76/27/6 73/8/4 74/22/4
f 78/35/5 75/30/6 76/27/6
f 80/43/3 77/38/5 78/35/5
f 74/51/4 79/46/3 80/43/3
f 44/21/3 43/24/3 41/8/4
f 46/23/3 45/26/3 43/24/3
f 48/25/3 47/28/3 45/26/3
f 50/27/5 49/30/5 47/28/3
f 52/29/6 51/32/6 49/30/5
f 54/31/6 53/34/6 51/32/6
f 56/33/5 55/36/5 53/34/6
f 58/35/5 57/38/5 55/36/5
f 60/37/5 59/40/5 57/38/5
f 62/39/5 61/42/5 59/40/5
f 64/41/6 63/44/6 61/42/5
f 66/43/6 65/46/6 63/44/6
f 68/45/6 67/48/6 65/46/6
f 70/47/4 69/50/4 67/48/6
f 72/49/4 71/52/4 69/50/4
f 42/51/4 41/7/4 71/52/4
f 76/27/6 75/30/6 73/8/4
f 78/35/5 77/38/5 75/30/6
f 80/43/3 79/46/3 77/38/5
f 74/51/4 73/7/4 79/46/3
