# Blender 5.0.1
# www.blender.org
mtllib block.mtl
o Cube
v 0.843157 0.843157 -1.000000
v 0.743455 1.000000 -0.743455
v 1.000000 0.843157 -0.843157
v 0.843157 -1.000000 -0.843157
v 0.843157 -0.843157 -1.000000
v 1.000000 -0.843157 -0.843157
v 1.000000 0.843157 0.843157
v 0.743455 1.000000 0.743455
v 0.843157 0.843157 1.000000
v 1.000000 -0.843157 0.843157
v 0.843157 -0.843157 1.000000
v 0.843157 -1.000000 0.843157
v -0.843157 0.843157 -1.000000
v -1.000000 0.843157 -0.843157
v -0.743455 1.000000 -0.743455
v -1.000000 -0.843157 -0.843157
v -0.843157 -0.843157 -1.000000
v -0.843157 -1.000000 -0.843157
v -1.000000 0.843157 0.843157
v -0.843157 0.843157 1.000000
v -0.743455 1.000000 0.743455
v -0.843157 -1.000000 0.843157
v -0.843157 -0.843157 1.000000
v -1.000000 -0.843157 0.843157
v 0.843157 1.000000 0.843157
v -0.843157 1.000000 0.843157
v 0.843157 1.000000 -0.843157
v -0.843157 1.000000 -0.843157
v 0.670119 0.925166 0.670119
v -0.670119 0.925166 0.670119
v 0.670119 0.925166 -0.670119
v -0.670119 0.925166 -0.670119
v 0.743455 0.925166 0.743455
v -0.743455 0.925166 0.743455
v 0.743455 0.925166 -0.743455
v -0.743455 0.925166 -0.743455
v 0.670119 0.988323 0.670119
v -0.670119 0.988323 0.670119
v 0.670119 0.988323 -0.670119
v -0.670119 0.988323 -0.670119
vn 0.5774 0.5774 -0.5774
vn 0.5774 -0.5773 -0.5774
vn 0.5774 0.5773 0.5774
vn 0.5774 -0.5774 0.5774
vn -0.5774 0.5774 -0.5774
vn -0.5774 -0.5773 -0.5774
vn -0.5774 0.5773 0.5774
vn -0.5774 -0.5774 0.5774
vn -0.7071 -0.7071 -0.0000
vn -0.0000 -0.7071 -0.7071
vn 0.7071 -0.0000 -0.7071
vn -0.7071 -0.0000 0.7071
vn 0.7071 -0.0000 0.7071
vn -0.7071 -0.0000 -0.7071
vn -0.0000 0.7071 0.7071
vn 0.7071 0.7071 -0.0000
vn -0.0000 -0.7071 0.7071
vn -0.7071 0.7071 -0.0000
vn -0.0000 0.7071 -0.7071
vn 0.7071 -0.7071 -0.0000
vn -0.0000 -0.0000 -1.0000
vn 1.0000 -0.0000 -0.0000
vn -1.0000 -0.0000 -0.0000
vn -0.0000 -1.0000 -0.0000
vn -0.0000 -0.0000 1.0000
vn -0.0000 1.0000 -0.0000
vt 0.605395 0.480395
vt 0.634803 0.500000
vt 0.605395 0.514704
vt 0.355395 0.519605
vt 0.375000 0.490197
vt 0.389704 0.519605
vt 0.605395 0.735296
vt 0.634803 0.750000
vt 0.605395 0.769606
vt 0.389704 0.730395
vt 0.375000 0.759803
vt 0.355395 0.730395
vt 0.605395 0.264704
vt 0.605395 0.230395
vt 0.625000 0.243465
vt 0.125000 0.519605
vt 0.144605 0.500000
vt 0.144605 0.519605
vt 0.605395 0.019605
vt 0.605395 0.000000
vt 0.625000 0.019605
vt 0.144605 0.730395
vt 0.144605 0.750000
vt 0.125000 0.730395
vt 0.394605 0.019605
vt 0.394605 0.000000
vt 0.394605 0.269605
vt 0.625000 0.980395
vt 0.647845 0.515492
vt 0.647845 0.734508
vt 0.394605 0.980395
vt 0.394605 0.230395
vt 0.842352 0.718642
vt 0.842352 0.531358
vt 0.855395 0.730395
vt 0.855395 0.519605
vt 0.657438 0.723221
vt 0.832759 0.709891
vt 0.657438 0.526780
vt 0.832759 0.540109
vt 0.605395 0.980395
s 1
usemtl Material.004
f 1/1/1 27/2/1 3/3/1
f 4/4/2 5/5/2 6/6/2
f 7/7/3 25/8/3 9/9/3
f 10/10/4 11/11/4 12/12/4
f 13/13/5 14/14/5 28/15/5
f 16/16/6 17/17/6 18/18/6
f 19/19/7 20/20/7 26/21/7
f 22/22/8 23/23/8 24/24/8
f 22/22/9 16/16/9 18/18/9
f 18/18/10 5/5/10 4/4/10
f 6/6/11 1/1/11 3/3/11
f 20/20/12 24/25/12 23/26/12
f 11/11/13 7/7/13 9/9/13
f 17/27/14 14/14/14 13/13/14
f 26/28/15 9/9/15 25/8/15
f 25/8/16 3/3/16 27/2/16
f 12/12/17 23/23/17 22/22/17
f 28/15/18 19/19/18 26/21/18
f 27/2/19 13/13/19 28/15/19
f 4/4/20 10/10/20 12/12/20
f 13/13/21 5/5/21 17/27/21
f 3/3/22 10/10/22 6/6/22
f 2/29/23 33/30/23 8/30/23
f 4/4/24 22/22/24 18/18/24
f 9/9/25 23/31/25 11/11/25
f 19/19/23 16/32/23 24/25/23
f 21/33/26 25/8/26 8/30/26
f 8/30/26 27/2/26 2/29/26
f 15/34/26 26/35/26 21/33/26
f 2/29/26 28/36/26 15/34/26
f 29/37/25 38/38/25 30/38/25
f 21/33/22 36/34/22 15/34/22
f 8/30/21 34/33/21 21/33/21
f 15/34/25 35/29/25 2/29/25
f 30/38/26 33/30/26 29/37/26
f 29/37/26 35/29/26 31/39/26
f 32/40/26 34/33/26 30/38/26
f 31/39/26 36/34/26 32/40/26
f 40/40/26 37/37/26 39/39/26
f 32/40/21 39/39/21 31/39/21
f 31/39/22 37/37/22 29/37/22
f 30/38/23 40/40/23 32/40/23
f 22/22/9 24/24/9 16/16/9
f 18/18/10 17/17/10 5/5/10
f 6/6/11 5/5/11 1/1/11
f 20/20/12 19/19/12 24/25/12
f 11/11/13 10/10/13 7/7/13
f 17/27/14 16/32/14 14/14/14
f 26/28/15 20/41/15 9/9/15
f 25/8/16 7/7/16 3/3/16
f 12/12/17 11/11/17 23/23/17
f 28/15/18 14/14/18 19/19/18
f 27/2/19 1/1/19 13/13/19
f 4/4/20 6/6/20 10/10/20
f 13/13/21 1/1/21 5/5/21
f 3/3/22 7/7/22 10/10/22
f 2/29/23 35/29/23 33/30/23
f 4/4/24 12/12/24 22/22/24
f 9/9/25 20/41/25 23/31/25
f 19/19/23 14/14/23 16/32/23
f 21/33/26 26/35/26 25/8/26
f 8/30/26 25/8/26 27/2/26
f 15/34/26 28/36/26 26/35/26
f 2/29/26 27/2/26 28/36/26
f 29/37/25 37/37/25 38/38/25
f 21/33/22 34/33/22 36/34/22
f 8/30/21 33/30/21 34/33/21
f 15/34/25 36/34/25 35/29/25
f 30/38/26 34/33/26 33/30/26
f 29/37/26 33/30/26 35/29/26
f 32/40/26 36/34/26 34/33/26
f 31/39/26 35/29/26 36/34/26
f 40/40/26 38/38/26 37/37/26
f 32/40/21 40/40/21 39/39/21
f 31/39/22 39/39/22 37/37/22
f 30/38/23 38/38/23 40/40/23
