# Blender 5.0.1
# www.blender.org
mtllib 0.mtl
o テキスト
v 0.418333 0.335000 0.150000
v 0.418333 -0.331667 0.150000
v 0.335000 -0.331667 0.150000
v 0.335000 -0.415000 0.150000
v -0.331667 -0.415000 0.150000
v -0.331667 -0.331667 0.150000
v -0.415000 -0.331667 0.150000
v -0.415000 0.335000 0.150000
v -0.331667 0.335000 0.150000
v -0.331667 0.418333 0.150000
v 0.335000 0.418333 0.150000
v 0.335000 0.335000 0.150000
v -0.081667 0.085000 0.150000
v 0.085000 0.085000 0.150000
v 0.085000 0.251667 0.150000
v -0.081667 0.251667 0.150000
v -0.081667 -0.248333 0.150000
v 0.085000 -0.248333 0.150000
v 0.085000 -0.081667 0.150000
v -0.081667 -0.081667 0.150000
v 0.418333 0.335000 -0.150000
v 0.418333 -0.331667 -0.150000
v 0.335000 -0.331667 -0.150000
v 0.335000 -0.415000 -0.150000
v -0.331667 -0.415000 -0.150000
v -0.331667 -0.331667 -0.150000
v -0.415000 -0.331667 -0.150000
v -0.415000 0.335000 -0.150000
v -0.331667 0.335000 -0.150000
v -0.331667 0.418333 -0.150000
v 0.335000 0.418333 -0.150000
v 0.335000 0.335000 -0.150000
v -0.081667 0.085000 -0.150000
v 0.085000 0.085000 -0.150000
v 0.085000 0.251667 -0.150000
v -0.081667 0.251667 -0.150000
v -0.081667 -0.248333 -0.150000
v 0.085000 -0.248333 -0.150000
v 0.085000 -0.081667 -0.150000
v -0.081667 -0.081667 -0.150000
v 0.418333 0.335000 -0.150000
v 0.418333 0.335000 0.150000
v 0.418333 -0.331667 -0.150000
v 0.418333 -0.331667 0.150000
v 0.335000 -0.331667 -0.150000
v 0.335000 -0.331667 0.150000
v 0.335000 -0.415000 -0.150000
v 0.335000 -0.415000 0.150000
v -0.331667 -0.415000 -0.150000
v -0.331667 -0.415000 0.150000
v -0.331667 -0.331667 -0.150000
v -0.331667 -0.331667 0.150000
v -0.415000 -0.331667 -0.150000
v -0.415000 -0.331667 0.150000
v -0.415000 0.335000 -0.150000
v -0.415000 0.335000 0.150000
v -0.331667 0.335000 -0.150000
v -0.331667 0.335000 0.150000
v -0.331667 0.418333 -0.150000
v -0.331667 0.418333 0.150000
v 0.335000 0.418333 -0.150000
v 0.335000 0.418333 0.150000
v 0.335000 0.335000 -0.150000
v 0.335000 0.335000 0.150000
v -0.081667 0.085000 -0.150000
v -0.081667 0.085000 0.150000
v 0.085000 0.085000 -0.150000
v 0.085000 0.085000 0.150000
v 0.085000 0.251667 -0.150000
v 0.085000 0.251667 0.150000
v -0.081667 0.251667 -0.150000
v -0.081667 0.251667 0.150000
v -0.081667 -0.248333 -0.150000
v -0.081667 -0.248333 0.150000
v 0.085000 -0.248333 -0.150000
v 0.085000 -0.248333 0.150000
v 0.085000 -0.081667 -0.150000
v 0.085000 -0.081667 0.150000
v -0.081667 -0.081667 -0.150000
v -0.081667 -0.081667 0.150000
vn -0.0000 -0.0000 1.0000
vn -0.0000 -0.0000 -1.0000
vn 0.7071 -0.7071 -0.0000
vn 0.7071 0.7071 -0.0000
vn -0.7071 -0.7071 -0.0000
vn -0.7071 0.7071 -0.0000
vt 0.421053 0.000000
vt 0.526316 0.000000
vt 0.473684 0.000000
vt 0.578947 0.000000
vt 0.315789 0.000000
vt 0.368421 0.000000
vt 0.789474 0.000000
vt 0.000000 0.000000
vt 0.736842 0.000000
vt 0.052632 0.000000
vt 0.631579 0.000000
vt 0.684211 0.000000
vt 1.000000 0.000000
vt 0.947368 0.000000
vt 0.842105 0.000000
vt 0.894737 0.000000
vt 0.263158 0.000000
vt 0.210526 0.000000
vt 0.105263 0.000000
vt 0.157895 0.000000
vt 0.083333 1.000000
vt 0.000000 1.000000
vt 0.166667 1.000000
vt 0.083333 0.000000
vt 0.250000 1.000000
vt 0.166667 0.000000
vt 0.333333 1.000000
vt 0.250000 0.000000
vt 0.416667 1.000000
vt 0.333333 0.000000
vt 0.500000 1.000000
vt 0.416667 0.000000
vt 0.583333 1.000000
vt 0.500000 0.000000
vt 0.666667 1.000000
vt 0.583333 0.000000
vt 0.750000 1.000000
vt 0.666667 0.000000
vt 0.833333 1.000000
vt 0.750000 0.000000
vt 0.916667 1.000000
vt 0.833333 0.000000
vt 1.000000 1.000000
vt 0.916667 0.000000
s 0
usemtl マテリアル
f 9/1/1 11/2/1 10/3/1
f 9/1/1 12/4/1 11/2/1
f 7/5/1 9/1/1 8/6/1
f 7/5/1 16/7/1 9/1/1
f 16/7/1 12/4/1 9/1/1
f 16/7/1 1/8/1 12/4/1
f 16/7/1 15/9/1 1/8/1
f 15/9/1 2/10/1 1/8/1
f 7/5/1 13/11/1 16/7/1
f 14/12/1 2/10/1 15/9/1
f 7/5/1 14/12/1 13/11/1
f 7/5/1 20/13/1 14/12/1
f 20/13/1 19/14/1 14/12/1
f 19/14/1 2/10/1 14/12/1
f 7/5/1 17/15/1 20/13/1
f 18/16/1 2/10/1 19/14/1
f 7/5/1 18/16/1 17/15/1
f 7/5/1 2/10/1 18/16/1
f 6/17/1 2/10/1 7/5/1
f 5/18/1 3/19/1 6/17/1
f 3/19/1 2/10/1 6/17/1
f 5/18/1 4/20/1 3/19/1
f 29/1/2 30/3/2 31/2/2
f 29/1/2 31/2/2 32/4/2
f 27/5/2 28/6/2 29/1/2
f 27/5/2 29/1/2 36/7/2
f 36/7/2 29/1/2 32/4/2
f 36/7/2 32/4/2 21/8/2
f 36/7/2 21/8/2 35/9/2
f 35/9/2 21/8/2 22/10/2
f 27/5/2 36/7/2 33/11/2
f 34/12/2 35/9/2 22/10/2
f 27/5/2 33/11/2 34/12/2
f 27/5/2 34/12/2 40/13/2
f 40/13/2 34/12/2 39/14/2
f 39/14/2 34/12/2 22/10/2
f 27/5/2 40/13/2 37/15/2
f 38/16/2 39/14/2 22/10/2
f 27/5/2 37/15/2 38/16/2
f 27/5/2 38/16/2 22/10/2
f 26/17/1 27/5/1 22/10/1
f 25/18/2 26/17/2 23/19/2
f 23/19/1 26/17/1 22/10/1
f 25/18/2 23/19/2 24/20/2
s 1
f 44/21/3 41/8/4 42/22/4
f 46/23/3 43/24/3 44/21/3
f 48/25/3 45/26/3 46/23/3
f 50/27/5 47/28/3 48/25/3
f 52/29/5 49/30/5 50/27/5
f 54/31/5 51/32/5 52/29/5
f 56/33/6 53/34/5 54/31/5
f 58/35/6 55/36/6 56/33/6
f 60/37/6 57/38/6 58/35/6
f 62/39/4 59/40/6 60/37/6
f 64/41/4 61/42/4 62/39/4
f 42/43/4 63/44/4 64/41/4
f 68/25/6 65/8/4 66/22/4
f 70/31/5 67/28/6 68/25/6
f 72/37/3 69/34/5 70/31/5
f 66/43/4 71/40/3 72/37/3
f 76/25/6 73/8/4 74/22/4
f 78/31/5 75/28/6 76/25/6
f 80/37/3 77/34/5 78/31/5
f 74/43/4 79/40/3 80/37/3
f 44/21/3 43/24/3 41/8/4
f 46/23/3 45/26/3 43/24/3
f 48/25/3 47/28/3 45/26/3
f 50/27/5 49/30/5 47/28/3
f 52/29/5 51/32/5 49/30/5
f 54/31/5 53/34/5 51/32/5
f 56/33/6 55/36/6 53/34/5
f 58/35/6 57/38/6 55/36/6
f 60/37/6 59/40/6 57/38/6
f 62/39/4 61/42/4 59/40/6
f 64/41/4 63/44/4 61/42/4
f 42/43/4 41/13/4 63/44/4
f 68/25/6 67/28/6 65/8/4
f 70/31/5 69/34/5 67/28/6
f 72/37/3 71/40/3 69/34/5
f 66/43/4 65/13/4 71/40/3
f 76/25/6 75/28/6 73/8/4
f 78/31/5 77/34/5 75/28/6
f 80/37/3 79/40/3 77/34/5
f 74/43/4 73/13/4 79/40/3
