# Blender 5.0.1
# www.blender.org
mtllib bpmObject.mtl
o 立方体
v -12.000000 1.050000 12.000000
v -12.000000 1.150000 12.000000
v -12.000000 1.050000 -12.000000
v -12.000000 1.150000 -12.000000
v 12.000000 1.050000 12.000000
v 12.000000 1.150000 12.000000
v 12.000000 1.050000 -12.000000
v 12.000000 1.150000 -12.000000
v -11.879999 1.050000 11.879999
v 11.879999 1.050000 11.879999
v 11.879999 1.050000 -11.879999
v -11.879999 1.050000 -11.879999
v -11.879999 1.150000 -11.879999
v 11.879999 1.150000 11.879999
v -11.879999 1.150000 11.879999
v 11.879999 1.150000 -11.879999
vn -1.0000 -0.0000 -0.0000
vn -0.0000 -0.0000 -1.0000
vn 1.0000 -0.0000 -0.0000
vn -0.0000 -0.0000 1.0000
vn -0.0000 -1.0000 -0.0000
vn -0.0000 1.0000 -0.0000
vt 0.625000 0.000000
vt 0.375000 0.250000
vt 0.375000 0.000000
vt 0.625000 0.250000
vt 0.375000 0.500000
vt 0.625000 0.500000
vt 0.375000 0.750000
vt 0.625000 0.750000
vt 0.375000 1.000000
vt 0.125000 0.500000
vt 0.126250 0.501250
vt 0.125000 0.750000
vt 0.373750 0.748750
vt 0.875000 0.750000
vt 0.626250 0.748750
vt 0.873750 0.748750
vt 0.873750 0.501250
vt 0.626250 0.501250
vt 0.493750 0.000000
vt 0.506250 0.250000
vt 0.506250 0.000000
vt 0.493750 0.250000
vt 0.506250 0.500000
vt 0.493750 0.750000
vt 0.493750 0.500000
vt 0.493750 1.000000
vt 0.506250 0.750000
vt 0.625000 1.000000
vt 0.126250 0.748750
vt 0.373750 0.501250
vt 0.875000 0.500000
vt 0.506250 1.000000
s 0
f 2/1/1 3/2/1 1/3/1
f 4/4/2 7/5/2 3/2/2
f 8/6/3 5/7/3 7/5/3
f 6/8/4 1/9/4 5/7/4
f 3/10/5 7/5/5 12/11/5
f 1/12/5 10/13/5 5/7/5
f 2/14/6 14/15/6 15/16/6
f 8/6/6 13/17/6 16/18/6
f 9/19/3 13/20/3 15/21/3
f 12/22/4 16/23/4 13/20/4
f 10/24/1 16/23/1 11/25/1
f 9/26/2 14/27/2 10/24/2
f 2/1/1 4/4/1 3/2/1
f 4/4/2 8/6/2 7/5/2
f 8/6/3 6/8/3 5/7/3
f 6/8/4 2/28/4 1/9/4
f 9/29/5 1/12/5 3/10/5
f 7/5/5 5/7/5 10/13/5
f 7/5/5 10/13/5 11/30/5
f 12/11/5 9/29/5 3/10/5
f 7/5/5 11/30/5 12/11/5
f 1/12/5 9/29/5 10/13/5
f 15/16/6 13/17/6 4/31/6
f 2/14/6 6/8/6 14/15/6
f 15/16/6 4/31/6 2/14/6
f 16/18/6 14/15/6 6/8/6
f 8/6/6 4/31/6 13/17/6
f 16/18/6 6/8/6 8/6/6
f 9/19/3 12/22/3 13/20/3
f 12/22/4 11/25/4 16/23/4
f 10/24/1 14/27/1 16/23/1
f 9/26/2 15/32/2 14/27/2
