# Blender 5.0.1
# www.blender.org
mtllib menuTitle.mtl
o テキスト
v 2.183333 -0.207939 0.150000
v 2.183333 -0.374606 0.150000
v 1.433333 -0.374606 0.150000
v 1.433333 -0.291273 0.150000
v 1.350000 -0.291273 0.150000
v 1.350000 0.375394 0.150000
v 1.433333 0.375394 0.150000
v 1.433333 0.458727 0.150000
v 2.183333 0.458727 0.150000
v 2.183333 0.292061 0.150000
v 1.683333 0.292061 0.150000
v 1.683333 0.125394 0.150000
v 1.933333 0.125394 0.150000
v 1.933333 -0.041273 0.150000
v 1.683333 -0.041273 0.150000
v 1.683333 -0.207939 0.150000
v 1.183333 -0.207939 0.150000
v 1.183333 -0.374606 0.150000
v 0.350000 -0.374606 0.150000
v 0.350000 0.458727 0.150000
v 0.683333 0.458727 0.150000
v 0.683333 -0.207939 0.150000
v 0.183333 0.458727 0.150000
v 0.183333 0.292061 0.150000
v -0.066667 0.292061 0.150000
v -0.066667 -0.374606 0.150000
v -0.400000 -0.374606 0.150000
v -0.400000 0.292061 0.150000
v -0.650000 0.292061 0.150000
v -0.650000 0.458727 0.150000
v -0.816667 0.458727 0.150000
v -0.816667 -0.374606 0.150000
v -1.150000 -0.374606 0.150000
v -1.150000 0.458727 0.150000
v -1.316667 0.458727 0.150000
v -1.316667 0.292061 0.150000
v -1.566667 0.292061 0.150000
v -1.566667 -0.374606 0.150000
v -1.900000 -0.374606 0.150000
v -1.900000 0.292061 0.150000
v -2.150000 0.292061 0.150000
v -2.150000 0.458727 0.150000
v 2.183333 -0.207939 -0.150000
v 2.183333 -0.374606 -0.150000
v 1.433333 -0.374606 -0.150000
v 1.433333 -0.291273 -0.150000
v 1.350000 -0.291273 -0.150000
v 1.350000 0.375394 -0.150000
v 1.433333 0.375394 -0.150000
v 1.433333 0.458727 -0.150000
v 2.183333 0.458727 -0.150000
v 2.183333 0.292061 -0.150000
v 1.683333 0.292061 -0.150000
v 1.683333 0.125394 -0.150000
v 1.933333 0.125394 -0.150000
v 1.933333 -0.041273 -0.150000
v 1.683333 -0.041273 -0.150000
v 1.683333 -0.207939 -0.150000
v 1.183333 -0.207939 -0.150000
v 1.183333 -0.374606 -0.150000
v 0.350000 -0.374606 -0.150000
v 0.350000 0.458727 -0.150000
v 0.683333 0.458727 -0.150000
v 0.683333 -0.207939 -0.150000
v 0.183333 0.458727 -0.150000
v 0.183333 0.292061 -0.150000
v -0.066667 0.292061 -0.150000
v -0.066667 -0.374606 -0.150000
v -0.400000 -0.374606 -0.150000
v -0.400000 0.292061 -0.150000
v -0.650000 0.292061 -0.150000
v -0.650000 0.458727 -0.150000
v -0.816667 0.458727 -0.150000
v -0.816667 -0.374606 -0.150000
v -1.150000 -0.374606 -0.150000
v -1.150000 0.458727 -0.150000
v -1.316667 0.458727 -0.150000
v -1.316667 0.292061 -0.150000
v -1.566667 0.292061 -0.150000
v -1.566667 -0.374606 -0.150000
v -1.900000 -0.374606 -0.150000
v -1.900000 0.292061 -0.150000
v -2.150000 0.292061 -0.150000
v -2.150000 0.458727 -0.150000
v -1.316667 0.458727 -0.150000
v -1.316667 0.458727 0.150000
v -1.316667 0.292061 -0.150000
v -1.316667 0.292061 0.150000
v -1.566667 0.292061 -0.150000
v -1.566667 0.292061 0.150000
v -1.566667 -0.374606 -0.150000
v -1.566667 -0.374606 0.150000
v -1.900000 -0.374606 -0.150000
v -1.900000 -0.374606 0.150000
v -1.900000 0.292061 -0.150000
v -1.900000 0.292061 0.150000
v -2.150000 0.292061 -0.150000
v -2.150000 0.292061 0.150000
v -2.150000 0.458727 -0.150000
v -2.150000 0.458727 0.150000
v -0.816667 0.458727 -0.150000
v -0.816667 0.458727 0.150000
v -0.816667 -0.374606 -0.150000
v -0.816667 -0.374606 0.150000
v -1.150000 -0.374606 -0.150000
v -1.150000 -0.374606 0.150000
v -1.150000 0.458727 -0.150000
v -1.150000 0.458727 0.150000
v 0.183333 0.458727 -0.150000
v 0.183333 0.458727 0.150000
v 0.183333 0.292061 -0.150000
v 0.183333 0.292061 0.150000
v -0.066667 0.292061 -0.150000
v -0.066667 0.292061 0.150000
v -0.066667 -0.374606 -0.150000
v -0.066667 -0.374606 0.150000
v -0.400000 -0.374606 -0.150000
v -0.400000 -0.374606 0.150000
v -0.400000 0.292061 -0.150000
v -0.400000 0.292061 0.150000
v -0.650000 0.292061 -0.150000
v -0.650000 0.292061 0.150000
v -0.650000 0.458727 -0.150000
v -0.650000 0.458727 0.150000
v 1.183333 -0.207939 -0.150000
v 1.183333 -0.207939 0.150000
v 1.183333 -0.374606 -0.150000
v 1.183333 -0.374606 0.150000
v 0.350000 -0.374606 -0.150000
v 0.350000 -0.374606 0.150000
v 0.350000 0.458727 -0.150000
v 0.350000 0.458727 0.150000
v 0.683333 0.458727 -0.150000
v 0.683333 0.458727 0.150000
v 0.683333 -0.207939 -0.150000
v 0.683333 -0.207939 0.150000
v 2.183333 -0.207939 -0.150000
v 2.183333 -0.207939 0.150000
v 2.183333 -0.374606 -0.150000
v 2.183333 -0.374606 0.150000
v 1.433333 -0.374606 -0.150000
v 1.433333 -0.374606 0.150000
v 1.433333 -0.291273 -0.150000
v 1.433333 -0.291273 0.150000
v 1.350000 -0.291273 -0.150000
v 1.350000 -0.291273 0.150000
v 1.350000 0.375394 -0.150000
v 1.350000 0.375394 0.150000
v 1.433333 0.375394 -0.150000
v 1.433333 0.375394 0.150000
v 1.433333 0.458727 -0.150000
v 1.433333 0.458727 0.150000
v 2.183333 0.458727 -0.150000
v 2.183333 0.458727 0.150000
v 2.183333 0.292061 -0.150000
v 2.183333 0.292061 0.150000
v 1.683333 0.292061 -0.150000
v 1.683333 0.292061 0.150000
v 1.683333 0.125394 -0.150000
v 1.683333 0.125394 0.150000
v 1.933333 0.125394 -0.150000
v 1.933333 0.125394 0.150000
v 1.933333 -0.041273 -0.150000
v 1.933333 -0.041273 0.150000
v 1.683333 -0.041273 -0.150000
v 1.683333 -0.041273 0.150000
v 1.683333 -0.207939 -0.150000
v 1.683333 -0.207939 0.150000
vn -0.0000 -0.0000 1.0000
vn -0.0000 -1.0000 -0.0000
vn -0.0000 1.0000 -0.0000
vn -0.0000 -0.0000 -1.0000
vn 0.7071 -0.7071 -0.0000
vn 0.7071 0.7071 -0.0000
vn -0.7071 -0.7071 -0.0000
vn -0.7071 0.7071 -0.0000
vt 0.400000 0.000000
vt 0.533333 0.000000
vt 0.466667 0.000000
vt 0.600000 0.000000
vt 0.266667 0.000000
vt 0.333333 0.000000
vt 0.666667 0.000000
vt 0.733333 0.000000
vt 0.933333 0.000000
vt 0.800000 0.000000
vt 0.866667 0.000000
vt 1.000000 0.000000
vt 0.000000 0.000000
vt 0.200000 0.000000
vt 0.066667 0.000000
vt 0.133333 0.000000
vt 0.857143 0.000000
vt 0.142857 0.000000
vt 0.714286 0.000000
vt 0.571429 0.000000
vt 0.285714 0.000000
vt 0.428571 0.000000
vt 0.125000 1.000000
vt 0.000000 1.000000
vt 0.250000 1.000000
vt 0.125000 0.000000
vt 0.375000 1.000000
vt 0.250000 0.000000
vt 0.500000 1.000000
vt 0.375000 0.000000
vt 0.625000 1.000000
vt 0.500000 0.000000
vt 0.750000 1.000000
vt 0.625000 0.000000
vt 0.875000 1.000000
vt 0.750000 0.000000
vt 1.000000 1.000000
vt 0.875000 0.000000
vt 0.166667 1.000000
vt 0.333333 1.000000
vt 0.166667 0.000000
vt 0.666667 1.000000
vt 0.833333 1.000000
vt 0.833333 0.000000
vt 0.062500 1.000000
vt 0.062500 0.000000
vt 0.187500 1.000000
vt 0.187500 0.000000
vt 0.312500 1.000000
vt 0.312500 0.000000
vt 0.437500 1.000000
vt 0.437500 0.000000
vt 0.562500 1.000000
vt 0.562500 0.000000
vt 0.687500 1.000000
vt 0.687500 0.000000
vt 0.812500 1.000000
vt 0.812500 0.000000
vt 0.937500 1.000000
vt 0.937500 0.000000
s 1
usemtl マテリアル.001
f 7/1/1 9/2/1 8/3/1
f 7/1/1 10/4/1 9/2/1
f 5/5/1 7/1/1 6/6/1
f 5/5/1 11/7/1 7/1/1
f 11/7/1 10/4/1 7/1/1
f 5/5/1 12/8/1 11/7/1
f 5/5/1 15/9/1 12/8/1
f 15/9/1 13/10/1 12/8/1
f 15/9/1 14/11/1 13/10/1
f 5/5/1 16/12/1 15/9/1
f 5/5/1 1/13/1 16/12/1
f 5/5/1 4/14/1 1/13/1
f 4/14/1 2/15/1 1/13/1
f 3/16/1 2/15/1 4/14/1
f 19/1/1 21/10/1 20/4/1
f 19/1/1 22/12/1 21/10/1
f 19/1/1 17/13/1 22/12/1
f 19/1/1 18/14/1 17/13/1
f 29/17/1 23/13/1 30/12/1
f 29/17/1 24/18/1 23/13/1
s 0
f 28/19/2 24/18/2 29/17/2
s 1
f 27/20/1 25/21/1 28/19/1
s 0
f 25/21/3 24/18/3 28/19/3
s 1
f 27/20/1 26/22/1 25/21/1
f 33/7/1 31/13/1 34/12/1
f 33/7/1 32/6/1 31/13/1
f 41/17/1 35/13/1 42/12/1
f 41/17/1 36/18/1 35/13/1
s 0
f 40/19/3 36/18/3 41/17/3
s 1
f 39/20/1 37/21/1 40/19/1
s 0
f 37/21/3 36/18/3 40/19/3
s 1
f 39/20/1 38/22/1 37/21/1
f 49/1/4 50/3/4 51/2/4
f 49/1/4 51/2/4 52/4/4
f 47/5/4 48/6/4 49/1/4
f 47/5/4 49/1/4 53/7/4
f 53/7/4 49/1/4 52/4/4
f 47/5/4 53/7/4 54/8/4
f 47/5/4 54/8/4 57/9/4
f 57/9/4 54/8/4 55/10/4
f 57/9/4 55/10/4 56/11/4
f 47/5/4 57/9/4 58/12/4
f 47/5/4 58/12/4 43/13/4
f 47/5/4 43/13/4 46/14/4
f 46/14/4 43/13/4 44/15/4
f 45/16/4 46/14/4 44/15/4
f 61/1/4 62/4/4 63/10/4
f 61/1/4 63/10/4 64/12/4
f 61/1/4 64/12/4 59/13/4
f 61/1/4 59/13/4 60/14/4
f 71/17/4 72/12/4 65/13/4
f 71/17/4 65/13/4 66/18/4
s 0
f 70/19/3 71/17/3 66/18/3
s 1
f 69/20/4 70/19/4 67/21/4
s 0
f 67/21/3 70/19/3 66/18/3
s 1
f 69/20/4 67/21/4 68/22/4
f 75/7/4 76/12/4 73/13/4
f 75/7/4 73/13/4 74/6/4
f 83/17/4 84/12/4 77/13/4
f 83/17/4 77/13/4 78/18/4
s 0
f 82/19/3 83/17/3 78/18/3
s 1
f 81/20/4 82/19/4 79/21/4
s 0
f 79/21/2 82/19/2 78/18/2
s 1
f 81/20/4 79/21/4 80/22/4
f 88/23/5 85/13/6 86/24/6
f 90/25/5 87/26/5 88/23/5
f 92/27/5 89/28/5 90/25/5
f 94/29/7 91/30/5 92/27/5
f 96/31/7 93/32/7 94/29/7
f 98/33/7 95/34/7 96/31/7
f 100/35/8 97/36/7 98/33/7
f 86/37/6 99/38/8 100/35/8
f 104/25/5 101/13/6 102/24/6
f 106/29/7 103/28/5 104/25/5
f 108/33/8 105/32/7 106/29/7
f 102/37/6 107/36/8 108/33/8
f 112/23/5 109/13/6 110/24/6
f 114/25/5 111/26/5 112/23/5
f 116/27/5 113/28/5 114/25/5
f 118/29/7 115/30/5 116/27/5
f 120/31/7 117/32/7 118/29/7
f 122/33/7 119/34/7 120/31/7
f 124/35/8 121/36/7 122/33/7
f 110/37/6 123/38/8 124/35/8
f 128/39/5 125/13/6 126/24/6
f 130/40/7 127/41/5 128/39/5
f 132/29/8 129/6/7 130/40/7
f 134/42/6 131/32/8 132/29/8
f 136/43/6 133/7/6 134/42/6
f 126/37/6 135/44/6 136/43/6
f 140/45/5 137/13/6 138/24/6
f 142/23/7 139/46/5 140/45/5
f 144/47/7 141/26/7 142/23/7
f 146/25/7 143/48/7 144/47/7
f 148/49/8 145/28/7 146/25/7
f 150/27/8 147/50/8 148/49/8
f 152/51/8 149/30/8 150/27/8
f 154/29/6 151/52/8 152/51/8
f 156/53/5 153/32/6 154/29/6
f 158/31/5 155/54/5 156/53/5
f 160/55/6 157/34/5 158/31/5
f 162/33/6 159/56/6 160/55/6
f 164/57/5 161/36/6 162/33/6
f 166/35/5 163/58/5 164/57/5
f 168/59/6 165/38/5 166/35/5
f 138/37/6 167/60/6 168/59/6
f 88/23/5 87/26/5 85/13/6
f 90/25/5 89/28/5 87/26/5
f 92/27/5 91/30/5 89/28/5
f 94/29/7 93/32/7 91/30/5
f 96/31/7 95/34/7 93/32/7
f 98/33/7 97/36/7 95/34/7
f 100/35/8 99/38/8 97/36/7
f 86/37/6 85/12/6 99/38/8
f 104/25/5 103/28/5 101/13/6
f 106/29/7 105/32/7 103/28/5
f 108/33/8 107/36/8 105/32/7
f 102/37/6 101/12/6 107/36/8
f 112/23/5 111/26/5 109/13/6
f 114/25/5 113/28/5 111/26/5
f 116/27/5 115/30/5 113/28/5
f 118/29/7 117/32/7 115/30/5
f 120/31/7 119/34/7 117/32/7
f 122/33/7 121/36/7 119/34/7
f 124/35/8 123/38/8 121/36/7
f 110/37/6 109/12/6 123/38/8
f 128/39/5 127/41/5 125/13/6
f 130/40/7 129/6/7 127/41/5
f 132/29/8 131/32/8 129/6/7
f 134/42/6 133/7/6 131/32/8
f 136/43/6 135/44/6 133/7/6
f 126/37/6 125/12/6 135/44/6
f 140/45/5 139/46/5 137/13/6
f 142/23/7 141/26/7 139/46/5
f 144/47/7 143/48/7 141/26/7
f 146/25/7 145/28/7 143/48/7
f 148/49/8 147/50/8 145/28/7
f 150/27/8 149/30/8 147/50/8
f 152/51/8 151/52/8 149/30/8
f 154/29/6 153/32/6 151/52/8
f 156/53/5 155/54/5 153/32/6
f 158/31/5 157/34/5 155/54/5
f 160/55/6 159/56/6 157/34/5
f 162/33/6 161/36/6 159/56/6
f 164/57/5 163/58/5 161/36/6
f 166/35/5 165/38/5 163/58/5
f 168/59/6 167/60/6 165/38/5
f 138/37/6 137/12/6 167/60/6
